<?xml version="1.0" standalone="no"?>
<!DOCTYPE svg PUBLIC "-//W3C//DTD SVG 20010904//EN"
 "http://www.w3.org/TR/2001/REC-SVG-20010904/DTD/svg10.dtd">
<svg version="1.0" xmlns="http://www.w3.org/2000/svg"
 width="790.000000pt" height="512.000000pt" viewBox="0 0 790.000000 512.000000"
 preserveAspectRatio="xMidYMid meet">

<g transform="translate(0.000000,512.000000) scale(0.100000,-0.100000)"
fill="#000000" stroke="none">
<path d="M329 4478 c-6 -137 -5 -175 10 -198 20 -33 40 -67 73 -128 15 -27 38
-63 52 -80 15 -16 26 -33 26 -37 0 -11 103 -180 172 -282 15 -23 28 -46 28
-51 0 -6 7 -17 14 -25 8 -8 28 -37 43 -64 15 -28 55 -94 88 -147 33 -54 69
-111 79 -129 11 -18 37 -58 58 -89 21 -32 38 -62 38 -66 0 -5 14 -28 30 -50
17 -23 30 -47 30 -52 0 -6 17 -34 38 -63 21 -29 43 -63 50 -77 6 -14 30 -52
52 -85 22 -33 46 -73 54 -90 8 -16 23 -41 34 -55 10 -14 29 -43 41 -65 25 -47
80 -136 101 -165 8 -11 21 -33 30 -48 23 -42 51 -89 89 -146 18 -28 41 -67 51
-87 10 -19 26 -41 34 -48 9 -8 16 -21 16 -31 0 -10 7 -23 15 -30 13 -11 34
-45 115 -185 14 -24 33 -52 43 -62 9 -11 17 -26 17 -34 0 -9 8 -24 18 -35 10
-10 33 -45 52 -77 19 -32 46 -77 60 -100 14 -23 34 -57 45 -76 11 -18 31 -49
44 -69 23 -35 143 -232 172 -282 8 -13 26 -42 42 -64 15 -21 27 -43 27 -48 0
-5 11 -24 25 -42 14 -18 25 -37 25 -41 0 -4 21 -40 47 -79 26 -39 56 -87 68
-106 23 -40 24 -40 101 -170 84 -141 84 -140 92 -140 4 0 6 147 4 327 -3 355
0 378 54 442 21 25 22 30 8 47 -8 10 -34 48 -57 83 -52 80 -47 71 -98 161 -24
41 -53 89 -64 105 -12 17 -27 44 -35 60 -8 17 -25 43 -37 58 -13 16 -23 33
-23 38 0 5 -15 31 -34 57 -18 27 -37 58 -40 70 -4 12 -11 22 -15 22 -4 0 -20
24 -34 54 -15 30 -32 58 -37 61 -6 4 -17 23 -26 43 -8 20 -18 39 -22 42 -12 9
-52 69 -52 78 0 5 -13 26 -30 48 -16 21 -30 44 -30 50 0 6 -13 28 -30 49 -16
20 -32 46 -36 58 -4 12 -22 42 -40 66 -19 24 -34 47 -34 51 0 5 -15 30 -32 58
-18 27 -42 64 -53 82 -57 95 -77 128 -96 164 -12 22 -28 46 -36 54 -7 8 -25
35 -38 61 -13 26 -31 53 -39 60 -9 8 -16 18 -16 24 0 5 -16 34 -35 63 -19 29
-35 56 -35 60 0 3 -16 29 -35 55 -19 27 -35 53 -35 58 0 4 -14 27 -30 49 -17
23 -30 47 -30 54 0 6 -9 21 -19 32 -11 12 -26 32 -33 46 -7 14 -38 64 -68 112
-65 104 -85 137 -125 207 -16 29 -40 66 -52 81 -13 15 -23 33 -23 40 0 6 -9
23 -20 37 -44 56 -131 53 1318 53 735 0 1342 4 1347 8 15 11 65 79 65 89 0 5
16 32 35 60 19 29 35 55 35 59 0 3 10 20 23 37 49 69 87 141 87 164 0 13 -11
35 -25 48 l-24 25 -1821 0 c-1449 0 -1820 -3 -1821 -12z"/>
</g>
</svg>
