<?xml version="1.0" encoding="UTF-8"?>
<svg version="1.1" xmlns="http://www.w3.org/2000/svg" width="512" height="512">
<path d="M0 0 C1.72733607 -0.00735005 3.45466725 -0.01593899 5.18199158 -0.02566528 C9.84691956 -0.04777899 14.51167041 -0.05081749 19.17664361 -0.04891777 C23.07616995 -0.04879772 26.97565921 -0.0573748 30.87517518 -0.06569529 C40.07110574 -0.08488863 49.26694552 -0.08782627 58.46289062 -0.08105469 C67.9471048 -0.07439977 77.43093146 -0.09734575 86.91506702 -0.13436842 C95.06816833 -0.1650392 103.2211447 -0.17642881 111.37430257 -0.1725316 C116.23977466 -0.17046331 121.10494434 -0.17595749 125.97036171 -0.20042419 C130.53997915 -0.22264863 135.10896309 -0.22084972 139.67858315 -0.20049667 C141.35516856 -0.19708022 143.03179633 -0.20220307 144.70832443 -0.21648026 C146.9970317 -0.23462718 149.2835785 -0.22196172 151.57221985 -0.20153809 C152.85250722 -0.2022506 154.13279459 -0.2029631 155.45187855 -0.2036972 C159.66755846 0.58437455 161.14652547 2.11290757 163.7878418 5.41992188 C164.4519043 7.91992188 164.4519043 7.91992188 164.4128418 10.41992188 C164.42573242 11.24492187 164.43862305 12.06992188 164.4519043 12.91992188 C163.4832389 16.5666622 161.67338538 18.03722709 158.7878418 20.41992188 C155.60805225 21.04519176 155.60805225 21.04519176 151.95185852 21.04570007 C151.27677236 21.05264462 150.6016862 21.05958916 149.90614289 21.06674415 C147.65039254 21.08396861 145.39634739 21.06571978 143.140625 21.04760742 C141.52065712 21.05278717 139.90069504 21.06018789 138.28074646 21.06964111 C134.79444827 21.08520417 131.3086309 21.08503302 127.82232094 21.07263756 C122.30361384 21.05308625 116.78533343 21.06830138 111.26664734 21.08808899 C102.5309364 21.11524638 93.79539923 21.1187296 85.05965441 21.11231595 C69.4346825 21.10138905 53.80976413 21.12607051 38.18484563 21.16606361 C32.70569887 21.17909668 27.22671163 21.18041559 21.74755728 21.17193067 C18.32838689 21.16828942 14.90925671 21.17262506 11.49009132 21.17877197 C9.91236724 21.17985168 8.33463632 21.17752912 6.75692368 21.17142677 C-10.74040261 21.06815653 -10.74040261 21.06815653 -26.2121582 28.41992188 C-32.3784311 34.7980133 -35.45193113 40.79139911 -35.47958374 49.77546692 C-35.49237869 51.6615139 -35.49237869 51.6615139 -35.50543213 53.58566284 C-35.50473321 54.96636976 -35.5038102 56.34707657 -35.50268555 57.7277832 C-35.50867447 59.19188275 -35.51548086 60.65597914 -35.52304077 62.12007141 C-35.54067151 66.08715301 -35.54539493 70.05414827 -35.54667234 74.02126527 C-35.54809623 76.5028658 -35.55237033 78.98444455 -35.55766678 81.46603966 C-35.57615778 90.13240319 -35.58433861 98.79870529 -35.58276367 107.46508789 C-35.58156271 115.52900242 -35.60265847 123.5926491 -35.634251 131.65649587 C-35.66044855 138.59174471 -35.6711295 145.52690625 -35.66985285 152.46220416 C-35.66934422 156.59901682 -35.67497267 160.73559136 -35.69620895 164.87235451 C-35.71565009 168.76555082 -35.71567615 172.65828331 -35.70117569 176.55149651 C-35.6990937 177.97484138 -35.703752 179.39821573 -35.71589661 180.82151031 C-35.79512283 190.75519978 -34.5645959 197.4391573 -29.0246582 205.66992188 C-19.83380598 214.65653294 -8.58950949 215.71114535 3.74536133 215.73876953 C5.3129998 215.75383797 5.3129998 215.75383797 6.91230774 215.76921082 C10.33175151 215.7998508 13.7511177 215.81702435 17.1706543 215.83398438 C19.55533507 215.85271146 21.94000933 215.87228601 24.32467651 215.89266968 C30.57495263 215.94383399 36.8252502 215.98354356 43.07562256 216.02081299 C49.46412391 216.06095134 55.85253726 216.11199871 62.2409668 216.16210938 C74.75652983 216.25868267 87.27214274 216.34314666 99.7878418 216.41992188 C100.09093262 215.47375 100.39402344 214.52757812 100.70629883 213.55273438 C103.12154541 206.55669732 108.15279795 202.44029627 114.5378418 198.98242188 C123.43664759 194.91027509 132.47492164 194.22273039 141.7878418 197.41992188 C148.21145816 200.40809304 154.05297781 204.26244341 157.7878418 210.41992188 C158.47320501 212.41359229 159.14161694 214.41322362 159.7878418 216.41992188 C190.82921719 216.3379467 221.87054295 216.24590461 252.91184472 216.13987026 C256.57916902 216.12735186 260.2464936 216.11491902 263.91381836 216.10253906 C265.00893463 216.09884007 265.00893463 216.09884007 266.12617446 216.09506635 C277.93698351 216.05537667 289.74780208 216.02261258 301.5586388 215.99242206 C313.68374869 215.9612735 325.80881828 215.92264961 337.93388283 215.87713182 C345.4116058 215.8492945 352.88929938 215.82724092 360.36706014 215.81265937 C366.1075522 215.80083981 371.84796802 215.77860389 377.58841133 215.75253868 C379.93853385 215.74348448 382.28867207 215.73777772 384.63881111 215.73570824 C387.85403392 215.73237049 391.06898259 215.71685193 394.28414917 215.69839478 C395.67038005 215.70129688 395.67038005 215.70129688 397.08461559 215.70425761 C406.69228256 215.62212949 415.98643269 214.40100219 423.7878418 208.41992188 C429.95411469 202.04183045 433.02761473 196.04844464 433.05526733 187.06437683 C433.0637973 185.80701218 433.07232727 184.54964752 433.08111572 183.25418091 C433.0804168 181.87347399 433.07949379 180.49276718 433.07836914 179.11206055 C433.08435807 177.647961 433.09116445 176.18386461 433.09872437 174.71977234 C433.1163551 170.75269074 433.12107852 166.78569548 433.12235594 162.81857848 C433.12377982 160.33697795 433.12805392 157.8553992 433.13335037 155.37380409 C433.15184137 146.70744056 433.1600222 138.04113846 433.15844727 129.37475586 C433.1572463 121.31084133 433.17834206 113.24719465 433.20993459 105.18334788 C433.23613215 98.24809904 433.2468131 91.3129375 433.24553645 84.37763959 C433.24502781 80.24082693 433.25065626 76.10425239 433.27189255 71.96748924 C433.29133368 68.07429293 433.29135974 64.18156044 433.27685928 60.28834724 C433.27477729 58.86500237 433.2794356 57.44162802 433.2915802 56.01833344 C433.37080643 46.08464397 432.14027949 39.40068645 426.6003418 31.16992188 C415.94386398 20.75025467 402.54563541 21.12606907 388.49365234 21.18041992 C386.86484184 21.17930525 385.23603176 21.17724465 383.60722351 21.17431641 C380.11840755 21.16961764 376.62965905 21.17068943 373.14084435 21.17609215 C367.62321029 21.18373389 362.1057048 21.1730125 356.58808899 21.15888977 C340.90491172 21.12123482 325.22179474 21.10298758 309.53857422 21.11450195 C300.86264639 21.1207145 292.18692779 21.10916455 283.51105148 21.07805663 C278.02617976 21.0593978 272.54190062 21.062723 267.05703866 21.08222425 C263.64892663 21.08909985 260.24113712 21.07516267 256.83308601 21.05527496 C255.25326274 21.05022358 253.67338547 21.05372329 252.09360504 21.06640816 C249.9362154 21.08250055 247.78111166 21.06789187 245.62382507 21.04570007 C244.41728114 21.04553233 243.21073721 21.04536459 241.96763134 21.04519176 C237.86939636 20.2393199 236.37703729 18.62496777 233.7878418 15.41992188 C233.1237793 12.91992188 233.1237793 12.91992188 233.1628418 10.41992188 C233.14995117 9.59492188 233.13706055 8.76992187 233.1237793 7.91992188 C234.09575428 4.26072195 235.8811982 2.80130517 238.7878418 0.41992188 C242.11821842 -0.20649052 242.11821842 -0.20649052 245.99000549 -0.20826721 C247.06177132 -0.21890879 247.06177132 -0.21890879 248.15518898 -0.22976536 C250.54443973 -0.24733779 252.93206187 -0.2292458 255.32128906 -0.21118164 C257.03653198 -0.21632111 258.75176962 -0.22360261 260.46699524 -0.23286438 C265.12457968 -0.25139291 269.78159224 -0.2384268 274.43915296 -0.21877408 C279.3209278 -0.20237971 284.20266661 -0.21120244 289.0844574 -0.21629333 C297.2901216 -0.22081641 305.49555805 -0.20493861 313.70117188 -0.17700195 C323.16636965 -0.14502381 332.63115495 -0.1449361 342.09638172 -0.16221672 C351.21763144 -0.17813156 360.33873105 -0.17131162 369.45997429 -0.15427971 C373.33249889 -0.14743546 377.20490222 -0.14841482 381.077425 -0.15582466 C385.65025168 -0.16353641 390.22261463 -0.1512032 394.79536247 -0.12397575 C396.46575927 -0.11713893 398.13619978 -0.1169429 399.80659485 -0.12419128 C416.01600352 -0.18637532 429.29126061 3.42457491 441.5378418 14.60742188 C452.72597964 26.60239659 455.24593881 39.87358054 455.19189453 55.68505859 C455.1976074 57.20399474 455.20457518 58.7229266 455.21269226 60.24185181 C455.23053872 64.34117082 455.22947132 68.44027478 455.22374988 72.53962088 C455.22064531 75.97373064 455.22676458 79.40779984 455.23278862 82.84190381 C455.24680461 90.94981307 455.24529731 99.05761691 455.23388672 107.16552734 C455.22241127 115.50326915 455.23647814 123.84068907 455.26328319 132.17838848 C455.2855043 139.36175597 455.2920631 146.54502289 455.28620678 153.72842228 C455.28285094 158.00777661 455.28516011 162.28692474 455.30245781 166.56624985 C455.31802735 170.59330981 455.31386181 174.61989638 455.29515266 178.64693832 C455.29149411 180.11578283 455.29449445 181.58466321 455.30503845 183.05347443 C455.40872133 198.70460472 451.27099343 211.48425703 440.6003418 223.16992188 C430.30111027 232.77637998 417.95974252 236.90926819 404.1322937 236.78068542 C403.10694492 236.7832487 402.08159613 236.78581197 401.02517617 236.78845292 C397.61500898 236.79336497 394.2052919 236.77694034 390.79516602 236.76049805 C388.34052033 236.75965122 385.88587388 236.76012801 383.43122864 236.76182556 C378.15967986 236.76250707 372.88826919 236.7540393 367.61675644 236.73711205 C359.99520678 236.71265465 352.37371088 236.70490991 344.75212623 236.70114807 C332.38444348 236.69459412 320.01682034 236.67466173 307.64916992 236.64624023 C295.64038388 236.61867225 283.63161407 236.59745211 271.62280273 236.5847168 C270.88166807 236.58392863 270.14053341 236.58314046 269.37694012 236.5823284 C265.65861282 236.57841308 261.94028541 236.57462201 258.22195792 236.57089269 C227.41054255 236.53982969 196.59920125 236.48679862 165.7878418 236.41992188 C166.19894196 237.74838387 166.19894196 237.74838387 166.61834717 239.10368347 C166.97817688 240.26918228 167.33800659 241.43468109 167.70874023 242.63549805 C168.06530701 243.78926437 168.42187378 244.9430307 168.78924561 246.13175964 C169.95825953 249.98107079 171.01944298 253.84068352 172.0378418 257.73242188 C172.37299805 259.00730469 172.7081543 260.2821875 173.0534668 261.59570312 C173.29581055 262.52769531 173.5381543 263.4596875 173.7878418 264.41992188 C178.03655325 263.03760161 178.03655325 263.03760161 182.15893555 261.32617188 C189.24707966 258.88271061 198.40175985 259.23551982 205.4284668 261.69335938 C209.04828222 263.52109869 212.45945604 265.56756178 215.86987305 267.75585938 C217.80769702 268.66783363 217.80769702 268.66783363 219.7175293 267.59179688 C220.35948242 267.12257813 221.00143555 266.65335937 221.6628418 266.16992188 C229.38289102 260.6064856 237.56808065 260.6452324 246.7878418 261.41992188 C253.35172145 263.02616227 258.51454261 266.29299208 263.7878418 270.41992188 C264.29573242 270.0821875 264.80362305 269.74445313 265.3269043 269.39648438 C266.01526367 268.95046875 266.70362305 268.50445312 267.4128418 268.04492188 C268.08573242 267.6040625 268.75862305 267.16320312 269.4519043 266.70898438 C277.44709259 262.29692394 286.9002324 262.10368256 295.70581055 264.07226562 C305.63997361 267.66088577 311.28260058 274.13335699 315.7878418 283.41992188 C317.07863811 286.89498927 318.08056316 290.42353283 319.05737305 293.99804688 C319.33966766 294.99498566 319.62196228 295.99192444 319.91281128 297.01907349 C320.81988498 300.2329921 321.71063963 303.45115533 322.6003418 306.66992188 C323.22232508 308.89231935 323.8451321 311.11448644 324.46875 313.33642578 C325.6947841 317.71122719 326.91423272 322.08778411 328.12866211 326.46582031 C329.51647232 331.46118509 330.93542653 336.44672838 332.3737793 341.42773438 C343.66083577 380.76057978 344.04608082 416.84232211 323.7878418 453.41992188 C307.5454111 480.43813891 281.03217576 499.93987047 250.7878418 508.41992188 C250.09851563 508.6189209 249.40918945 508.81791992 248.69897461 509.02294922 C213.66430632 518.72302405 175.06054543 511.98193755 143.67114258 494.52636719 C134.17917995 488.94980838 125.71573821 482.02865982 117.7878418 474.41992188 C116.89452148 473.58976562 116.00120117 472.75960938 115.08081055 471.90429688 C101.3551361 458.7737216 92.55794714 442.49530835 83.14968872 426.20903015 C80.56948617 421.74915881 77.95295529 417.31238238 75.3112793 412.88867188 C74.94972748 412.28258591 74.58817566 411.67649994 74.21566772 411.05204773 C72.49851198 408.17475984 70.77794856 405.29961811 69.05297852 402.42700195 C54.51232384 378.04044162 54.51232384 378.04044162 57.25268555 362.84179688 C60.3997979 350.99822614 66.60869632 343.38635796 76.95581055 337.10351562 C85.60627817 332.83039306 96.51470012 333.19924611 105.8190918 335.00976562 C114.43818448 337.96916928 120.51290086 345.11632824 126.7878418 351.41992188 C125.53571342 344.85874567 124.08779405 338.38561512 122.40527344 331.92211914 C122.17571457 331.03124603 121.9461557 330.14037292 121.7096405 329.22250366 C120.95837911 326.30976147 120.20325197 323.39803738 119.44799805 320.48632812 C118.91974049 318.4419455 118.39170367 316.39750583 117.86387634 314.35301208 C116.7601846 310.08020893 115.65473583 305.80786589 114.54785156 301.53588867 C113.13560217 296.08531554 111.72634921 290.63397376 110.31824589 285.18232822 C108.96668052 279.95006507 107.61366039 274.71817846 106.26049805 269.48632812 C106.00577288 268.50101168 105.75104771 267.51569523 105.48860359 266.50052071 C104.75979508 263.68251465 104.02996049 260.86477637 103.29980469 258.04711914 C103.08931488 257.23275894 102.87882507 256.41839874 102.66195679 255.57936096 C101.0880151 249.51218226 99.44792147 243.46406343 97.7878418 237.41992188 C97.2062241 237.41845531 96.6246064 237.41698875 96.02536392 237.41547775 C81.82582604 237.37830883 67.62651896 237.31916159 53.42717361 237.23601913 C46.56025081 237.19633216 39.69344089 237.16388753 32.82641602 237.14892578 C26.19322519 237.13445264 19.56034885 237.09922357 12.9272995 237.05161285 C10.40294191 237.03683233 7.87853433 237.02888278 5.35413361 237.02803802 C1.80464315 237.0256567 -1.74388894 236.99848129 -5.29321289 236.96582031 C-6.84150032 236.97336586 -6.84150032 236.97336586 -8.42106628 236.98106384 C-22.02557264 236.78873342 -33.95599916 231.36944906 -43.9621582 222.23242188 C-55.15029605 210.23744716 -57.67025522 196.96626321 -57.61621094 181.15478516 C-57.6219238 179.63584901 -57.62889159 178.11691715 -57.63700867 176.59799194 C-57.65485512 172.49867293 -57.65378772 168.39956897 -57.64806628 164.30022287 C-57.64496171 160.86611311 -57.65108099 157.43204391 -57.65710503 153.99793994 C-57.67112101 145.89003068 -57.66961372 137.78222684 -57.65820312 129.67431641 C-57.64672768 121.3365746 -57.66079455 112.99915468 -57.6875996 104.66145527 C-57.70982071 97.47808778 -57.7163795 90.29482086 -57.71052319 83.11142147 C-57.70716734 78.83206714 -57.70947652 74.55291901 -57.72677422 70.2735939 C-57.74234376 66.24653394 -57.73817822 62.21994737 -57.71946907 58.19290543 C-57.71581052 56.72406092 -57.71881085 55.25518054 -57.72935486 53.78636932 C-57.83303773 38.13523903 -53.69530984 25.35558672 -43.0246582 13.66992188 C-30.40034835 1.89478084 -16.43865278 -0.03319129 0 0 Z M121.7878418 219.41992188 C119.80369899 221.59847637 118.47960447 223.54605489 117.7878418 226.41992188 C118.32918166 232.37192761 119.55762151 237.9610098 121.08178711 243.73022461 C121.43107269 245.07695 121.43107269 245.07695 121.78741455 246.45088196 C122.55873899 249.41971578 123.33728646 252.38660341 124.1159668 255.35351562 C124.66673211 257.46661342 125.2170774 259.57982073 125.76702881 261.69313049 C127.2239237 267.28638243 128.68706744 272.87798213 130.15136719 278.46929932 C131.30507576 282.87879509 132.45440073 287.28942675 133.60338593 291.70015526 C134.7383738 296.0565898 135.87492668 300.41261503 137.01185608 304.76854324 C137.58137724 306.95062835 138.15066223 309.13277511 138.7197113 311.31498337 C141.94165328 323.66457755 145.20562462 336.00116298 148.54760742 348.31884766 C149.45536418 351.6804171 150.36241001 355.04217767 151.26931 358.40397835 C152.12616151 361.56490512 152.99526779 364.72228993 153.86480713 367.87974548 C154.38630058 369.80972388 154.90722624 371.73985583 155.42749023 373.67016602 C155.66816475 374.52852869 155.90883926 375.38689137 156.15680695 376.27126503 C157.57578176 381.59992257 158.58596943 386.89898474 157.7878418 392.41992188 C155.7878418 395.48242188 155.7878418 395.48242188 152.7878418 397.41992188 C147.42379198 398.18621471 145.06936928 397.87964397 140.55314636 394.7938385 C136.91564294 391.96281063 133.80395518 388.56920721 130.6081543 385.25976562 C129.02395306 383.64540715 127.43930382 382.03148821 125.85424805 380.41796875 C123.37830487 377.88625667 120.9064805 375.35085499 118.44262695 372.80737305 C116.05072326 370.34270548 113.64322254 367.89415623 111.2331543 365.44726562 C110.50581085 364.68784164 109.77846741 363.92841766 109.02908325 363.14598083 C104.08680241 358.15550947 99.58212833 354.68170039 92.28393555 354.28320312 C85.85004862 355.68718225 82.40498219 358.98344598 78.7878418 364.41992188 C77.39451695 368.59989643 76.9421301 372.24761381 78.58129883 376.45800781 C79.76204276 378.78762674 81.03246149 381.0399884 82.3503418 383.29492188 C82.83704346 384.15279297 83.32374512 385.01066406 83.82519531 385.89453125 C89.69653729 396.16548503 95.83417884 406.28329011 101.96850586 416.3984375 C103.68737302 419.25306713 105.37987506 422.12122909 107.0612793 424.99804688 C125.39081078 456.28571222 149.30299823 478.42205773 184.7878418 488.41992188 C185.86163086 488.73960937 186.93541992 489.05929687 188.04174805 489.38867188 C216.11622832 496.41542476 246.75716857 491.13807853 271.58105469 476.79492188 C294.3598027 462.87833421 310.60320252 439.80746532 317.1003418 414.04492188 C318.98393426 406.24033201 319.93446059 398.82399047 319.9753418 390.79492188 C319.98952148 389.54453125 320.00370117 388.29414063 320.01831055 387.00585938 C319.62518581 374.4841547 316.47279768 362.62438325 313.1394043 350.63867188 C312.68058164 348.96923666 312.22220605 347.29967851 311.76425171 345.63000488 C310.81008576 342.15927236 309.84955919 338.69038094 308.88452148 335.22265625 C307.65177318 330.79036717 306.4369315 326.3533915 305.22692299 321.91484833 C304.28750172 318.47768896 303.33789541 315.0434065 302.38529587 311.60987854 C301.93307517 309.97460699 301.48417257 308.33841389 301.03874588 306.70127869 C300.4155882 304.41629252 299.77857059 302.13560826 299.13793945 299.85546875 C298.95909714 299.18837891 298.78025482 298.52128906 298.59599304 297.83398438 C297.17898056 292.87505749 295.17501048 288.23087743 290.9753418 285.04492188 C286.21403906 283.68454967 282.86446463 283.85114 278.4753418 286.16992188 C275.29599608 288.78768783 275.29599608 288.78768783 273.7878418 292.41992188 C273.49684256 296.2756618 273.72314754 299.19349196 274.7878418 302.91992188 C275.86890462 306.70364177 276.22250265 309.50797422 275.7878418 313.41992188 C273.99221775 316.17321209 272.73529258 317.94619649 269.7878418 319.41992188 C266.1010942 319.76772825 263.61026773 319.8401021 260.2800293 318.13867188 C256.42997614 313.93861389 255.60519758 309.045677 254.2253418 303.60742188 C251.71033999 292.19630508 251.71033999 292.19630508 245.0378418 282.98242188 C240.83388802 281.93143343 236.84204308 281.27133621 232.97143555 283.43554688 C230.28507663 285.58463401 228.8831545 287.13398377 227.7878418 290.41992188 C227.31228192 297.16268162 229.10846634 302.84242036 231.01049805 309.21679688 C232.53008789 314.58311986 233.60823626 319.83063099 232.7878418 325.41992188 C230.8004112 328.46317498 229.46743052 330.0406599 225.8503418 330.85742188 C222.2721178 331.07428394 220.43961023 330.82048991 217.31738281 328.90161133 C213.94811874 325.59608394 213.30780278 322.6496492 212.25268555 318.14648438 C212.04728653 317.34512054 211.84188751 316.54375671 211.63026428 315.71810913 C210.97763242 313.16445111 210.34962076 310.60564625 209.7253418 308.04492188 C209.09509687 305.49210429 208.45933825 302.94111452 207.80970764 300.39315796 C207.40708085 298.81119097 207.01567194 297.22631144 206.63743591 295.63833618 C205.12422573 289.64860287 203.10646347 284.96566966 197.7878418 281.41992188 C194.05328274 280.74414452 190.42565394 280.7213933 186.90112305 282.22460938 C183.7581444 284.43154354 182.79618765 286.38761649 181.8503418 290.04882812 C181.19176562 297.65092066 184.15925732 305.20458998 186.2878418 312.41992188 C191.6916381 330.73734564 191.6916381 330.73734564 189.7878418 338.41992188 C187.53830006 341.18858863 185.82286747 341.41100625 182.3503418 342.29492188 C178.23895479 342.43918107 176.84664297 342.13885625 173.7878418 339.41992188 C171.04302487 333.81673635 169.44884907 328.02010776 167.84863281 322.00585938 C167.57176636 320.98220276 167.2948999 319.95854614 167.00964355 318.90386963 C166.41164282 316.69083895 165.81591693 314.47719257 165.22223091 312.26300049 C164.28122491 308.75570024 163.33303951 305.25041382 162.38279724 301.74560547 C159.68307807 291.78373287 156.99494875 281.81875548 154.31494141 271.8515625 C152.6728253 265.74638167 151.02121865 259.64383258 149.3638134 253.54278564 C148.73539708 251.22181098 148.11067169 248.89983363 147.489748 246.57684326 C146.62085604 243.32674987 145.73997907 240.08012302 144.85644531 236.83398438 C144.47832954 235.40146332 144.47832954 235.40146332 144.09257507 233.94000244 C141.68590117 224.84268975 141.68590117 224.84268975 135.67456055 217.97460938 C130.12388959 216.2591267 126.87506076 216.02844257 121.7878418 219.41992188 Z " fill="#000000" transform="translate(57.212158203125,-0.419921875)"/>
<path d="M0 0 C5.7021625 3.2650229 7.8746665 8.89943322 10.6875 14.5625 C11.73782204 16.62783776 12.78861141 18.69293792 13.83984375 20.7578125 C14.36433105 21.79711914 14.88881836 22.83642578 15.42919922 23.90722656 C17.81827568 28.61111538 20.28300297 33.27415747 22.75 37.9375 C24.16724905 40.6246931 25.58368308 43.31231551 27 46 C27.0093457 44.81446533 27.01869141 43.62893066 27.02832031 42.4074707 C27.06825998 37.99953955 27.13402981 33.59230342 27.20751953 29.18481445 C27.2357061 27.27898095 27.25693216 25.37303105 27.27099609 23.46704102 C27.29245783 20.72351594 27.33912365 17.98138687 27.390625 15.23828125 C27.39246796 13.96456413 27.39246796 13.96456413 27.39434814 12.66511536 C27.49454617 8.59770493 27.68478419 6.49675856 29.91308594 2.98510742 C33.38917826 -0.3214095 36.08986923 -0.39647469 40.73828125 -0.3515625 C43 0 43 0 46 2.25 C49.35514854 6.86332924 49.15252577 11.12242958 49.16113281 16.68676758 C49.16858017 17.84120613 49.16858017 17.84120613 49.17617798 19.01896667 C49.19076257 21.56083069 49.19759551 24.10263229 49.203125 26.64453125 C49.20887961 28.41566468 49.21463731 30.18679811 49.22039795 31.95793152 C49.23089748 35.6709319 49.23674696 39.3839107 49.24023438 43.09692383 C49.24571611 47.84481319 49.26974166 52.59241536 49.29820633 57.34021473 C49.31686911 60.99916914 49.32204025 64.65805487 49.32357025 68.31705284 C49.32658922 70.0668768 49.33459215 71.81669977 49.34775543 73.56647682 C49.36489194 76.01955379 49.36291736 78.47193559 49.35644531 80.92504883 C49.3656601 81.6416568 49.37487488 82.35826477 49.3843689 83.09658813 C49.33703301 88.85063779 47.8790677 93.03305101 44.8125 97.875 C41.79622012 99.74717372 38.48520424 100.28076952 35 100 C30.40040051 98.62569167 28.47887391 96.57817958 26.140625 92.5625 C25.1596256 90.71751036 24.19699317 88.86267295 23.25 87 C22.73920898 86.0291748 22.22841797 85.05834961 21.70214844 84.05810547 C20.64564106 82.04616217 19.59654404 80.03031111 18.5546875 78.01074219 C16.63067528 74.28478134 14.66816969 70.57992305 12.703125 66.87548828 C10.79096204 63.25612876 8.89525136 59.6282371 7 56 C6.99383667 57.73286255 6.99383667 57.73286255 6.98754883 59.50073242 C6.96573676 63.79691869 6.91142598 68.09219179 6.84741211 72.38793945 C6.82425012 74.24527213 6.8098406 76.10273582 6.80444336 77.96020508 C6.79514038 80.634455 6.75412303 83.30664968 6.70703125 85.98046875 C6.71293022 87.2213752 6.71293022 87.2213752 6.71894836 88.48735046 C6.61119717 92.76836815 6.37925909 94.51134766 3.6706543 98.0012207 C0.29509906 100.52756413 -1.79459861 101 -6 101 C-10.17581627 99.71513346 -11.59046336 98.77252597 -13.64860535 94.89016724 C-15.24369592 90.88975118 -15.41675473 87.02323984 -15.37231445 82.75732422 C-15.37596512 81.96454071 -15.37961578 81.1717572 -15.38337708 80.35494995 C-15.39143225 77.75463931 -15.37791719 75.15496164 -15.36328125 72.5546875 C-15.36276214 70.73821005 -15.36328181 68.92173203 -15.36479187 67.10525513 C-15.36470238 63.30755167 -15.35431828 59.51006153 -15.33618164 55.71240234 C-15.31346296 50.84897386 -15.31295874 45.98585583 -15.31969929 41.12238884 C-15.32304272 37.37514494 -15.31640264 33.62797162 -15.30657005 29.88074112 C-15.30272667 28.08741755 -15.30156626 26.29408611 -15.3031559 24.50075912 C-15.3035274 21.99498305 -15.29088383 19.48960317 -15.2746582 16.98388672 C-15.27713562 16.24609985 -15.27961304 15.50831299 -15.28216553 14.74816895 C-15.22635627 9.33867737 -14.56771086 5.70603829 -10.875 1.6875 C-7.24445973 -0.44346929 -4.11775824 -1.0606347 0 0 Z " fill="#000000" transform="translate(353,68)"/>
<path d="M0 0 C1.10859375 -0.00193359 2.2171875 -0.00386719 3.359375 -0.00585938 C4.5040625 0.01798828 5.64875 0.04183594 6.828125 0.06640625 C7.95734375 0.05544922 9.0865625 0.04449219 10.25 0.03320312 C19.34040236 0.11211287 27.07936439 1.6373795 33.953125 7.87890625 C40.57595206 15.12652831 42.31461315 22.67357599 42.3359375 32.26953125 C42.08994175 35.47493042 41.47896294 37.59057553 40.203125 40.50390625 C39.2976171 42.58461401 39.2976171 42.58461401 39.078125 44.62890625 C40.25223944 46.69626855 41.68473273 48.11011571 43.37109375 49.78125 C49.33377027 56.23513099 49.71893601 64.61841149 49.45703125 73.0078125 C48.52490698 81.91584549 44.73328246 88.67638493 38.078125 94.62890625 C28.80615653 101.88763854 16.93289407 101.76857132 5.640625 101.94140625 C4.52312866 101.96811401 4.52312866 101.96811401 3.38305664 101.99536133 C-1.76479517 101.98785296 -5.37171823 101.08518557 -9.921875 98.62890625 C-12.49098128 94.77524683 -12.23199372 91.57700127 -12.24414062 87.10595703 C-12.25407043 86.23572906 -12.26400024 85.3655011 -12.27423096 84.46890259 C-12.30346414 81.58730926 -12.31707551 78.70593606 -12.328125 75.82421875 C-12.33962807 73.82266228 -12.35114353 71.82110589 -12.3626709 69.81954956 C-12.38368751 65.62138847 -12.39537522 61.42330396 -12.40234375 57.22509766 C-12.41331788 51.84554061 -12.46138146 46.46699489 -12.51828766 41.0877552 C-12.55553403 36.95275921 -12.56595114 32.8180071 -12.5690155 28.68285751 C-12.57507044 26.69967998 -12.59113434 24.71650683 -12.61738586 22.7334938 C-12.65150261 19.95842761 -12.64775249 17.18583536 -12.63476562 14.41064453 C-12.65319519 13.59176758 -12.67162476 12.77289063 -12.69061279 11.92919922 C-12.61111034 6.50585262 -12.61111034 6.50585262 -10.6406517 3.99874592 C-7.16972341 0.97170401 -4.55597806 -0.00332284 0 0 Z M9.078125 21.62890625 C9.078125 26.57890625 9.078125 31.52890625 9.078125 36.62890625 C14.834814 37.26703118 14.834814 37.26703118 19.640625 34.56640625 C21.51438005 30.73742853 21.20775201 28.69556349 20.078125 24.62890625 C19.16145833 22.54557292 19.16145833 22.54557292 17.078125 21.62890625 C14.35955077 21.39250849 11.81824831 21.49414609 9.078125 21.62890625 Z M9.078125 57.62890625 C9.078125 65.21890625 9.078125 72.80890625 9.078125 80.62890625 C18.0888816 80.86689491 18.0888816 80.86689491 25.390625 76.62890625 C28.47130302 72.9777323 28.39922168 70.36508222 28.078125 65.62890625 C26.64098622 61.90925293 25.42242935 60.82860277 21.953125 58.81640625 C17.31943613 57.18940323 17.31943613 57.18940323 9.078125 57.62890625 Z " fill="#000000" transform="translate(51.921875,67.37109375)"/>
<path d="M0 0 C8.70922436 5.21630223 14.57133602 12.49432671 17.2109375 22.32421875 C17.52473237 26.04755649 17.53881471 29.76100676 17.546875 33.49609375 C17.5568602 35.11248749 17.5568602 35.11248749 17.56704712 36.76153564 C17.5771518 39.03762105 17.58186482 41.31373594 17.58154297 43.58984375 C17.58590529 47.04868185 17.62221991 50.50623204 17.66015625 53.96484375 C17.66602722 56.18358942 17.66999474 58.40234111 17.671875 60.62109375 C17.68624603 61.64434753 17.70061707 62.66760132 17.71542358 63.72186279 C17.65358834 73.57927136 14.88742152 81.41617851 8.046875 88.57421875 C1.14943574 95.14879915 -5.95723004 97.91392714 -15.5859375 98.4921875 C-25.26494589 98.11453833 -33.77077551 93.93756195 -40.3515625 86.88671875 C-47.05008056 78.61780122 -47.94666151 70.49133244 -48.02734375 60.16015625 C-48.0354155 59.17230133 -48.04348724 58.18444641 -48.05180359 57.16665649 C-48.06561229 55.07710508 -48.07634876 52.98753141 -48.08422852 50.89794922 C-48.09572666 48.77613647 -48.11614391 46.65435216 -48.14575195 44.53271484 C-48.51360414 18.15010933 -48.51360414 18.15010933 -39.55859375 7.109375 C-29.19444382 -3.34629061 -13.46535583 -6.37479471 0 0 Z M-23.7890625 21.32421875 C-27.01625553 26.42359434 -27.23046608 30.61096149 -27.1875 36.44921875 C-27.19037018 37.31434082 -27.19324036 38.17946289 -27.19619751 39.07080078 C-27.19823148 40.89291034 -27.19274843 42.71504206 -27.18017578 44.53710938 C-27.16411231 47.31560396 -27.18004686 50.09264406 -27.19921875 52.87109375 C-27.1972362 54.64713861 -27.19339228 56.42318256 -27.1875 58.19921875 C-27.19357269 59.02437988 -27.19964539 59.84954102 -27.2059021 60.69970703 C-27.1361833 66.45778195 -26.21720425 70.896077 -21.9765625 75.13671875 C-19.12403378 76.68523434 -17.04275946 77.19407087 -13.7890625 77.32421875 C-10.18375958 75.91037447 -7.21536963 74.38902776 -4.7890625 71.32421875 C-3.8899449 68.62686595 -3.64993311 66.99862392 -3.61206055 64.22338867 C-3.59922531 63.40210983 -3.58639008 62.58083099 -3.57316589 61.73466492 C-3.56577896 60.85027237 -3.55839203 59.96587982 -3.55078125 59.0546875 C-3.5427095 58.1409285 -3.53463776 57.22716949 -3.52632141 56.28572083 C-3.51249243 54.35155122 -3.50176497 52.41735733 -3.49389648 50.4831543 C-3.47668792 47.53321832 -3.43279199 44.58440454 -3.38867188 41.63476562 C-3.3785441 39.75391448 -3.37002826 37.87305382 -3.36328125 35.9921875 C-3.34577316 35.11386765 -3.32826508 34.23554779 -3.31022644 33.33061218 C-3.32957231 27.8372177 -4.07842018 24.65281235 -7.7890625 20.32421875 C-13.02843198 16.83130577 -19.02181219 17.2380042 -23.7890625 21.32421875 Z " fill="#000000" transform="translate(222.7890625,70.67578125)"/>
<path d="M0 0 C9.08684714 5.51757099 13.94763671 12.39369137 17.27734375 22.3828125 C17.38398472 23.97090612 17.43594389 25.56297732 17.4543457 27.15454102 C17.46718094 28.1230751 17.48001617 29.09160919 17.49324036 30.0894928 C17.50062729 31.13632736 17.50801422 32.18316193 17.515625 33.26171875 C17.52369675 34.34355942 17.53176849 35.42540009 17.54008484 36.5400238 C17.55392491 38.8340393 17.56464741 41.12807537 17.57250977 43.42211914 C17.58965757 46.90746977 17.63353796 50.3918557 17.67773438 53.87695312 C17.68786736 56.10936805 17.69638157 58.34179102 17.703125 60.57421875 C17.72938713 62.12321617 17.72938713 62.12321617 17.75617981 63.70350647 C17.72694075 73.60387238 14.98488598 81.44227253 8.11328125 88.6328125 C1.21584199 95.2073929 -5.89082379 97.97252089 -15.51953125 98.55078125 C-25.19853964 98.17313208 -33.70436926 93.9961557 -40.28515625 86.9453125 C-46.98367431 78.67639497 -47.88025526 70.54992619 -47.9609375 60.21875 C-47.96900925 59.23089508 -47.97708099 58.24304016 -47.98539734 57.22525024 C-47.99920604 55.13569883 -48.00994251 53.04612516 -48.01782227 50.95654297 C-48.02932041 48.83473022 -48.04973766 46.71294591 -48.0793457 44.59130859 C-48.44719789 18.20870308 -48.44719789 18.20870308 -39.4921875 7.16796875 C-29.19479251 -3.22035247 -13.40242582 -6.37785987 0 0 Z M-24.72265625 22.3828125 C-27.21366728 26.90762704 -27.02895599 31.3826276 -27.0234375 36.41015625 C-27.02772263 37.27669327 -27.03200775 38.14323029 -27.03642273 39.036026 C-27.04215168 40.86409636 -27.04267689 42.69218951 -27.03833008 44.52026367 C-27.03517074 47.30752686 -27.05864457 50.0937273 -27.08398438 52.88085938 C-27.08625768 54.661457 -27.08696072 56.44205747 -27.0859375 58.22265625 C-27.09514725 59.05095444 -27.10435699 59.87925262 -27.11384583 60.73265076 C-27.06797095 66.50854575 -26.16546422 70.94000453 -21.91015625 75.1953125 C-19.05762753 76.74382809 -16.97635321 77.25266462 -13.72265625 77.3828125 C-10.11735333 75.96896822 -7.14896338 74.44762151 -4.72265625 71.3828125 C-3.82353865 68.6854597 -3.58352686 67.05721767 -3.5456543 64.28198242 C-3.53281906 63.46070358 -3.51998383 62.63942474 -3.50675964 61.79325867 C-3.49937271 60.90886612 -3.49198578 60.02447357 -3.484375 59.11328125 C-3.47630325 58.19952225 -3.46823151 57.28576324 -3.45991516 56.34431458 C-3.44608618 54.41014497 -3.43535872 52.47595108 -3.42749023 50.54174805 C-3.41028167 47.59181207 -3.36638574 44.64299829 -3.32226562 41.69335938 C-3.31213785 39.81250823 -3.30362201 37.93164757 -3.296875 36.05078125 C-3.27936691 35.1724614 -3.26185883 34.29414154 -3.24382019 33.38920593 C-3.26316606 27.89581145 -4.01201393 24.7114061 -7.72265625 20.3828125 C-13.80271107 16.32944262 -19.47049807 17.75591125 -24.72265625 22.3828125 Z " fill="#000000" transform="translate(152.72265625,70.6171875)"/>
<path d="M0 0 C7.60862995 4.55711228 12.28835542 10.47905459 16.2109375 18.32421875 C16.82587354 23.28763111 16.94688529 27.0976391 14.3359375 31.44921875 C9.93600855 34.08917612 6.21793215 34.34706444 1.2109375 33.32421875 C-2.96019983 30.30680026 -4.53154597 26.83925181 -6.7890625 22.32421875 C-9.40175318 19.4212291 -10.75261867 19.32768959 -14.7265625 18.94921875 C-18.46568672 19.10240447 -20.84467152 19.89942618 -23.7890625 22.32421875 C-25.49083533 25.14252229 -26.04488132 27.26446442 -26.07958984 30.53857422 C-26.09234955 31.35977753 -26.10510925 32.18098083 -26.11825562 33.02706909 C-26.12048126 33.90630035 -26.12270691 34.78553162 -26.125 35.69140625 C-26.1316568 36.60375031 -26.1383136 37.51609436 -26.14517212 38.45608521 C-26.155287 40.38427721 -26.1599895 42.31250415 -26.15966797 44.24072266 C-26.16403678 47.18190583 -26.20035617 50.12158264 -26.23828125 53.0625 C-26.24415063 54.93879697 -26.24811921 56.81510104 -26.25 58.69140625 C-26.26437103 59.56658905 -26.27874207 60.44177185 -26.29354858 61.34347534 C-26.25176615 66.96249533 -25.45025616 70.00368547 -21.7890625 74.32421875 C-19.21870926 75.82792743 -16.75865711 76.2614004 -13.7890625 76.32421875 C-10.37509282 75.05978554 -8.35012408 73.88528033 -5.7890625 71.32421875 C-5.32899904 69.12170883 -5.32899904 69.12170883 -5.1640625 66.69921875 C-5.08929688 65.88195312 -5.01453125 65.0646875 -4.9375 64.22265625 C-4.88851562 63.59617187 -4.83953125 62.9696875 -4.7890625 62.32421875 C-5.7171875 62.11796875 -6.6453125 61.91171875 -7.6015625 61.69921875 C-10.7890625 60.32421875 -10.7890625 60.32421875 -12.7265625 57.69921875 C-14.13709266 53.21871117 -13.89647945 50.90154214 -12.7890625 46.32421875 C-10.53454552 43.39334668 -9.30463385 42.49607587 -5.7890625 41.32421875 C-3.35543778 41.15180167 -0.91585654 41.05756107 1.5234375 41.01171875 C3.46669922 40.95564453 3.46669922 40.95564453 5.44921875 40.8984375 C9.77271605 41.38780532 11.86794001 42.59823441 15.2109375 45.32421875 C17.29255721 49.48745817 16.47881659 54.84603194 16.50610352 59.42578125 C16.52319412 61.42080805 16.56706905 63.41554722 16.61132812 65.41015625 C16.66958505 74.26520845 15.76498665 79.75472699 10.3515625 86.71484375 C2.9234429 94.02018452 -4.85443742 98.00157586 -15.3828125 98.4296875 C-25.07514587 98.05369181 -33.54751885 94.10339743 -40.2890625 87.13671875 C-46.9924572 79.68360228 -48.4017405 69.7776323 -48.3203125 60.13671875 C-48.3241394 59.11296143 -48.32796631 58.0892041 -48.33190918 57.03442383 C-48.33461102 54.88654589 -48.32737217 52.73863405 -48.31054688 50.59082031 C-48.28911318 47.33192512 -48.31040887 44.07523413 -48.3359375 40.81640625 C-48.33329392 38.71483896 -48.32816831 36.61327302 -48.3203125 34.51171875 C-48.32840942 33.55305908 -48.33650635 32.59439941 -48.34484863 31.60668945 C-48.20513232 21.36052881 -45.18949684 12.71036765 -38.08203125 5.26953125 C-27.70006399 -3.53833876 -12.39071446 -5.86603592 0 0 Z " fill="#000000" transform="translate(455.7890625,70.67578125)"/>
<path d="M0 0 C3.49890004 2.11391877 4.70578686 3.11736059 6 7 C6.22560676 9.39254576 6.40848595 11.78928123 6.5625 14.1875 C6.68818359 16.09595703 6.68818359 16.09595703 6.81640625 18.04296875 C6.87699219 19.01878906 6.93757813 19.99460937 7 21 C8.72945489 18.95857689 10.45857048 16.91686798 12.1875 14.875 C12.67025391 14.30523437 13.15300781 13.73546875 13.65039062 13.1484375 C14.13056641 12.58125 14.61074219 12.0140625 15.10546875 11.4296875 C15.58677246 10.86217773 16.06807617 10.29466797 16.56396484 9.70996094 C17.52143056 8.56985726 18.46973166 7.42199397 19.40869141 6.26660156 C23.55362824 1.17333728 23.55362824 1.17333728 26.98828125 0.76171875 C31.15410332 0.6286925 33.37869331 0.61168332 37 2.875 C39.9469448 6.00612885 40.54631956 8.40478036 40.453125 12.74609375 C39.51762215 17.39941399 36.07284581 20.54498513 33 24 C32.04587595 25.10870092 31.09420716 26.21951783 30.14453125 27.33203125 C28.60075062 29.13969755 27.0553888 30.94573706 25.50195312 32.74511719 C21.20109572 37.72834831 17.05985142 42.81771907 13 48 C15.74289673 52.27662784 18.72650643 56.16489716 22.0625 60 C26.12270823 64.73495081 30.08038925 69.53549512 33.9375 74.4375 C34.38552979 75.00404297 34.83355957 75.57058594 35.29516602 76.15429688 C42.82338354 85.77360707 42.82338354 85.77360707 43.34765625 89.4140625 C42.83957206 93.35345495 42.48912509 95.44099989 39.8125 98.5 C35.93435715 100.56834285 32.9272601 101.5488433 28.61328125 100.3203125 C25.37865502 98.68607682 23.57823223 96.7190234 21.1875 94 C20.32640625 93.02289063 19.4653125 92.04578125 18.578125 91.0390625 C15.47595917 87.38226702 12.45448379 83.67231936 9.49609375 79.8984375 C8.13896675 78.09973237 8.13896675 78.09973237 7 77 C6.97873047 78.73636719 6.97873047 78.73636719 6.95703125 80.5078125 C6.91010743 82.04691372 6.86186018 83.58597499 6.8125 85.125 C6.80669922 85.88554687 6.80089844 86.64609375 6.79492188 87.4296875 C6.56875603 93.25974034 5.2674988 95.97653706 1 100 C-3.08851312 101.26372224 -5.20815353 101.2741007 -9.25 99.875 C-12.39180944 97.7328572 -13.400685 96.43378042 -15 93 C-15.29012442 90.13692981 -15.42063108 87.49365596 -15.40405273 84.63305664 C-15.41091599 83.8031572 -15.41777924 82.97325775 -15.42485046 82.11820984 C-15.4431126 79.38201665 -15.43928181 76.64639716 -15.43359375 73.91015625 C-15.43815589 72.00353306 -15.44346156 70.09691151 -15.44947815 68.19029236 C-15.45840814 64.19653641 -15.45598744 60.20298043 -15.44604492 56.20922852 C-15.43455634 51.09680858 -15.45476562 45.98507947 -15.48396206 40.87275028 C-15.50232775 36.93586356 -15.50203084 32.99914226 -15.49632454 29.06222343 C-15.49617136 27.1776069 -15.50221251 25.29297912 -15.51461601 23.4084034 C-15.52953098 20.77061025 -15.51884566 18.13409175 -15.50170898 15.49633789 C-15.51137695 14.72160126 -15.52104492 13.94686462 -15.53100586 13.14865112 C-15.46065364 7.96466848 -14.29563709 4.98484122 -11 1 C-7.53984865 -0.73007568 -3.78327445 -0.4835273 0 0 Z " fill="#000000" transform="translate(261,68)"/>
<path d="M0 0 C3.56240358 2.67180269 5.27945781 4.65878757 6 9 C6.10421812 11.63209637 6.15716388 14.23809913 6.16113281 16.87036133 C6.16609772 17.65949417 6.17106262 18.44862701 6.17617798 19.26167297 C6.19076494 21.86846799 6.19759589 24.47520215 6.203125 27.08203125 C6.20887939 28.89800518 6.21463709 30.7139791 6.22039795 32.529953 C6.23089814 36.33711021 6.2367472 40.14424637 6.24023438 43.95141602 C6.2457164 48.82037056 6.26974235 53.68904508 6.29820633 58.55791187 C6.31686646 62.30951236 6.32204011 66.06104586 6.32357025 69.81268883 C6.32658979 71.60716978 6.33459465 73.40164975 6.34775543 75.19608498 C6.36488638 77.71142266 6.36291866 80.22608208 6.35644531 82.74145508 C6.3656601 83.47676453 6.37487488 84.21207397 6.3843689 84.96966553 C6.34312799 90.10744036 5.40481093 93.54655021 3 98 C-0.9794887 100.52544475 -3.01394307 101.15041546 -7.6875 100.4375 C-11.20003583 98.913192 -12.72450313 98.04701327 -15 95 C-15.39456097 92.02786117 -15.54728123 89.42668553 -15.51757812 86.45532227 C-15.5245874 85.59470184 -15.53159668 84.73408142 -15.53881836 83.84738159 C-15.55641868 81.00339458 -15.54476745 78.16040334 -15.53125 75.31640625 C-15.53394458 73.3386974 -15.53782671 71.36098984 -15.54284668 69.38328552 C-15.54874469 65.23806141 -15.54016985 61.09318208 -15.52148438 56.94799805 C-15.49870965 51.63701416 -15.51180674 46.32683946 -15.53577423 41.01588535 C-15.55023667 36.93147194 -15.54562389 32.84724996 -15.53526306 28.76283073 C-15.53259624 26.8048283 -15.53586396 24.84680845 -15.54518127 22.88882637 C-15.55535248 20.15010769 -15.53983736 17.41269389 -15.51757812 14.67407227 C-15.52567505 13.8661171 -15.53377197 13.05816193 -15.54211426 12.22572327 C-15.48522819 8.44340915 -15.1521571 6.23769739 -13.09265137 3.02037048 C-9.22046494 -0.71806932 -5.18537791 -0.80601729 0 0 Z " fill="#000000" transform="translate(324,68)"/>
<path d="M0 0 C3.125 1.875 3.125 1.875 5 5 C5.98876625 10.02622846 5.7769173 13.70513784 3.125 18.125 C-1.29486216 20.7769173 -4.97377154 20.98876625 -10 20 C-13.125 18.125 -13.125 18.125 -15 15 C-15.98876625 9.97377154 -15.7769173 6.29486216 -13.125 1.875 C-8.70513784 -0.7769173 -5.02622846 -0.98876625 0 0 Z " fill="#000000" transform="translate(261,0)"/>
</svg>
