<?xml version="1.0" encoding="UTF-8"?>
<svg version="1.1" xmlns="http://www.w3.org/2000/svg" width="512" height="512">
<path d="M0 0 C2.44225447 1.66159248 4.74768159 3.38773224 7.0390625 5.25 C7.87179687 5.87648438 8.70453125 6.50296875 9.5625 7.1484375 C18.78558467 14.97496676 26.06978627 28.53729372 27.27636719 40.62792969 C28.16417211 57.82023954 26.19643735 71.52168642 15.0390625 85.25 C14.41257812 86.08273438 13.78609375 86.91546875 13.140625 87.7734375 C5.83095783 96.38743189 -5.16480909 102.17459084 -16.14819336 104.31298828 C-17.49982826 104.57778488 -17.49982826 104.57778488 -18.87876892 104.84793091 C-19.56588455 104.98061371 -20.25300018 105.11329651 -20.9609375 105.25 C-21.01723486 125.46912217 -21.02787251 145.68777801 -20.98428345 165.9069376 C-20.96510613 175.29528815 -20.96082101 184.68320284 -20.99169922 194.0715332 C-21.01857772 202.25529718 -21.01740736 210.43849656 -20.98267841 218.62223953 C-20.96526818 222.95495473 -20.96182048 227.28665869 -20.99197388 231.61932564 C-21.01993042 235.70005426 -21.01029942 239.7789911 -20.97220039 243.85962105 C-20.96479973 245.35474269 -20.97097311 246.85000471 -20.99195671 248.34499741 C-21.28848531 256.43337386 -21.28848531 256.43337386 -18.20529175 263.65176201 C-16.20664284 265.41817943 -14.21812732 266.83849929 -11.9609375 268.25 C-4.02700673 275.46158782 2.15754681 283.35443255 8.0390625 292.25 C8.66683594 293.18199219 9.29460937 294.11398437 9.94140625 295.07421875 C27.28062251 322.63610219 31.99603798 359.04941814 24.87817383 390.62744141 C19.02108313 413.82300651 7.53951716 434.01553935 -8.9609375 451.25 C-9.64414062 451.99636719 -10.32734375 452.74273437 -11.03125 453.51171875 C-17.29371554 460.13236958 -24.40442012 465.22963336 -31.9609375 470.25 C-32.89421875 470.8790625 -33.8275 471.508125 -34.7890625 472.15625 C-62.34043773 489.47425728 -98.78142309 494.237828 -130.3449707 487.0847168 C-153.53902372 481.206518 -173.58732143 469.63250375 -190.9609375 453.25 C-191.62609375 452.64929688 -192.29125 452.04859375 -192.9765625 451.4296875 C-212.91612924 432.705948 -223.20578752 407.09375313 -228.26171875 380.78125 C-228.39747314 380.07548828 -228.53322754 379.36972656 -228.6730957 378.64257812 C-229.04723624 375.53267376 -228.9609375 372.38232921 -228.9609375 369.25 C-308.1609375 369.25 -387.3609375 369.25 -468.9609375 369.25 C-468.9609375 263.65 -468.9609375 158.05 -468.9609375 49.25 C-342.2409375 49.25 -215.5209375 49.25 -84.9609375 49.25 C-84.9609375 45.62 -84.9609375 41.99 -84.9609375 38.25 C-82.94670373 28.73576213 -79.09131405 20.79296891 -72.9609375 13.25 C-72.33445312 12.41726562 -71.70796875 11.58453125 -71.0625 10.7265625 C-54.23488249 -9.10375256 -21.90682862 -12.94757154 0 0 Z M-60.7734375 25.5 C-67.86771815 35.31650462 -69.11450278 45.46460626 -67.9609375 57.25 C-65.70335841 68.03027414 -59.21637602 76.36109065 -50.38671875 82.7421875 C-40.41077851 88.94301348 -29.1889132 89.97308289 -17.80859375 87.58984375 C-6.62384645 83.96617387 1.84161302 76.06122995 7.359375 65.79296875 C11.41050101 56.34506299 11.6392523 45.07439536 8.4765625 35.3125 C3.89997856 24.63913815 -4.35007565 16.38908394 -15.0234375 11.8125 C-32.44033139 6.16971951 -49.16703539 11.72509814 -60.7734375 25.5 Z M-452.9609375 65.25 C-452.9609375 160.29 -452.9609375 255.33 -452.9609375 353.25 C-379.0409375 353.25 -305.1209375 353.25 -228.9609375 353.25 C-227.9709375 345.33 -227.9709375 345.33 -226.9609375 337.25 C-232.9009375 337.25 -238.8409375 337.25 -244.9609375 337.25 C-244.9609375 305.57 -244.9609375 273.89 -244.9609375 241.25 C-229.1209375 241.25 -213.2809375 241.25 -196.9609375 241.25 C-196.9609375 252.47 -196.9609375 263.69 -196.9609375 275.25 C-193.00363881 271.8580297 -189.21534859 268.56396995 -185.4609375 265 C-162.13719571 244.09631563 -132.28054535 233.76726306 -101.2109375 233.9375 C-100.50306091 233.93965515 -99.79518433 233.9418103 -99.06585693 233.94403076 C-88.75195602 233.99444767 -78.94668733 234.34564793 -68.9609375 237.25 C-68.2380957 237.45931152 -67.51525391 237.66862305 -66.77050781 237.88427734 C-57.80217214 240.53648712 -49.38342396 243.68781984 -41.1484375 248.1484375 C-39.07142215 249.39992121 -39.07142215 249.39992121 -36.9609375 249.25 C-36.9609375 201.73 -36.9609375 154.21 -36.9609375 105.25 C-44.3859375 102.775 -44.3859375 102.775 -51.9609375 100.25 C-57.1484375 97.3125 -57.1484375 97.3125 -59.12890625 95.97265625 C-60.95792009 95.01285594 -60.95792009 95.01285594 -62.78887939 95.95031738 C-65.36121391 97.48951122 -67.35713435 99.27152266 -69.54589844 101.32226562 C-70.89684601 102.58629211 -70.89684601 102.58629211 -72.27508545 103.87585449 C-75.83578546 107.25552813 -79.37333727 110.65930623 -82.89127731 114.08345795 C-85.55440441 116.67529029 -88.23179797 119.24667133 -90.95458984 121.77587891 C-104.06474764 132.82966486 -104.06474764 132.82966486 -111.20898438 147.453125 C-111.29858018 150.53937347 -110.940848 153.33578222 -110.35253906 156.35742188 C-109.85040485 161.34871109 -111.27807325 164.13469356 -113.9609375 168.25 C-115.70703125 170.2734375 -115.70703125 170.2734375 -117.3984375 171.625 C-117.95402344 172.08648437 -118.50960938 172.54796875 -119.08203125 173.0234375 C-125.56331256 177.25446106 -132.46855419 176.92032648 -139.9609375 176.25 C-146.16688121 174.61788567 -150.49711867 170.55604094 -153.9609375 165.25 C-156.11296113 161.34858941 -155.90440982 158.48434869 -155.42041016 154.11865234 C-154.78648021 147.13951214 -155.28658448 141.69517122 -159.78970337 136.10325623 C-164.75495931 130.63484412 -170.07863034 127.46491011 -177.48373413 126.8210144 C-188.12755636 126.60483875 -194.46319335 128.7230993 -202.421875 135.9296875 C-204.96923275 138.39469499 -207.43179366 140.91032534 -209.85595703 143.49658203 C-212.34288518 146.13236353 -214.92044151 148.64357033 -217.52734375 151.16015625 C-227.4620534 160.80562391 -227.4620534 160.80562391 -230.96011353 173.67312622 C-230.81962974 175.89504701 -230.52952908 178.03983636 -230.18994141 180.23876953 C-229.55280342 184.97876304 -231.42397358 188.33921475 -233.9609375 192.25 C-235.70703125 194.2734375 -235.70703125 194.2734375 -237.3984375 195.625 C-237.95402344 196.08648437 -238.50960937 196.54796875 -239.08203125 197.0234375 C-245.56331256 201.25446106 -252.46855419 200.92032648 -259.9609375 200.25 C-266.16688121 198.61788567 -270.49711867 194.55604094 -273.9609375 189.25 C-277.16824553 182.79144822 -277.12477704 174.67537788 -275.30859375 167.76953125 C-272.73924425 162.06844244 -268.29885231 158.04790215 -262.84692383 155.11132812 C-259.66103275 154.16049286 -257.39205743 154.51667697 -254.14498901 154.98684692 C-247.39193364 155.75707027 -242.49195437 155.06720846 -236.93261719 150.98535156 C-232.46779069 147.26298768 -228.38305277 143.20205968 -224.36767578 139.00341797 C-221.83757927 136.37670446 -219.22533544 133.86029998 -216.58984375 131.33984375 C-206.52455962 121.72492522 -206.52455962 121.72492522 -202.94363403 108.82687378 C-203.08653357 106.60442142 -203.37946158 104.46021085 -203.72314453 102.26123047 C-204.37183549 97.51943839 -202.50006243 94.16211829 -199.9609375 90.25 C-198.21484375 88.2265625 -198.21484375 88.2265625 -196.5234375 86.875 C-195.96785156 86.41351563 -195.41226562 85.95203125 -194.83984375 85.4765625 C-188.35856244 81.24553894 -181.45332081 81.57967352 -173.9609375 82.25 C-167.75499379 83.88211433 -163.42475633 87.94395906 -159.9609375 93.25 C-157.80891387 97.15141059 -158.01746518 100.01565131 -158.50146484 104.38134766 C-159.13556523 111.36236422 -158.63277344 116.80243473 -154.13327026 122.39811707 C-149.309141 127.70416779 -143.83005638 131.07472133 -136.66775513 131.9654541 C-127.31890445 132.38644189 -121.36861082 130.72274841 -114.21390343 124.45612907 C-108.73520532 119.41389462 -103.67892046 113.95852766 -98.66290283 108.46258545 C-96.01524335 105.58722541 -93.30178275 102.77538774 -90.59375 99.95703125 C-85.31763989 94.44704771 -80.11709132 88.87265702 -74.9609375 83.25 C-77.39945347 77.15371007 -80.20944123 71.21157525 -82.9609375 65.25 C-205.0609375 65.25 -327.1609375 65.25 -452.9609375 65.25 Z M-186.3359375 99.875 C-188.44800256 102.96186432 -188.57288895 104.5782913 -187.9609375 108.25 C-186.4609375 110.75 -186.4609375 110.75 -183.9609375 112.25 C-180.2892288 112.86195145 -178.67280182 112.73706506 -175.5859375 110.625 C-173.47387244 107.53813568 -173.34898605 105.9217087 -173.9609375 102.25 C-175.4609375 99.75 -175.4609375 99.75 -177.9609375 98.25 C-181.6326462 97.63804855 -183.24907318 97.76293494 -186.3359375 99.875 Z M-138.3359375 147.875 C-140.44800256 150.96186432 -140.57288895 152.5782913 -139.9609375 156.25 C-138.4609375 158.75 -138.4609375 158.75 -135.9609375 160.25 C-132.2892288 160.86195145 -130.67280182 160.73706506 -127.5859375 158.625 C-125.47387244 155.53813568 -125.34898605 153.9217087 -125.9609375 150.25 C-127.4609375 147.75 -127.4609375 147.75 -129.9609375 146.25 C-133.6326462 145.63804855 -135.24907318 145.76293494 -138.3359375 147.875 Z M-258.3359375 171.875 C-260.44800256 174.96186432 -260.57288895 176.5782913 -259.9609375 180.25 C-258.4609375 182.75 -258.4609375 182.75 -255.9609375 184.25 C-252.2892288 184.86195145 -250.67280182 184.73706506 -247.5859375 182.625 C-245.47387244 179.53813568 -245.34898605 177.9217087 -245.9609375 174.25 C-247.4609375 171.75 -247.4609375 171.75 -249.9609375 170.25 C-253.6326462 169.63804855 -255.24907318 169.76293494 -258.3359375 171.875 Z M-172.9609375 276.25 C-174.17330078 277.24580078 -174.17330078 277.24580078 -175.41015625 278.26171875 C-196.06700356 295.80544621 -209.96555925 322.76717474 -212.26269531 349.80126953 C-212.39622346 353.37339476 -212.42879665 356.92557094 -212.3984375 360.5 C-212.39086426 361.76416748 -212.38329102 363.02833496 -212.37548828 364.33081055 C-212.09183895 380.53505475 -208.0483652 394.35609357 -201.9609375 409.25 C-192.58394493 404.75129292 -183.72270554 399.85345631 -174.9609375 394.25 C-175.15429688 393.56035156 -175.34765625 392.87070312 -175.546875 392.16015625 C-175.93746094 390.75056641 -175.93746094 390.75056641 -176.3359375 389.3125 C-176.59117187 388.39597656 -176.84640625 387.47945312 -177.109375 386.53515625 C-177.39039063 385.45105469 -177.67140625 384.36695313 -177.9609375 383.25 C-178.22559814 382.28803711 -178.22559814 382.28803711 -178.49560547 381.30664062 C-184.10766476 359.14077124 -179.44452891 336.5652919 -167.9609375 317.25 C-164.48632838 312.06668392 -160.53490261 307.49725332 -155.9609375 303.25 C-155.373125 302.65703125 -154.7853125 302.0640625 -154.1796875 301.453125 C-141.53160728 289.27698807 -125.83403471 284.62461944 -108.9609375 281.25 C-108.9609375 271.02 -108.9609375 260.79 -108.9609375 250.25 C-132.23207086 250.25 -155.64564223 261.23192467 -172.9609375 276.25 Z M-92.9609375 250.25 C-92.9609375 260.48 -92.9609375 270.71 -92.9609375 281.25 C-90.4034375 281.806875 -87.8459375 282.36375 -85.2109375 282.9375 C-68.96857487 286.67164417 -55.8719586 293.54861287 -43.9609375 305.25 C-43.18621094 306.00023437 -42.41148437 306.75046875 -41.61328125 307.5234375 C-25.45194997 324.21146739 -21.46562547 345.20239717 -21.6640625 367.66015625 C-21.88023565 375.40819891 -23.47349801 381.94751701 -25.9609375 389.25 C-26.30924602 390.91360153 -26.64498242 392.57995171 -26.9609375 394.25 C-23.02609789 396.56704962 -19.08762743 398.87785531 -15.1484375 401.1875 C-14.02888672 401.84685547 -12.90933594 402.50621094 -11.75585938 403.18554688 C-10.68271484 403.81396484 -9.60957031 404.44238281 -8.50390625 405.08984375 C-7.51414795 405.67113037 -6.52438965 406.25241699 -5.50463867 406.85131836 C-2.95809003 408.3509488 -2.95809003 408.3509488 0.0390625 409.25 C9.75681726 384.51631735 14.69547965 358.46742843 7.0390625 332.25 C6.77222656 331.26128906 6.50539063 330.27257812 6.23046875 329.25390625 C-2.3420177 300.56465159 -22.57581071 276.9789641 -48.44506836 262.44799805 C-61.89947884 255.33389674 -77.70508687 250.25 -92.9609375 250.25 Z M-228.9609375 257.25 C-228.9609375 278.37 -228.9609375 299.49 -228.9609375 321.25 C-226.9809375 321.25 -225.0009375 321.25 -222.9609375 321.25 C-222.72906738 320.72567383 -222.49719727 320.20134766 -222.25830078 319.66113281 C-221.20183213 317.27365093 -220.14389937 314.88682055 -219.0859375 312.5 C-218.72113281 311.675 -218.35632813 310.85 -217.98046875 310 C-217.62597656 309.20078125 -217.27148438 308.4015625 -216.90625 307.578125 C-216.41922607 306.47839355 -216.41922607 306.47839355 -215.92236328 305.35644531 C-214.9609375 303.25 -214.9609375 303.25 -213.91503906 301.38769531 C-212.8656262 299.03645196 -212.71846343 297.50069623 -212.73388672 294.94042969 C-212.73403778 294.09986023 -212.73418884 293.25929077 -212.73434448 292.39324951 C-212.74466705 291.49519592 -212.75498962 290.59714233 -212.765625 289.671875 C-212.7684549 288.7453009 -212.77128479 287.81872681 -212.77420044 286.86407471 C-212.78538139 283.90925091 -212.81048223 280.95473195 -212.8359375 278 C-212.84596999 275.99479605 -212.85509537 273.98958734 -212.86328125 271.984375 C-212.88531392 267.07279949 -212.91982955 262.16145141 -212.9609375 257.25 C-218.2409375 257.25 -223.5209375 257.25 -228.9609375 257.25 Z M-143.9609375 314.25 C-156.29213105 326.18157154 -163.91492613 340.55752096 -164.25317383 357.85253906 C-164.32252874 367.76945617 -163.95645794 376.04065289 -159.9609375 385.25 C-159.59871094 386.12527344 -159.23648437 387.00054687 -158.86328125 387.90234375 C-151.82779158 403.38042103 -138.47935517 415.08848774 -122.8984375 421.5 C-105.87425484 427.21474679 -87.84710181 426.05499822 -71.72021484 418.18896484 C-56.19932913 409.90512826 -44.66648203 395.66978725 -39.45458984 378.97802734 C-35.12376444 362.93067344 -37.00180337 345.88731653 -44.53515625 331.17578125 C-53.72920891 315.80949744 -67.49343577 303.91837463 -84.9609375 299.25 C-106.75167498 294.57672821 -127.26875393 299.40450916 -143.9609375 314.25 Z M-173.50390625 412.3125 C-174.57705078 412.94414062 -175.65019531 413.57578125 -176.75585938 414.2265625 C-177.87541016 414.89429688 -178.99496094 415.56203125 -180.1484375 416.25 C-181.27958984 416.91773438 -182.41074219 417.58546875 -183.57617188 418.2734375 C-186.37458647 419.92650941 -189.16927316 421.58556223 -191.9609375 423.25 C-190.66529864 429.42434979 -186.01009672 433.59479886 -181.9609375 438.25 C-181.4246875 438.87261719 -180.8884375 439.49523437 -180.3359375 440.13671875 C-161.90385807 459.96080418 -132.93368368 471.6407871 -106.34643555 473.17749023 C-73.95667395 474.32556986 -45.74089764 461.98409304 -21.96484375 440.44140625 C-17.52720785 436.16190437 -13.28018029 431.45586407 -9.9609375 426.25 C-9.9609375 425.26 -9.9609375 424.27 -9.9609375 423.25 C-13.61608373 420.44566371 -17.71975073 418.29242077 -21.7109375 416 C-23.37769531 415.00613281 -23.37769531 415.00613281 -25.078125 413.9921875 C-26.14804687 413.37085938 -27.21796875 412.74953125 -28.3203125 412.109375 C-29.79709473 411.25037598 -29.79709473 411.25037598 -31.30371094 410.37402344 C-33.82982686 409.05558291 -33.82982686 409.05558291 -36.21313477 409.47338867 C-38.5296041 410.50267893 -39.57739572 411.83027197 -41.1484375 413.8125 C-53.24666143 428.13128402 -69.48764848 437.05502533 -87.9609375 440.25 C-111.31552292 441.77184742 -133.37856716 438.63183659 -151.859375 423.18359375 C-163.22083423 412.73020654 -163.22083423 412.73020654 -164.9609375 409.25 C-168.71289233 409.25 -170.28619405 410.40570758 -173.50390625 412.3125 Z " fill="#000000" transform="translate(476.9609375,14.75)"/>
<path d="M0 0 C15.84 0 31.68 0 48 0 C48 42.24 48 84.48 48 128 C32.16 128 16.32 128 0 128 C0 85.76 0 43.52 0 0 Z M16 16 C16 47.68 16 79.36 16 112 C21.28 112 26.56 112 32 112 C32 80.32 32 48.64 32 16 C26.72 16 21.44 16 16 16 Z " fill="#000000" transform="translate(168,224)"/>
<path d="M0 0 C10.23906578 7.73254248 18.72711365 17.59665562 20.6875 30.6875 C22.11678455 48.13329299 19.50517553 61.04058775 8.03125 74.65234375 C0.02533375 83.28136197 -10.26078398 88.35475631 -21.96875 89.00390625 C-38.65548452 89.56319388 -50.64291019 85.89777041 -63.0625 74.375 C-73.05541038 63.81645319 -75.82689781 52.26922077 -75.73217773 38.15722656 C-75.32139743 24.03483761 -69.475381 12.95884274 -59.25 3.28125 C-42.59283172 -10.42061423 -18.05009418 -11.9794347 0 0 Z M-52.3125 20.6875 C-58.26934175 29.45976447 -59.12110965 37.15279681 -58.3125 47.6875 C-56.12872185 56.93424063 -51.15351899 63.11888233 -43.1875 68.0625 C-35.32708088 72.64162267 -26.26387226 73.09301976 -17.41796875 71.00390625 C-7.53444214 67.34502774 -1.9168373 61.05068257 2.6875 51.6875 C5.46216577 43.5484804 4.55686703 33.54186893 0.9375 25.86328125 C-3.398493 18.31594344 -9.86752726 12.8846498 -18.203125 10.04296875 C-31.49468706 7.8030944 -43.27510706 10.40495515 -52.3125 20.6875 Z " fill="#000000" transform="translate(403.3125,335.3125)"/>
<path d="M0 0 C15.84 0 31.68 0 48 0 C48 26.4 48 52.8 48 80 C32.16 80 16.32 80 0 80 C0 53.6 0 27.2 0 0 Z M16 16 C16 31.84 16 47.68 16 64 C21.28 64 26.56 64 32 64 C32 48.16 32 32.32 32 16 C26.72 16 21.44 16 16 16 Z " fill="#000000" transform="translate(40,272)"/>
<path d="M0 0 C15.84 0 31.68 0 48 0 C48 21.12 48 42.24 48 64 C32.16 64 16.32 64 0 64 C0 42.88 0 21.76 0 0 Z M16 16 C16 26.56 16 37.12 16 48 C21.28 48 26.56 48 32 48 C32 37.44 32 26.88 32 16 C26.72 16 21.44 16 16 16 Z " fill="#000000" transform="translate(104,288)"/>
<path d="M0 0 C36.96 0 73.92 0 112 0 C112 5.28 112 10.56 112 16 C75.04 16 38.08 16 0 16 C0 10.72 0 5.44 0 0 Z " fill="#000000" transform="translate(72,192)"/>
<path d="M0 0 C36.96 0 73.92 0 112 0 C112 5.28 112 10.56 112 16 C75.04 16 38.08 16 0 16 C0 10.72 0 5.44 0 0 Z " fill="#000000" transform="translate(72,160)"/>
<path d="M0 0 C36.96 0 73.92 0 112 0 C112 5.28 112 10.56 112 16 C75.04 16 38.08 16 0 16 C0 10.72 0 5.44 0 0 Z " fill="#000000" transform="translate(72,128)"/>
<path d="M0 0 C36.96 0 73.92 0 112 0 C112 5.28 112 10.56 112 16 C75.04 16 38.08 16 0 16 C0 10.72 0 5.44 0 0 Z " fill="#000000" transform="translate(72,96)"/>
<path d="M0 0 C5.28 0 10.56 0 16 0 C16 5.28 16 10.56 16 16 C10.72 16 5.44 16 0 16 C0 10.72 0 5.44 0 0 Z " fill="#000000" transform="translate(40,192)"/>
<path d="M0 0 C5.28 0 10.56 0 16 0 C16 5.28 16 10.56 16 16 C10.72 16 5.44 16 0 16 C0 10.72 0 5.44 0 0 Z " fill="#000000" transform="translate(40,160)"/>
<path d="M0 0 C5.28 0 10.56 0 16 0 C16 5.28 16 10.56 16 16 C10.72 16 5.44 16 0 16 C0 10.72 0 5.44 0 0 Z " fill="#000000" transform="translate(40,128)"/>
<path d="M0 0 C5.28 0 10.56 0 16 0 C16 5.28 16 10.56 16 16 C10.72 16 5.44 16 0 16 C0 10.72 0 5.44 0 0 Z " fill="#000000" transform="translate(40,96)"/>
</svg>
