<?xml version="1.0" encoding="UTF-8"?>
<svg version="1.1" xmlns="http://www.w3.org/2000/svg" width="512" height="512">
<path d="M0 0 C2.37650988 -0.00542745 4.7530164 -0.01255359 7.1295166 -0.02124023 C13.55298605 -0.03940122 19.97619715 -0.03243607 26.39967084 -0.01972389 C30.41789993 -0.01258698 34.43609641 -0.01396345 38.45432854 -0.01768494 C39.12351527 -0.01829787 39.79270201 -0.0189108 40.48216714 -0.01954231 C41.84202943 -0.02082134 43.20189172 -0.02211819 44.56175398 -0.02343267 C57.28143325 -0.03481 70.00099677 -0.02176921 82.72065704 -0.00023121 C93.6124946 0.01764133 104.5041616 0.01452892 115.39599609 -0.00390625 C128.07489367 -0.0253564 140.75369011 -0.03371594 153.4326033 -0.0214572 C154.78687058 -0.02018313 156.14113788 -0.01892564 157.4954052 -0.01768494 C158.49463831 -0.01675928 158.49463831 -0.01675928 159.51405795 -0.01581493 C164.18738161 -0.01237473 168.86062119 -0.01835914 173.53393745 -0.02760315 C179.83372005 -0.03919524 186.13318189 -0.03107419 192.43292999 -0.00802612 C194.73868974 -0.00275725 197.04447669 -0.00422141 199.35022545 -0.01307678 C216.54628761 -0.07300849 229.87279076 0.94015247 243.15795898 13.01757812 C243.90045898 13.84257812 244.64295898 14.66757813 245.40795898 15.51757812 C246.64545898 16.84789062 246.64545898 16.84789062 247.90795898 18.20507812 C256.29522167 28.47087599 257.70564419 39.33536099 257.68643188 52.11521912 C257.69143835 53.50719672 257.69731518 54.89917142 257.70398462 56.29114205 C257.71975617 60.10627039 257.72321373 63.92132502 257.72463322 67.73648202 C257.72833224 71.85434646 257.74349023 75.9721707 257.75724792 80.0900116 C257.7795088 87.2211763 257.79452914 94.35232668 257.80461502 101.4835186 C257.81920796 111.79398721 257.84474653 122.10440592 257.87294631 132.41484524 C257.91840311 149.14333087 257.95502252 165.87182369 257.98608398 182.6003418 C258.01627407 198.84937807 258.05062646 215.09839677 258.09057617 231.34741211 C258.09426849 232.85009928 258.09426849 232.85009928 258.09803541 234.38314378 C258.1104101 239.40889745 258.12286662 244.43465091 258.13536382 249.46040428 C258.23891497 291.14610443 258.32812373 332.83182624 258.40795898 374.51757812 C258.80816757 373.80051193 259.20837616 373.08344574 259.62071228 372.34465027 C261.1259181 369.64888079 262.63204848 366.95363049 264.13877869 364.25871277 C265.10335071 362.53285143 266.06688386 360.8064096 267.03039551 359.07995605 C271.30324385 351.43960661 275.57425622 343.82184008 280.40795898 336.51757812 C280.8165918 335.89367187 281.22522461 335.26976562 281.64624023 334.62695312 C286.69941813 327.75046361 296.14035051 323.10045886 304.40795898 321.51757812 C315.35149536 320.375276 325.30124998 322.20402154 334.28295898 328.76757812 C341.47612624 334.89412745 347.5001415 342.8186625 348.63549805 352.44726562 C348.79601493 354.619796 348.87184645 356.7770111 348.90795898 358.95507812 C348.92648926 359.6343335 348.94501953 360.31358887 348.96411133 361.01342773 C348.83303902 371.8705837 343.25781774 381.04704332 337.78295898 390.08007812 C336.53248984 392.17667898 335.28380843 394.27434706 334.03686523 396.37304688 C333.42343262 397.40349121 332.81 398.43393555 332.17797852 399.49560547 C329.16168134 404.64536084 326.31454262 409.88904001 323.5168457 415.16040039 C321.71886918 418.47862677 320.6035212 420.38720332 317.40795898 422.51757812 C316.31483398 422.49695313 315.22170898 422.47632813 314.09545898 422.45507812 C310.28604855 423.13905924 310.28604855 423.13905924 308.61889648 426.02539062 C307.11138756 428.81892611 305.70981582 431.62297336 304.40795898 434.51757812 C304.92358398 435.03320312 305.43920898 435.54882812 305.97045898 436.08007812 C307.57149672 438.79488124 307.72354091 440.32733218 307.11206055 443.40185547 C305.51650771 448.19625938 302.81474624 452.48211203 300.28295898 456.83007812 C299.66275879 457.91224609 299.04255859 458.99441406 298.40356445 460.109375 C297.08710093 462.40386768 295.76665258 464.69561955 294.44116211 466.98486328 C292.74109228 469.92816273 291.07132557 472.887346 289.41293335 475.85429382 C288.42985917 477.61182814 287.44160654 479.36633951 286.45141602 481.11987305 C285.20588886 483.32577804 283.96688707 485.53538495 282.7355957 487.74926758 C277.91391209 496.20228584 272.62200851 504.56146102 263.65795898 509.01757812 C262.75561523 509.48164063 261.85327148 509.94570313 260.92358398 510.42382812 C252.40869477 514.12595387 239.5689955 514.17989257 230.84545898 510.95507812 C228.54858398 509.80664062 228.54858398 509.80664062 226.40795898 508.51757812 C225.70155273 508.1128125 224.99514648 507.70804687 224.26733398 507.29101562 C216.57246307 502.11496936 211.53627084 494.12917212 206.10717773 486.77490234 C202.86833928 482.47227299 199.4416937 478.31710916 196.01416016 474.1640625 C192.40795898 469.73206513 192.40795898 469.73206513 192.40795898 467.51757812 C191.76638544 467.51871729 191.1248119 467.51985645 190.46379673 467.52103013 C152.4268839 467.58818518 114.38997984 467.63964833 76.35301984 467.67077411 C71.78441873 467.67452617 67.21581773 467.67840914 62.6472168 467.68237305 C61.7377024 467.68315998 60.82818799 467.68394691 59.89111255 467.68475769 C45.17033551 467.69780652 30.44959367 467.72145749 15.7288375 467.74903651 C0.62052562 467.77710525 -14.48776785 467.79375749 -29.59610474 467.79984361 C-38.91644181 467.803957 -48.23667938 467.81694221 -57.55698581 467.84132753 C-63.95093942 467.85720283 -70.34484169 467.86197442 -76.73881356 467.85808226 C-80.42610581 467.8561635 -84.11322436 467.85907529 -87.80048561 467.87519455 C-91.80394205 467.89256768 -95.80703065 467.88652493 -99.81051636 467.87834167 C-100.96812717 467.8870802 -102.12573799 467.89581872 -103.31842792 467.90482205 C-116.70161799 467.83096422 -128.59153198 463.58664375 -138.40454102 454.26757812 C-148.70824543 443.263443 -152.05870135 431.85152519 -151.97972107 417.02008057 C-151.98510661 415.79634853 -151.99049214 414.5726165 -151.99604088 413.31180167 C-152.0078134 409.94077863 -152.00627719 406.57025416 -151.99887407 403.19925165 C-151.99412383 399.55356754 -152.00666871 395.90793529 -152.01689148 392.26226807 C-152.0340498 385.12944565 -152.03492551 377.99671144 -152.02967858 370.86387375 C-152.02562937 365.06235442 -152.02708934 359.26086106 -152.03242683 353.45934296 C-152.03317526 352.6321316 -152.03392368 351.80492025 -152.03469478 350.95264189 C-152.03622634 349.27187746 -152.03776469 347.59111304 -152.03930975 345.91034862 C-152.05302457 330.16285628 -152.04760472 314.41541367 -152.03612453 298.66792247 C-152.02619775 284.28347871 -152.03912504 269.89916369 -152.06305873 255.51473978 C-152.0874843 240.7224799 -152.09704883 225.93027988 -152.090406 211.13800025 C-152.08692087 202.84226981 -152.08909878 194.54663828 -152.10665703 186.25092316 C-152.12142252 179.1874009 -152.12195818 172.12404717 -152.10458612 165.06052807 C-152.09610846 161.46174512 -152.0938463 157.86326266 -152.10923767 154.26449585 C-152.24328525 120.47716053 -142.49331157 105.37876698 -119.25115967 81.93515015 C-117.50584112 80.17834534 -115.76008233 78.42197781 -114.01391602 76.66601562 C-113.12269295 75.76946888 -112.23146988 74.87292213 -111.31324005 73.94920731 C-107.56441589 70.1792334 -103.81458757 66.41027268 -100.06084824 62.6451931 C-94.729914 57.29802896 -89.4076696 51.94253887 -84.09715152 46.57509553 C-79.87766297 42.31196103 -75.6442954 38.06286913 -71.40610504 33.81831741 C-69.62064821 32.0261848 -67.83941813 30.22982998 -66.06270599 28.42902756 C-46.81534986 8.93553068 -46.81534986 8.93553068 -36.59204102 4.51757812 C-35.78534753 4.16832905 -34.97865404 3.81907997 -34.1475153 3.45924759 C-23.04511396 -0.67075474 -11.68414065 -0.0449168 0 0 Z " fill="#F2F9FD" transform="translate(157.592041015625,-0.517578125)"/>
<path d="M0 0 C2.37650988 -0.00542745 4.7530164 -0.01255359 7.1295166 -0.02124023 C13.55298605 -0.03940122 19.97619715 -0.03243607 26.39967084 -0.01972389 C30.41789993 -0.01258698 34.43609641 -0.01396345 38.45432854 -0.01768494 C39.12351527 -0.01829787 39.79270201 -0.0189108 40.48216714 -0.01954231 C41.84202943 -0.02082134 43.20189172 -0.02211819 44.56175398 -0.02343267 C57.28143325 -0.03481 70.00099677 -0.02176921 82.72065704 -0.00023121 C93.6124946 0.01764133 104.5041616 0.01452892 115.39599609 -0.00390625 C128.07489367 -0.0253564 140.75369011 -0.03371594 153.4326033 -0.0214572 C154.78687058 -0.02018313 156.14113788 -0.01892564 157.4954052 -0.01768494 C158.49463831 -0.01675928 158.49463831 -0.01675928 159.51405795 -0.01581493 C164.18738161 -0.01237473 168.86062119 -0.01835914 173.53393745 -0.02760315 C179.83372005 -0.03919524 186.13318189 -0.03107419 192.43292999 -0.00802612 C194.73868974 -0.00275725 197.04447669 -0.00422141 199.35022545 -0.01307678 C216.54628761 -0.07300849 229.87279076 0.94015247 243.15795898 13.01757812 C243.90045898 13.84257812 244.64295898 14.66757813 245.40795898 15.51757812 C246.64545898 16.84789062 246.64545898 16.84789062 247.90795898 18.20507812 C256.29522167 28.47087599 257.70564419 39.33536099 257.68643188 52.11521912 C257.69143835 53.50719672 257.69731518 54.89917142 257.70398462 56.29114205 C257.71975617 60.10627039 257.72321373 63.92132502 257.72463322 67.73648202 C257.72833224 71.85434646 257.74349023 75.9721707 257.75724792 80.0900116 C257.7795088 87.2211763 257.79452914 94.35232668 257.80461502 101.4835186 C257.81920796 111.79398721 257.84474653 122.10440592 257.87294631 132.41484524 C257.91840311 149.14333087 257.95502252 165.87182369 257.98608398 182.6003418 C258.01627407 198.84937807 258.05062646 215.09839677 258.09057617 231.34741211 C258.09426849 232.85009928 258.09426849 232.85009928 258.09803541 234.38314378 C258.1104101 239.40889745 258.12286662 244.43465091 258.13536382 249.46040428 C258.23891497 291.14610443 258.32812373 332.83182624 258.40795898 374.51757812 C258.80816757 373.80051193 259.20837616 373.08344574 259.62071228 372.34465027 C261.1259181 369.64888079 262.63204848 366.95363049 264.13877869 364.25871277 C265.10335071 362.53285143 266.06688386 360.8064096 267.03039551 359.07995605 C271.30324385 351.43960661 275.57425622 343.82184008 280.40795898 336.51757812 C280.8165918 335.89367187 281.22522461 335.26976562 281.64624023 334.62695312 C286.69941813 327.75046361 296.14035051 323.10045886 304.40795898 321.51757812 C315.35149536 320.375276 325.30124998 322.20402154 334.28295898 328.76757812 C341.47612624 334.89412745 347.5001415 342.8186625 348.63549805 352.44726562 C348.79601493 354.619796 348.87184645 356.7770111 348.90795898 358.95507812 C348.92648926 359.6343335 348.94501953 360.31358887 348.96411133 361.01342773 C348.83303902 371.8705837 343.25781774 381.04704332 337.78295898 390.08007812 C336.53248984 392.17667898 335.28380843 394.27434706 334.03686523 396.37304688 C333.42343262 397.40349121 332.81 398.43393555 332.17797852 399.49560547 C329.16168134 404.64536084 326.31454262 409.88904001 323.5168457 415.16040039 C321.71886918 418.47862677 320.6035212 420.38720332 317.40795898 422.51757812 C316.31483398 422.49695313 315.22170898 422.47632813 314.09545898 422.45507812 C310.28604855 423.13905924 310.28604855 423.13905924 308.61889648 426.02539062 C307.11138756 428.81892611 305.70981582 431.62297336 304.40795898 434.51757812 C304.92358398 435.03320312 305.43920898 435.54882812 305.97045898 436.08007812 C307.57149672 438.79488124 307.72354091 440.32733218 307.11206055 443.40185547 C305.51650771 448.19625938 302.81474624 452.48211203 300.28295898 456.83007812 C299.66275879 457.91224609 299.04255859 458.99441406 298.40356445 460.109375 C297.08710093 462.40386768 295.76665258 464.69561955 294.44116211 466.98486328 C292.74109228 469.92816273 291.07132557 472.887346 289.41293335 475.85429382 C288.42985917 477.61182814 287.44160654 479.36633951 286.45141602 481.11987305 C285.20588886 483.32577804 283.96688707 485.53538495 282.7355957 487.74926758 C277.91391209 496.20228584 272.62200851 504.56146102 263.65795898 509.01757812 C262.75561523 509.48164063 261.85327148 509.94570313 260.92358398 510.42382812 C252.40869477 514.12595387 239.5689955 514.17989257 230.84545898 510.95507812 C228.54858398 509.80664062 228.54858398 509.80664062 226.40795898 508.51757812 C225.70155273 508.1128125 224.99514648 507.70804687 224.26733398 507.29101562 C216.57246307 502.11496936 211.53627084 494.12917212 206.10717773 486.77490234 C202.86833928 482.47227299 199.4416937 478.31710916 196.01416016 474.1640625 C192.40795898 469.73206513 192.40795898 469.73206513 192.40795898 467.51757812 C191.76638544 467.51871729 191.1248119 467.51985645 190.46379673 467.52103013 C152.4268839 467.58818518 114.38997984 467.63964833 76.35301984 467.67077411 C71.78441873 467.67452617 67.21581773 467.67840914 62.6472168 467.68237305 C61.7377024 467.68315998 60.82818799 467.68394691 59.89111255 467.68475769 C45.17033551 467.69780652 30.44959367 467.72145749 15.7288375 467.74903651 C0.62052562 467.77710525 -14.48776785 467.79375749 -29.59610474 467.79984361 C-38.91644181 467.803957 -48.23667938 467.81694221 -57.55698581 467.84132753 C-63.95093942 467.85720283 -70.34484169 467.86197442 -76.73881356 467.85808226 C-80.42610581 467.8561635 -84.11322436 467.85907529 -87.80048561 467.87519455 C-91.80394205 467.89256768 -95.80703065 467.88652493 -99.81051636 467.87834167 C-100.96812717 467.8870802 -102.12573799 467.89581872 -103.31842792 467.90482205 C-116.70161799 467.83096422 -128.59153198 463.58664375 -138.40454102 454.26757812 C-148.70824543 443.263443 -152.05870135 431.85152519 -151.97972107 417.02008057 C-151.98510661 415.79634853 -151.99049214 414.5726165 -151.99604088 413.31180167 C-152.0078134 409.94077863 -152.00627719 406.57025416 -151.99887407 403.19925165 C-151.99412383 399.55356754 -152.00666871 395.90793529 -152.01689148 392.26226807 C-152.0340498 385.12944565 -152.03492551 377.99671144 -152.02967858 370.86387375 C-152.02562937 365.06235442 -152.02708934 359.26086106 -152.03242683 353.45934296 C-152.03317526 352.6321316 -152.03392368 351.80492025 -152.03469478 350.95264189 C-152.03622634 349.27187746 -152.03776469 347.59111304 -152.03930975 345.91034862 C-152.05302457 330.16285628 -152.04760472 314.41541367 -152.03612453 298.66792247 C-152.02619775 284.28347871 -152.03912504 269.89916369 -152.06305873 255.51473978 C-152.0874843 240.7224799 -152.09704883 225.93027988 -152.090406 211.13800025 C-152.08692087 202.84226981 -152.08909878 194.54663828 -152.10665703 186.25092316 C-152.12142252 179.1874009 -152.12195818 172.12404717 -152.10458612 165.06052807 C-152.09610846 161.46174512 -152.0938463 157.86326266 -152.10923767 154.26449585 C-152.24328525 120.47716053 -142.49331157 105.37876698 -119.25115967 81.93515015 C-117.50584112 80.17834534 -115.76008233 78.42197781 -114.01391602 76.66601562 C-113.12269295 75.76946888 -112.23146988 74.87292213 -111.31324005 73.94920731 C-107.56441589 70.1792334 -103.81458757 66.41027268 -100.06084824 62.6451931 C-94.729914 57.29802896 -89.4076696 51.94253887 -84.09715152 46.57509553 C-79.87766297 42.31196103 -75.6442954 38.06286913 -71.40610504 33.81831741 C-69.62064821 32.0261848 -67.83941813 30.22982998 -66.06270599 28.42902756 C-46.81534986 8.93553068 -46.81534986 8.93553068 -36.59204102 4.51757812 C-35.78534753 4.16832905 -34.97865404 3.81907997 -34.1475153 3.45924759 C-23.04511396 -0.67075474 -11.68414065 -0.0449168 0 0 Z M-20.96704102 22.89257812 C-21.42852539 23.4365625 -21.89000977 23.98054688 -22.36547852 24.54101562 C-26.20270506 30.72457178 -25.90147122 37.16452364 -25.93579102 44.19726562 C-25.95041382 45.32399689 -25.96503662 46.45072815 -25.98010254 47.61160278 C-26.02649393 51.20522541 -26.06074886 54.79879422 -26.09204102 58.39257812 C-26.13332001 63.11934084 -26.1870536 67.845724 -26.24829102 72.57226562 C-26.25356812 73.64958954 -26.25884521 74.72691345 -26.26428223 75.83688354 C-26.45709781 90.51417348 -31.01329969 102.61511071 -41.24829102 113.23632812 C-51.92231039 123.10476113 -65.69034684 125.96407931 -79.79516602 125.92382812 C-81.47820831 125.9400824 -81.47820831 125.9400824 -83.19525146 125.95666504 C-87.9472671 126.00216262 -92.69922166 126.01402227 -97.45141602 126.02880859 C-100.94119493 126.04452403 -104.43052311 126.07751095 -107.92016602 126.11132812 C-109.52036591 126.10679626 -109.52036591 126.10679626 -111.15289307 126.10217285 C-120.11353391 126.19231978 -126.05254317 127.97808028 -132.59204102 134.51757812 C-136.95809666 140.75043877 -137.16175143 146.73913406 -137.09997559 154.14936829 C-137.10621555 155.30408778 -137.11245551 156.45880727 -137.11888456 157.64851826 C-137.13203394 160.83606212 -137.12736281 164.02299163 -137.11493969 167.21051967 C-137.10586337 170.65509851 -137.11987187 174.09959635 -137.13085938 177.54415894 C-137.14862348 184.2859187 -137.14481359 191.02750008 -137.13320881 197.76926676 C-137.12416418 203.25145278 -137.12295494 208.73358891 -137.12730408 214.21578026 C-137.12791701 214.99694762 -137.12852994 215.77811498 -137.12916145 216.58295408 C-137.1304404 218.17006977 -137.13173725 219.75718546 -137.13305181 221.34430113 C-137.14445201 236.21947776 -137.13135389 251.09455571 -137.10985035 265.96971615 C-137.09199039 278.71871115 -137.09507543 291.46756039 -137.11352539 304.21655273 C-137.13496019 319.0349399 -137.14334236 333.85324055 -137.13107634 348.67164105 C-137.1298022 350.25373692 -137.12854472 351.8358328 -137.12730408 353.4179287 C-137.12668698 354.19626417 -137.12606987 354.97459964 -137.12543407 355.77652103 C-137.1219882 361.24724304 -137.12779323 366.71790995 -137.13722229 372.18862343 C-137.14847317 378.86289191 -137.1453381 385.53697236 -137.12409931 392.21121947 C-137.1136283 395.61323823 -137.11157256 399.0146866 -137.12269592 402.41674232 C-137.13366506 406.11308352 -137.11986923 409.80855113 -137.09997559 413.50483704 C-137.10889847 414.56847719 -137.11782136 415.63211734 -137.12701464 416.72798902 C-137.01172802 427.81090986 -133.79858731 436.34953248 -126.10375977 444.34960938 C-119.85794172 449.74063428 -112.79266125 452.64417597 -104.57081223 452.64062595 C-103.55266331 452.642617 -102.5345144 452.64460805 -101.4855125 452.64665943 C-100.36878886 452.64374659 -99.25206522 452.64083375 -98.10150146 452.63783264 C-96.32002964 452.63911428 -96.32002964 452.63911428 -94.50256848 452.64042181 C-91.20512738 452.6417855 -87.90774546 452.63865501 -84.61031151 452.63364375 C-81.05479305 452.62932945 -77.49927645 452.63078637 -73.9437561 452.63154602 C-67.78326737 452.63207063 -61.62278923 452.62893037 -55.46230316 452.62330818 C-46.55525049 452.61518471 -37.64820293 452.61257709 -28.74114695 452.61132019 C-14.2904004 452.60913101 0.1603405 452.60247453 14.61108398 452.59301758 C28.64949516 452.58384001 42.68790479 452.57676086 56.72631836 452.57250977 C58.02408509 452.57211568 58.02408509 452.57211568 59.34806934 452.57171363 C63.68836746 452.57040861 68.02866558 452.5691449 72.36896372 452.56790173 C108.38196612 452.55753328 144.39496212 452.53991858 180.40795898 452.51757812 C179.46393006 451.08438955 178.51759848 449.65271756 177.5703125 448.22167969 C177.04357437 447.42425354 176.51683624 446.62682739 175.97413635 445.80523682 C173.92148322 442.80700056 171.65948717 440.06934918 169.34545898 437.26757812 C161.7756227 427.68025225 158.64988459 417.72382448 158.40795898 405.51757812 C157.73249023 405.48019531 157.05702148 405.4428125 156.36108398 405.40429688 C155.02303711 405.30568359 155.02303711 405.30568359 153.65795898 405.20507812 C152.77624023 405.14707031 151.89452148 405.0890625 150.98608398 405.02929688 C148.01745759 404.44006951 146.55625507 403.63624254 144.40795898 401.51757812 C143.65795387 395.5175372 143.65795387 395.5175372 145.6862793 392.81323242 C148.69738345 390.54721856 152.52948928 391.2937898 156.15795898 391.33007812 C162.34261114 391.30840357 162.34261114 391.30840357 167.83374023 388.85742188 C169.49544873 386.79488813 169.49544873 386.79488813 170.90405273 384.58789062 C173.52679727 380.97735919 177.42286013 379.33410728 181.40795898 377.51757812 C182.13885742 377.15535156 182.86975586 376.793125 183.62280273 376.41992188 C193.00116703 373.38148968 204.26633743 374.32717714 213.09545898 378.45507812 C219.1419773 381.96528169 223.25903467 385.95235434 227.40795898 391.51757812 C228.28324342 392.63918394 229.1610091 393.75885626 230.04077148 394.87695312 C233.27733369 399.01383473 236.49289742 403.14498578 239.40795898 407.51757812 C240.39795898 407.18757813 241.38795898 406.85757812 242.40795898 406.51757812 C242.49952014 360.18897403 242.57000058 313.86037951 242.6122203 267.53170276 C242.61722311 262.06182513 242.6224004 256.59194768 242.62768555 251.12207031 C242.62873479 250.03311903 242.62978403 248.94416774 242.63086507 247.82221793 C242.64826894 230.19149496 242.67980655 212.56082418 242.71657017 194.93013217 C242.75398005 176.8385886 242.77619495 158.74707237 242.78431296 140.65549171 C242.78980062 129.49256579 242.80713124 118.32978739 242.83962485 107.16690688 C242.86077329 99.51146091 242.86715826 91.85609116 242.86196449 84.2006181 C242.85940324 79.78419696 242.86332167 75.36803354 242.88478088 70.95165825 C242.90430097 66.90474021 242.90519384 62.85825227 242.89155456 58.81131409 C242.88986981 57.35084105 242.89489786 55.89034076 242.90749171 54.42992105 C243.01162267 41.60404912 240.78897809 33.08741445 231.84936523 23.72070312 C223.99675847 16.63451078 216.53611514 15.36820506 206.31864929 15.3704071 C205.40122241 15.36673042 204.48379553 15.36305373 203.53856784 15.35926563 C200.46336897 15.34824949 197.38820391 15.34438849 194.31298828 15.34057617 C192.10850925 15.33431009 189.90403127 15.32766316 187.69955444 15.32066345 C180.46043633 15.29964249 173.22131805 15.28926469 165.98217773 15.27929688 C163.48949485 15.27524895 160.99681207 15.27113202 158.50412941 15.26694679 C148.13699898 15.2500829 137.76987011 15.23544697 127.40272808 15.22819805 C124.71509996 15.22628829 122.02747184 15.22436793 119.33984375 15.22241211 C118.67188142 15.22192837 118.00391908 15.22144463 117.31571547 15.22094623 C106.49318641 15.21264437 95.67076782 15.18730176 84.84828701 15.15483143 C73.72876959 15.12174261 62.60929815 15.10408044 51.48973018 15.10055381 C45.24976488 15.09820227 39.00997442 15.0892275 32.77005577 15.06409264 C26.90051126 15.0408307 21.03125695 15.0365713 15.16167831 15.04685402 C13.00903547 15.0473499 10.85637842 15.04101417 8.70377922 15.02729797 C5.7615783 15.00960111 2.82042142 15.01667467 -0.1217804 15.02983093 C-0.97053043 15.01886169 -1.81928047 15.00789244 -2.6937502 14.99659079 C-9.80217937 15.0731612 -16.34382998 17.20041657 -20.96704102 22.89257812 Z " fill="#010101" transform="translate(157.592041015625,-0.517578125)"/>
<path d="M0 0 C5.50739177 3.29284055 9.34244024 8.35654382 11.5 14.375 C13.27222276 24.08157789 9.20245215 31.25289698 4.5 39.375 C3.96375 40.30731445 3.4275 41.23962891 2.875 42.20019531 C-0.12117611 47.39586693 -3.14454067 52.57449219 -6.1953125 57.73828125 C-8.27869613 61.28273521 -10.3607781 64.82746474 -12.3984375 68.3984375 C-12.79466309 69.0898584 -13.19088867 69.7812793 -13.59912109 70.49365234 C-14.93608255 73.28569163 -15.06215514 75.35341613 -14.5 78.375 C-13.96375 79.055625 -13.4275 79.73625 -12.875 80.4375 C-12.42125 81.076875 -11.9675 81.71625 -11.5 82.375 C-12 84.625 -12 84.625 -13.5 87.375 C-14.00080078 88.41333984 -14.00080078 88.41333984 -14.51171875 89.47265625 C-15.68964239 91.69153566 -16.77884445 93.54120338 -18.5 95.375 C-22.0625 95.625 -22.0625 95.625 -25.5 95.375 C-28.64541172 97.96427085 -30.5246664 100.84024898 -32.4609375 104.390625 C-33.0082251 105.38344482 -33.5555127 106.37626465 -34.11938477 107.39916992 C-34.69873779 108.46369385 -35.27809082 109.52821777 -35.875 110.625 C-37.11944135 112.87721589 -38.36558297 115.12849302 -39.61328125 117.37890625 C-40.25217285 118.53277832 -40.89106445 119.68665039 -41.54931641 120.87548828 C-44.66053481 126.47225414 -47.85222564 132.02209076 -51.0625 137.5625 C-51.91884033 139.05668457 -51.91884033 139.05668457 -52.79248047 140.58105469 C-57.68668461 149.00134667 -61.70387207 155.60720512 -71.5 158.375 C-78.26008941 159.4005244 -83.91843089 158.40805925 -89.5 154.375 C-93.47555452 150.68061135 -96.83589414 146.62296556 -100.1875 142.375 C-100.7129541 141.71346924 -101.2384082 141.05193848 -101.77978516 140.37036133 C-105.84336238 135.24081699 -109.84370354 130.06436301 -113.8203125 124.8671875 C-116.35656519 121.5552754 -118.91374468 118.25991986 -121.47558594 114.96777344 C-122.65979122 113.44596862 -123.84273205 111.92317903 -125.02441406 110.39941406 C-128.11106943 106.42318429 -131.21936866 102.46709639 -134.3671875 98.5390625 C-135.31126465 97.35123169 -135.31126465 97.35123169 -136.27441406 96.1394043 C-137.46908753 94.63723638 -138.67107049 93.14083937 -139.88183594 91.65161133 C-144.98573471 85.20557064 -149.40222201 78.20591908 -148.94140625 69.703125 C-147.68392997 63.07077225 -144.67746383 57.89729942 -139.3125 53.8125 C-132.91986853 49.49777934 -127.12027332 49.82829165 -119.5 50.375 C-111.14160621 52.05500938 -106.35429058 59.97377493 -101.5 66.375 C-100.9932373 67.04305664 -100.48647461 67.71111328 -99.96435547 68.39941406 C-97.86346723 71.17956589 -95.7683697 73.9634453 -93.69824219 76.76660156 C-92.31035668 78.64510602 -90.910435 80.51337746 -89.5 82.375 C-89.05817383 82.96128174 -88.61634766 83.54756348 -88.16113281 84.15161133 C-85.73390383 87.23985138 -84.79959754 88.29751788 -80.875 89.3125 C-77.50676992 89.56266706 -77.50676992 89.56266706 -74.5 88.375 C-73.43287028 86.09150909 -73.43287028 86.09150909 -72.5 83.375 C-71.53308685 81.51001929 -70.53557987 79.66072798 -69.515625 77.82421875 C-68.9172583 76.74551514 -68.3188916 75.66681152 -67.70239258 74.55541992 C-67.05180279 73.39099719 -66.40099982 72.22669354 -65.75 71.0625 C-65.41841888 70.46708405 -65.08683777 69.87166809 -64.74520874 69.25820923 C-59.48004394 59.80441906 -54.0771007 50.43767517 -48.57470703 41.11962891 C-45.6992577 36.22867008 -42.90250754 31.31430248 -40.23828125 26.3046875 C-39.71322998 25.31895752 -39.18817871 24.33322754 -38.6472168 23.31762695 C-37.67239569 21.473206 -36.70799654 19.62321572 -35.75708008 17.76635742 C-31.9726947 10.59865859 -27.28450116 4.27938461 -20.8125 -0.6875 C-14.09351296 -2.58910011 -6.46621351 -2.9380704 0 0 Z " fill="#B1E39E" transform="translate(479.5,338.625)"/>
<path d="M0 0 C1.68430015 -0.01041829 1.68430015 -0.01041829 3.40262657 -0.02104706 C7.17910444 -0.03939737 10.95495982 -0.02902993 14.73146057 -0.01878357 C17.43327894 -0.02364289 20.13506653 -0.0344436 22.83686829 -0.04489136 C29.42207965 -0.06655194 36.00711834 -0.06639921 42.59235363 -0.05826581 C47.94406352 -0.05196994 53.29572299 -0.05309904 58.64743233 -0.05953789 C59.40867109 -0.06043954 60.16990986 -0.0613412 60.95421647 -0.06227018 C62.50059669 -0.06412135 64.0469769 -0.06598391 65.59335709 -0.06785773 C80.1001689 -0.08444348 94.60688351 -0.07571056 109.11368949 -0.05887216 C122.3891546 -0.0441757 135.66439338 -0.05880138 148.93982934 -0.08764232 C162.56682439 -0.11702684 176.19371494 -0.1280113 189.82074028 -0.11846012 C191.36178686 -0.11743755 192.90283346 -0.11644294 194.44388008 -0.11547661 C195.20212689 -0.11500022 195.96037371 -0.11452383 196.74159769 -0.114033 C202.08687072 -0.11186755 207.43204496 -0.12167993 212.77729607 -0.13624763 C219.2915649 -0.15375341 225.80554517 -0.15367921 232.31980257 -0.13089598 C235.64420657 -0.11973682 238.96768247 -0.11932131 242.29213142 -0.13519669 C245.89462601 -0.15104201 249.4957172 -0.13625432 253.09814453 -0.11352539 C254.67722167 -0.13127898 254.67722167 -0.13127898 256.28819937 -0.14939123 C261.07278311 -0.08782824 263.35544093 -0.05658146 267.26580906 2.89376926 C269.11256409 5.5146637 269.11256409 5.5146637 269.67506409 8.0771637 C268.94223105 11.25277351 267.59854322 12.46738676 265.11256409 14.5146637 C262.73044965 15.70572092 261.27593861 15.64417386 258.61689281 15.65167809 C257.66502722 15.65675263 256.71316162 15.66182717 255.73245162 15.66705549 C254.67945901 15.66755324 253.62646641 15.668051 252.54156494 15.66856384 C250.87207872 15.67513722 250.87207872 15.67513722 249.1688655 15.6818434 C245.41401273 15.69527066 241.65918344 15.70141903 237.90431213 15.70753479 C235.22250692 15.71543257 232.54070476 15.72369592 229.85890198 15.73231506 C221.79290996 15.7568503 213.72691175 15.77146728 205.66089389 15.78437513 C203.38357096 15.78808606 201.10624864 15.79205937 198.82892632 15.7961278 C184.69363114 15.82136185 170.55833501 15.84341967 156.42302227 15.85585594 C153.14806807 15.85878574 149.87311391 15.86174739 146.59815979 15.86476135 C145.78416451 15.8655074 144.97016924 15.86625345 144.13150743 15.86702211 C130.93999931 15.87968058 117.74862582 15.91290965 104.55718067 15.95456319 C91.02067374 15.99695674 77.4842358 16.02054793 63.94766265 16.02577651 C56.34454013 16.02919343 48.74162806 16.04098153 41.13857079 16.07387924 C34.6645451 16.10184552 28.19077299 16.11289427 21.71669158 16.10168378 C18.41261603 16.09648824 15.10918449 16.10215302 11.80516243 16.12414932 C8.22449808 16.14669477 4.64518341 16.13861237 1.06451416 16.12266541 C0.01821372 16.13654749 -1.02808672 16.15042958 -2.10609323 16.16473234 C-6.85671823 16.11239941 -9.13834508 16.07281607 -13.03677654 13.16806984 C-14.88743591 10.5146637 -14.88743591 10.5146637 -15.44993591 7.4521637 C-13.8362847 -0.97468152 -7.0567938 -0.05512438 0 0 Z " fill="#020202" transform="translate(122.88743591308594,231.48533630371094)"/>
<path d="M0 0 C1.2785112 2.55702239 0.70396217 3.28540755 0 6 C-0.09320779 7.74897023 -0.13522359 9.5010018 -0.1418457 11.25244141 C-0.14888016 12.30098297 -0.15591461 13.34952454 -0.16316223 14.42984009 C-0.16940865 16.12359268 -0.16940865 16.12359268 -0.17578125 17.8515625 C-0.19898764 20.25391493 -0.2231053 22.6562587 -0.24804688 25.05859375 C-0.28308328 28.83713513 -0.31246565 32.61535929 -0.32592773 36.39404297 C-0.34148114 40.04693912 -0.38174683 43.69891267 -0.42578125 47.3515625 C-0.42387283 48.46858551 -0.42196442 49.58560852 -0.41999817 50.73648071 C-0.58234592 61.24521365 -3.58382023 70.33661424 -11 78 C-20.32008102 85.75501081 -29.64570843 87.44205879 -41.515625 87.4765625 C-42.68961853 87.49214203 -43.86361206 87.50772156 -45.07318115 87.52377319 C-48.7987812 87.57103036 -52.52419647 87.59897239 -56.25 87.625 C-59.9899553 87.66156246 -63.72980756 87.7022153 -67.46966553 87.74765015 C-69.79011988 87.77475014 -72.11064947 87.79615577 -74.43121338 87.81118774 C-75.4829071 87.82144989 -76.53460083 87.83171204 -77.61816406 87.84228516 C-78.53921936 87.84878082 -79.46027466 87.85527649 -80.40924072 87.86196899 C-83.0261606 88.00139379 -85.44716609 88.42168939 -88 89 C-83.50903918 83.61895349 -78.75790825 78.62042169 -73.79150391 73.67797852 C-72.59050049 72.47675606 -72.59050049 72.47675606 -71.36523438 71.25126648 C-68.73804239 68.62476696 -66.10733417 66.00181984 -63.4765625 63.37890625 C-61.6464591 61.55066939 -59.81657745 59.72221053 -57.98690796 57.89353943 C-53.67528872 53.5853384 -49.36145175 49.27936987 -45.04651296 44.97449392 C-40.13032954 40.06952459 -35.21701744 35.16168329 -30.30393338 30.25360978 C-20.20579313 20.16589545 -10.10408808 10.08175667 0 0 Z " fill="#E1F3FB" transform="translate(118,24)"/>
<path d="M0 0 C7.09898998 5.75955791 13.10037753 13.60780934 14.0703125 22.8828125 C14.52334494 32.79289713 12.10791703 41.27996103 5.6953125 48.9296875 C-1.19509673 56.02544005 -9.28559855 59.59486559 -19.1171875 59.9296875 C-28.65037064 60.01398042 -36.19681391 56.59373438 -43.1796875 50.0546875 C-50.1477582 42.35759724 -52.67168909 34.0906805 -52.49609375 23.8125 C-52.02250032 18.84269236 -50.52588558 14.86711132 -48.1796875 10.4921875 C-47.84066406 9.85667969 -47.50164062 9.22117188 -47.15234375 8.56640625 C-43.17935977 2.18983766 -36.6918246 -1.95436724 -29.9296875 -4.9453125 C-19.02266176 -6.58136636 -9.2681986 -6.41133452 0 0 Z " fill="#030404" transform="translate(230.1796875,152.5078125)"/>
<path d="M0 0 C0.67367601 -0.00694553 1.34735202 -0.01389106 2.04144245 -0.02104706 C4.29790871 -0.03933765 6.55332601 -0.02904797 8.80982971 -0.01878357 C10.42791023 -0.02584108 12.04598415 -0.03458539 13.66404724 -0.04489136 C18.05874199 -0.06741469 22.45307711 -0.06443875 26.84780765 -0.05556989 C30.51590649 -0.05046362 34.18393753 -0.05774965 37.85202938 -0.06504196 C46.50517792 -0.08205047 55.15815016 -0.07846575 63.81129456 -0.06175232 C72.73986849 -0.04482995 81.66795358 -0.06066484 90.59647411 -0.0929752 C98.26114981 -0.11966171 105.92567325 -0.12694966 113.59039074 -0.11846012 C118.16866183 -0.11352813 122.74663874 -0.11576104 127.32487297 -0.13624763 C131.630158 -0.1545901 135.93473932 -0.14866411 140.23998642 -0.12404823 C141.81980474 -0.11903569 143.39967654 -0.12254169 144.97945213 -0.13519669 C147.13717683 -0.15111365 149.29258031 -0.13619444 151.45019531 -0.11352539 C152.65715781 -0.11293908 153.86412031 -0.11235277 155.10765743 -0.1117487 C159.20609533 0.69534566 160.70080715 2.30761968 163.28858948 5.5146637 C163.91358948 8.0146637 163.91358948 8.0146637 163.28858948 10.5146637 C160.70080715 13.72170772 159.20609533 15.33398174 155.10765743 16.14107609 C153.90069493 16.1416624 152.69373243 16.14224871 151.45019531 16.14285278 C150.43734131 16.15349436 150.43734131 16.15349436 149.40402561 16.16435093 C147.14808444 16.18191213 144.89387067 16.16383852 142.63795471 16.14576721 C141.01810421 16.15090677 139.3982593 16.15818832 137.77842712 16.16744995 C133.38375608 16.18596632 128.98969161 16.17302472 124.5950458 16.15335965 C119.9964723 16.13697649 115.39793732 16.14578545 110.79934692 16.15087891 C103.07797044 16.15539978 95.35683622 16.1395293 87.63551331 16.11158752 C78.70637611 16.07952426 69.77767559 16.07955573 60.84850734 16.09680229 C52.2600948 16.11266012 43.67184249 16.10593937 35.08343697 16.08886528 C31.42758486 16.0819896 27.77186099 16.08303248 24.11601067 16.09041023 C19.81241008 16.0980656 15.50930716 16.08597181 11.20579147 16.05856133 C9.62556371 16.05166891 8.04528954 16.05158871 6.4650631 16.05877686 C4.30948488 16.06745309 2.15544908 16.05154984 0 16.02932739 C-1.80987821 16.02511701 -1.80987821 16.02511701 -3.65631962 16.02082157 C-7.33159647 15.41191324 -8.52161771 14.48538213 -10.71141052 11.5146637 C-11.26289635 7.65426288 -11.45147582 5.51865166 -9.09962368 2.32808018 C-5.92258234 -0.08430881 -3.96941466 0.00923418 0 0 Z " fill="#010101" transform="translate(94.71141052246094,350.48533630371094)"/>
<path d="M0 0 C0.99848665 -0.01041829 0.99848665 -0.01041829 2.01714474 -0.02104706 C4.24053871 -0.0392969 6.46286318 -0.02905939 8.68629456 -0.01878357 C10.28319597 -0.02584314 11.8800907 -0.03458832 13.47697449 -0.04489136 C17.80969739 -0.06739148 22.1420551 -0.06444418 26.47481418 -0.05556989 C30.09316266 -0.05045926 33.71144256 -0.05775319 37.32978398 -0.06504196 C45.86648781 -0.08204307 54.40301291 -0.07847316 62.93971252 -0.06175232 C71.74388984 -0.04483045 80.54757137 -0.06066581 89.35169452 -0.0929752 C96.91364727 -0.11967378 104.4754457 -0.1269464 112.03744084 -0.11846012 C116.55257327 -0.11353169 121.06740739 -0.11574184 125.58250237 -0.13624763 C129.82871108 -0.15460907 134.0742069 -0.14864091 138.32037735 -0.12404823 C139.87720064 -0.11904174 141.4340783 -0.12252604 142.99085808 -0.13519669 C156.21334262 -0.23428702 156.21334262 -0.23428702 160.21987915 2.82754517 C162.25099182 5.5146637 162.25099182 5.5146637 162.31349182 9.1396637 C160.89882745 13.63330346 160.89882745 13.63330346 158.25099182 15.5146637 C155.30053806 15.89498043 155.30053806 15.89498043 151.61514282 15.90234375 C150.93753212 15.90772929 150.25992142 15.91311483 149.56177706 15.91866356 C147.2862048 15.93299636 145.01120991 15.92582667 142.73561096 15.91871643 C141.10620657 15.92441726 139.47680617 15.93138039 137.84741211 15.93951416 C133.41765305 15.95749291 128.98809156 15.95626833 124.55830693 15.95057178 C120.86283574 15.94748662 117.16740287 15.95356487 113.47193712 15.95961052 C104.75510863 15.97366972 96.03837812 15.97208297 87.32154846 15.96070862 C78.32317524 15.94922648 69.32510002 15.96330145 60.32676607 15.99010509 C52.60609111 16.01224347 44.88550981 16.01890367 37.16480535 16.01302868 C32.5513775 16.00965336 27.93814068 16.01211212 23.32473946 16.02927971 C18.98673366 16.04471714 14.64917014 16.04082921 10.31118202 16.02197456 C8.71804134 16.01827972 7.12486813 16.02142318 5.53175735 16.03186035 C3.35859939 16.04501187 1.18691826 16.03357715 -0.98617554 16.01586914 C-2.20273299 16.01565986 -3.41929045 16.01545057 -4.67271328 16.01523495 C-8.36626032 15.41422512 -9.54981761 14.49799747 -11.74900818 11.5146637 C-12.31150818 8.0146637 -12.31150818 8.0146637 -11.74900818 4.5146637 C-7.99290922 0.62839292 -5.31508001 0.01254103 0 0 Z " fill="#060607" transform="translate(95.74900817871094,272.48533630371094)"/>
<path d="M0 0 C0.67367601 -0.00694553 1.34735202 -0.01389106 2.04144245 -0.02104706 C4.29790871 -0.03933765 6.55332601 -0.02904797 8.80982971 -0.01878357 C10.42791023 -0.02584108 12.04598415 -0.03458539 13.66404724 -0.04489136 C18.05874199 -0.06741469 22.45307711 -0.06443875 26.84780765 -0.05556989 C30.51590649 -0.05046362 34.18393753 -0.05774965 37.85202938 -0.06504196 C46.50517792 -0.08205047 55.15815016 -0.07846575 63.81129456 -0.06175232 C72.73986849 -0.04482995 81.66795358 -0.06066484 90.59647411 -0.0929752 C98.26114981 -0.11966171 105.92567325 -0.12694966 113.59039074 -0.11846012 C118.16866183 -0.11352813 122.74663874 -0.11576104 127.32487297 -0.13624763 C131.630158 -0.1545901 135.93473932 -0.14866411 140.23998642 -0.12404823 C141.81980474 -0.11903569 143.39967654 -0.12254169 144.97945213 -0.13519669 C147.13717683 -0.15111365 149.29258031 -0.13619444 151.45019531 -0.11352539 C152.65715781 -0.11293908 153.86412031 -0.11235277 155.10765743 -0.1117487 C159.21915608 0.69791767 160.74127052 2.25025808 163.28858948 5.5146637 C163.28858948 8.87946445 162.94866258 10.68239761 160.85108948 13.3271637 C157.52735894 15.8531989 155.01939708 15.649304 150.89361572 15.66856384 C150.22981567 15.6729461 149.56601561 15.67732835 148.8821004 15.6818434 C146.64739538 15.6952479 144.41272979 15.70141392 142.17799377 15.70753479 C140.57991863 15.71543442 138.98184527 15.72370328 137.3837738 15.73231506 C132.12680265 15.75854978 126.86982346 15.77384342 121.61280823 15.7881012 C119.80449226 15.79346014 117.99617635 15.79883765 116.18786049 15.80423355 C108.66714894 15.82586376 101.14643956 15.84460143 93.62570477 15.85585594 C82.8399992 15.87210145 72.05465354 15.90529206 61.26908368 15.96225679 C53.68941001 16.00092752 46.10983272 16.02048518 38.53006297 16.02577651 C34.00089343 16.02943372 29.47210761 16.04149398 24.94304466 16.07387924 C20.68217734 16.10390989 16.42192692 16.11028986 12.16097641 16.09849548 C10.59725841 16.09827433 9.0335122 16.10661398 7.4698925 16.12414932 C5.33402163 16.14679815 3.20039602 16.13856978 1.06451416 16.12266541 C-0.13029729 16.12597555 -1.32510874 16.1292857 -2.55612659 16.13269615 C-6.65198683 15.33043093 -8.14558663 13.73874797 -10.71141052 10.5146637 C-11.27391052 7.4521637 -11.27391052 7.4521637 -10.71141052 4.5146637 C-7.54716445 0.3012117 -5.13959916 0.01195643 0 0 Z " fill="#040404" transform="translate(94.71141052246094,389.48533630371094)"/>
<path d="M0 0 C1.00060334 -0.00724325 1.00060334 -0.00724325 2.0214209 -0.01463282 C4.24954112 -0.02587603 6.47650648 -0.00860744 8.70457458 0.00863647 C10.30471609 0.00648992 11.90485607 0.00261119 13.50498962 -0.00286865 C17.84588661 -0.01255654 22.18637186 0.0027337 26.52721906 0.02303743 C31.06972611 0.0406125 35.61222052 0.03708328 40.15475464 0.03631592 C47.78194565 0.0381885 55.40897743 0.05554755 63.03611755 0.08285522 C71.85609714 0.11431683 80.67590242 0.124851 89.49593407 0.12338412 C97.97966403 0.12216369 106.4633372 0.13237264 114.94705009 0.14896774 C118.55820598 0.15603118 122.16934177 0.15969392 125.78050423 0.16075516 C130.03144591 0.16276336 134.28224112 0.17496744 138.53313446 0.19508743 C140.09401744 0.20093166 141.65491728 0.20338933 143.21581078 0.20223236 C145.34471344 0.20125146 147.47320533 0.21255655 149.60205078 0.22705078 C150.79388757 0.23040247 151.98572435 0.23375416 153.21367741 0.23720741 C156.17346727 0.48902557 157.80689312 0.83056415 160.23753357 2.49447632 C162.23753357 5.49447632 162.23753357 5.49447632 162.11253357 8.99447632 C161.23753357 12.49447632 161.23753357 12.49447632 159.6027298 14.18899632 C156.44156864 15.93381251 154.1261089 15.87490076 150.51939392 15.88215637 C149.84501235 15.88754191 149.17063077 15.89292745 148.47581339 15.89847618 C146.21716444 15.91277834 143.95909971 15.90564685 141.70042419 15.89852905 C140.08072437 15.90423142 138.46102856 15.91119516 136.84133911 15.91932678 C132.44262952 15.93728694 128.0441191 15.93608462 123.64538383 15.9303844 C119.97471567 15.92729705 116.30408602 15.93337984 112.63342333 15.93942314 C103.97554867 15.95347578 95.31777267 15.95190059 86.65989685 15.94052124 C77.72341809 15.92903538 68.78723927 15.94312181 59.85080004 15.96991771 C52.18105976 15.99205565 44.51141377 15.99871652 36.84164381 15.9928413 C32.25952949 15.98946641 27.67760752 15.99192216 23.09552002 16.00909233 C18.78786859 16.02452941 14.48066257 16.02064225 10.17302895 16.00178719 C8.59117533 15.99809247 7.00928894 16.00123543 5.42746544 16.01167297 C3.2696841 16.02482518 1.11338995 16.01338934 -1.04432678 15.99568176 C-2.25221107 15.99547248 -3.46009537 15.9952632 -4.70458221 15.99504757 C-8.38536581 15.39250859 -9.5680537 14.46618076 -11.76246643 11.49447632 C-12.32496643 7.99447632 -12.32496643 7.99447632 -11.76246643 4.49447632 C-8.00063777 0.59848072 -5.32491466 -0.00486631 0 0 Z " fill="#030303" transform="translate(95.76246643066406,311.5055236816406)"/>
<path d="M0 0 C5.07767683 0.8908205 7.15616567 3.72293002 10.09936523 7.70361328 C11.78382844 10.1166646 13.42924753 12.55201602 15.0625 15 C16.17642556 16.65408899 17.29099899 18.30774189 18.40625 19.9609375 C18.93605469 20.74823242 19.46585938 21.53552734 20.01171875 22.34667969 C22.14326239 25.47822333 24.34433514 28.55433147 26.5625 31.625 C26.5718457 30.86356689 26.58119141 30.10213379 26.59082031 29.31762695 C26.64460937 25.8569338 26.72824184 22.39757982 26.8125 18.9375 C26.82667969 17.73931641 26.84085938 16.54113281 26.85546875 15.30664062 C26.88769531 14.14970703 26.91992188 12.99277344 26.953125 11.80078125 C26.97407227 10.73770752 26.99501953 9.67463379 27.01660156 8.5793457 C27.69220063 4.92307366 28.93114827 3.21834856 31.5625 0.625 C35.0625 0.0625 35.0625 0.0625 38.5625 0.625 C40.92747439 2.49208505 42.22280715 3.94561431 43.5625 6.625 C43.67315314 8.29335563 43.72165111 9.96601362 43.73950195 11.63793945 C43.75875481 13.20515495 43.75875481 13.20515495 43.77839661 14.80403137 C43.78578354 15.93733383 43.79317047 17.07063629 43.80078125 18.23828125 C43.808853 19.39998337 43.81692474 20.56168549 43.82524109 21.7585907 C43.83909026 24.2207998 43.84980867 26.68302816 43.85766602 29.14526367 C43.87488191 32.9116654 43.91876257 36.67719032 43.96289062 40.44335938 C43.97301697 42.83332687 43.98153325 45.22330183 43.98828125 47.61328125 C44.00578934 48.74051102 44.02329742 49.86774078 44.04133606 51.02912903 C44.01971264 58.82141228 44.01971264 58.82141228 41.75073242 62.80932617 C38.66233558 65.37190648 36.54787316 65.69491883 32.5625 65.625 C28.7245127 63.04832308 26.39629811 60.25275209 23.9375 56.375 C23.26460937 55.3334375 22.59171875 54.291875 21.8984375 53.21875 C21.53202148 52.65027344 21.16560547 52.08179688 20.78808594 51.49609375 C18.44156958 47.91368312 15.99605314 44.39859033 13.5625 40.875 C13.06927246 40.15924805 12.57604492 39.44349609 12.06787109 38.70605469 C10.9002343 37.01180421 9.73149032 35.31831686 8.5625 33.625 C8.5531543 34.45225586 8.54380859 35.27951172 8.53417969 36.13183594 C8.48049681 39.88016415 8.3968429 43.62724162 8.3125 47.375 C8.29123047 49.32792969 8.29123047 49.32792969 8.26953125 51.3203125 C8.23730469 52.57070312 8.20507812 53.82109375 8.171875 55.109375 C8.15092773 56.26147461 8.12998047 57.41357422 8.10839844 58.60058594 C7.45221887 62.2359851 6.49503971 63.43577309 3.5625 65.625 C0.0625 66.1875 0.0625 66.1875 -3.4375 65.625 C-6.17547737 63.415533 -7.29926498 61.5725597 -7.80883789 58.07958984 C-7.9688182 54.80680393 -7.99159059 51.55790939 -7.96875 48.28125 C-7.9725769 47.07940063 -7.97640381 45.87755127 -7.98034668 44.63928223 C-7.98306602 42.10082155 -7.97570346 39.56233286 -7.95898438 37.02392578 C-7.93757721 33.13901276 -7.9587876 29.25594926 -7.984375 25.37109375 C-7.98173173 22.90364175 -7.97660678 20.4361909 -7.96875 17.96875 C-7.97684692 16.80718384 -7.98494385 15.64561768 -7.99328613 14.44885254 C-7.90027311 6.44765252 -7.90027311 6.44765252 -5.61914062 2.39257812 C-3.4375 0.625 -3.4375 0.625 0 0 Z " fill="#060707" transform="translate(78.4375,146.375)"/>
<path d="M0 0 C3.5 0.8125 3.5 0.8125 5.4375 2.0625 C6.85440053 4.39621852 6.71718696 6.13386078 6.5 8.8125 C7.221875 8.915625 7.94375 9.01875 8.6875 9.125 C11.77746686 9.88032523 13.89558686 11.00387976 16.5 12.8125 C18.09702542 16.00655084 18.00343003 19.34521429 17.5 22.8125 C15.875 24.8125 15.875 24.8125 13.5 25.8125 C9.39718519 26.23115457 7.98868651 26.13829101 4.5 23.8125 C2.21351152 23.57142674 2.21351152 23.57142674 -0.1875 23.6875 C-1.39986328 23.71457031 -1.39986328 23.71457031 -2.63671875 23.7421875 C-3.25160156 23.76539062 -3.86648438 23.78859375 -4.5 23.8125 C-5.16 25.7925 -5.82 27.7725 -6.5 29.8125 C-5.81808594 30.08449219 -5.13617188 30.35648438 -4.43359375 30.63671875 C-3.46550781 31.02472656 -2.49742187 31.41273437 -1.5 31.8125 C-0.39785156 32.25207031 0.70429688 32.69164062 1.83984375 33.14453125 C17.86954755 39.74090231 17.86954755 39.74090231 21.80078125 48.58203125 C23.74919778 54.79737113 23.10631924 60.17695823 20.4375 66.0625 C17.3977542 71.56175523 13.53709539 75.80013487 7.5 77.8125 C6.82215008 80.14260909 6.15583207 82.47609824 5.5 84.8125 C1.76744552 87.30086965 -0.08440935 87.35476552 -4.5 86.8125 C-6.9375 84.5 -6.9375 84.5 -8.5 81.8125 C-8.5 80.8225 -8.5 79.8325 -8.5 78.8125 C-9.09167969 78.64234375 -9.68335938 78.4721875 -10.29296875 78.296875 C-19.15088462 75.5802548 -19.15088462 75.5802548 -22.5 71.8125 C-23.625 68.375 -23.625 68.375 -23.5 64.8125 C-21.5 61.8125 -21.5 61.8125 -18.5 59.8125 C-15.07842215 59.87252768 -12.6173247 60.20451017 -9.59765625 61.84765625 C-5.73674343 63.62353235 -1.65040329 63.35715425 2.5 62.8125 C5.27564845 61.45487846 5.27564845 61.45487846 6.5 58.8125 C6.83417929 55.1449787 6.83417929 55.1449787 6.5 51.8125 C5.2625 51.44125 4.025 51.07 2.75 50.6875 C-7.18348504 47.33966406 -15.51719108 43.82983 -20.8125 34.5 C-22.47229296 28.01171841 -22.06611921 22.48303829 -18.78125 16.60546875 C-16.33466528 13.18174196 -13.27577218 10.70038609 -9.5 8.8125 C-9.025625 7.678125 -8.55125 6.54375 -8.0625 5.375 C-6.06592141 0.82280081 -5.0211316 -0.26898919 0 0 Z " fill="#040404" transform="translate(333.5,35.1875)"/>
<path d="M0 0 C0.74330566 0.00281982 1.48661133 0.00563965 2.25244141 0.00854492 C9.41104799 0.21808411 14.91037225 2.3210599 20.4140625 6.953125 C21.6875 8.5 21.6875 8.5 22.1875 11.9375 C21.6875 15.5 21.6875 15.5 19.625 18 C15.79779817 19.95431583 13.80183562 19.54728543 9.6875 18.5 C9.07648438 18.16097656 8.46546875 17.82195312 7.8359375 17.47265625 C3.40054104 15.46463131 -1.57132248 15.89804422 -6.3125 16.5 C-10.42396419 18.17477475 -12.68522206 20.62990479 -15.25 24.1875 C-17.18358648 30.21574021 -17.29137447 36.00354864 -14.75 41.875 C-12.42253033 45.88116731 -9.76670892 48.15867572 -5.3125 49.5 C-0.65339277 50.13334739 3.25147967 50.1555745 7.5625 48.1875 C9.69162769 46.54275021 9.69162769 46.54275021 11.5625 44.75 C13.6875 43.5 13.6875 43.5 17.25 43.5625 C20.6875 44.5 20.6875 44.5 22.6875 46.125 C24.23914303 49.81015219 23.91488072 51.68865988 22.6875 55.5 C17.69180768 61.39080427 11.91968208 65.11742987 4.23046875 65.8125 C-3.52265218 66.0598578 -9.69843748 65.69713594 -16.3125 61.5 C-17.37404297 60.82904297 -17.37404297 60.82904297 -18.45703125 60.14453125 C-25.91881779 54.98080884 -30.56363698 48.47478544 -32.3125 39.5 C-33.2930571 28.67357507 -31.93834114 19.91472093 -25.046875 11.3515625 C-18.07434807 3.90791888 -10.18032917 -0.08635203 0 0 Z " fill="#040404" transform="translate(307.3125,146.5)"/>
<path d="M0 0 C1.18271484 -0.00515625 2.36542969 -0.0103125 3.58398438 -0.015625 C5.4315332 0.00757813 5.4315332 0.00757813 7.31640625 0.03125 C8.54423828 0.01578125 9.77207031 0.0003125 11.03710938 -0.015625 C12.22111328 -0.01046875 13.40511719 -0.0053125 14.625 0 C15.70450928 0.00451172 16.78401855 0.00902344 17.89624023 0.01367188 C21.57478171 0.65200436 23.26051917 1.91018472 25.87890625 4.53125 C26.50390625 7.46875 26.50390625 7.46875 25.87890625 10.53125 C23.88610517 13.16776052 22.32215316 15.22854446 18.96875 15.93188477 C16.81399893 16.02276301 14.71922181 15.96880184 12.56640625 15.84375 C11.82583984 15.82119141 11.08527344 15.79863281 10.32226562 15.77539062 C8.50693268 15.7168315 6.69264944 15.62715886 4.87890625 15.53125 C4.87890625 18.83125 4.87890625 22.13125 4.87890625 25.53125 C5.83152344 25.48484375 6.78414063 25.4384375 7.765625 25.390625 C9.01988281 25.35453125 10.27414062 25.3184375 11.56640625 25.28125 C12.80777344 25.23484375 14.04914063 25.1884375 15.328125 25.140625 C19.46588211 25.5958238 21.04666911 26.52865273 23.87890625 29.53125 C24.49938148 33.39198473 24.60896111 35.49409397 22.328125 38.734375 C18.99335314 41.18093809 16.08987722 40.9759291 12.12890625 40.78125 C11.43152344 40.76320312 10.73414063 40.74515625 10.015625 40.7265625 C8.30279086 40.67963554 6.59066801 40.60789605 4.87890625 40.53125 C4.87890625 43.83125 4.87890625 47.13125 4.87890625 50.53125 C6.52439453 50.44423828 6.52439453 50.44423828 8.203125 50.35546875 C9.65750939 50.30855312 11.11193999 50.26305489 12.56640625 50.21875 C13.28763672 50.17685547 14.00886719 50.13496094 14.75195312 50.09179688 C18.93809264 49.99622291 20.43270905 50.18316946 23.86328125 52.859375 C25.87890625 55.53125 25.87890625 55.53125 26.44140625 58.59375 C25.74087217 62.25209466 24.78942645 63.25064094 21.87890625 65.53125 C17.25229786 66.36478721 12.57216605 66.13380292 7.87890625 66.09375 C5.95304687 66.12952148 5.95304687 66.12952148 3.98828125 66.16601562 C2.7559375 66.16408203 1.52359375 66.16214844 0.25390625 66.16015625 C-0.87273437 66.16088135 -1.999375 66.16160645 -3.16015625 66.16235352 C-6.12109375 65.53125 -6.12109375 65.53125 -8.48632812 63.77929688 C-11.07053663 58.64484198 -10.69102531 53.60224638 -10.65234375 47.93359375 C-10.65617065 46.70717667 -10.65999756 45.48075958 -10.66394043 44.21717834 C-10.66665978 41.62744322 -10.65929716 39.03768063 -10.64257812 36.44799805 C-10.62115279 32.47968503 -10.64239089 28.51317892 -10.66796875 24.54492188 C-10.66532584 22.02864183 -10.66020163 19.51236291 -10.65234375 16.99609375 C-10.66044067 15.80749252 -10.6685376 14.6188913 -10.67687988 13.39427185 C-10.66427124 12.28955032 -10.6516626 11.1848288 -10.63867188 10.04663086 C-10.6354895 9.07576035 -10.63230713 8.10488983 -10.62902832 7.104599 C-9.45234379 1.14316196 -5.5180821 0.02308648 0 0 Z " fill="#020202" transform="translate(351.12109375,146.46875)"/>
<path d="M0 0 C3.40250725 3.65179066 5.00292781 7.12716597 6.578125 11.83203125 C6.90257599 12.7869471 6.90257599 12.7869471 7.23358154 13.76115417 C7.91542709 15.77515368 8.58289041 17.79357765 9.25 19.8125 C9.71259582 21.18716761 10.17612847 22.56152034 10.640625 23.93554688 C11.77127025 27.28679282 12.88907741 30.64215712 14 34 C16.07271308 28.97568966 18.06036037 23.94586472 19.78125 18.7890625 C20.06613281 17.93699219 20.35101563 17.08492187 20.64453125 16.20703125 C21.22184555 14.4645438 21.79199901 12.71966975 22.35546875 10.97265625 C25.11909397 2.78182131 25.11909397 2.78182131 29 0 C32.5 -0.5625 32.5 -0.5625 36 0 C38.5 2.125 38.5 2.125 40 5 C39.56383535 10.58461802 37.49771745 15.80171729 35.6875 21.0625 C35.04567604 22.95402068 34.40504613 24.84594695 33.765625 26.73828125 C33.45818359 27.64787598 33.15074219 28.5574707 32.83398438 29.49462891 C31.81238482 32.56361446 30.86439138 35.65119788 29.9375 38.75 C28.36288392 43.89960279 26.72066646 49.02251885 25 54.125 C24.6440979 55.22859863 24.6440979 55.22859863 24.28100586 56.35449219 C22.90560036 60.35686144 21.85484419 63.02429951 18 65 C13.91891641 65.59361216 11.88946637 65.66266348 8.5402832 63.16748047 C4.80369651 59.1645563 3.47971087 53.91845943 1.79296875 48.8203125 C1.42271072 47.73418671 1.0524527 46.64806091 0.67097473 45.52902222 C-0.10661184 43.23676254 -0.87691377 40.94202047 -1.64038086 38.64501953 C-2.8081506 35.1380618 -4.0027689 31.6411234 -5.20117188 28.14453125 C-5.95474323 25.9120039 -6.70674915 23.67894741 -7.45703125 21.4453125 C-7.99128471 19.88250046 -7.99128471 19.88250046 -8.53633118 18.28811646 C-10.27714256 13.00271385 -11.54460158 8.5733861 -11 3 C-8.91978122 -1.03042389 -4.01683517 -1.17189817 0 0 Z " fill="#040404" transform="translate(139,147)"/>
<path d="M0 0 C5.83320159 1.94440053 9.07181265 5.66457416 12.11328125 10.92578125 C13.96080528 15.24752249 13.8655748 19.836063 12.125 24.1875 C9.42907085 28.86990325 6.12124736 32.98675602 1 35 C-4.6415703 35.8568514 -9.32456722 35.80779795 -14.5 33.3125 C-18.54502834 29.57084878 -22.50978452 25.50153912 -23.30078125 19.8515625 C-23.32736038 14.80152789 -22.95053053 11.28302819 -20 7 C-13.48877771 0.57921135 -9.16305173 -0.70085665 0 0 Z " fill="#F0F7FB" transform="translate(216,162)"/>
<path d="M0 0 C4.09957021 0.58565289 4.99267142 1.30160343 7.5 4.5 C8.00793457 7.073349 8.00793457 7.073349 8.01757812 10.01538086 C8.03018677 11.12010239 8.04279541 12.22482391 8.05578613 13.36302185 C8.04768921 14.55162308 8.03959229 15.7402243 8.03125 16.96484375 C8.0350769 18.19030411 8.03890381 19.41576447 8.04284668 20.67835999 C8.04556861 23.2698753 8.03818795 25.86141795 8.02148438 28.45288086 C8.00009931 32.41908111 8.02126951 36.38346592 8.046875 40.34960938 C8.04423142 42.8671915 8.03910581 45.38477249 8.03125 47.90234375 C8.03934692 49.08892075 8.04744385 50.27549774 8.05578613 51.49803162 C7.96277545 59.67052856 7.96277545 59.67052856 5.68554688 63.75219727 C3.5 65.5 3.5 65.5 0 66.0625 C-4.07210271 65.40805492 -5.00286117 64.68928514 -7.5 61.5 C-8.00793457 58.88195801 -8.00793457 58.88195801 -8.01757812 55.87695312 C-8.03018677 54.74898315 -8.04279541 53.62101318 -8.05578613 52.4588623 C-8.04768921 51.24525024 -8.03959229 50.03163818 -8.03125 48.78125 C-8.0350769 47.53122192 -8.03890381 46.28119385 -8.04284668 44.99328613 C-8.04556914 42.34994095 -8.04019953 39.70807514 -8.02148438 37.06494141 C-7.99869354 33.68182509 -8.01181983 30.29997803 -8.03577423 26.91690826 C-8.05372684 23.68414367 -8.04114701 20.45153118 -8.03125 17.21875 C-8.03934692 16.00513794 -8.04744385 14.79152588 -8.05578613 13.5411377 C-8.04317749 12.41316772 -8.03056885 11.28519775 -8.01757812 10.12304688 C-8.01439575 9.13139526 -8.01121338 8.13974365 -8.00793457 7.11804199 C-7.08072376 2.33892874 -4.66947963 0.66706852 0 0 Z " fill="#030303" transform="translate(260.5,146.5)"/>
<path d="M0 0 C4.09957021 0.58565289 4.99267142 1.30160343 7.5 4.5 C8.00793457 7.073349 8.00793457 7.073349 8.01757812 10.01538086 C8.03018677 11.12010239 8.04279541 12.22482391 8.05578613 13.36302185 C8.04768921 14.55162308 8.03959229 15.7402243 8.03125 16.96484375 C8.0350769 18.19030411 8.03890381 19.41576447 8.04284668 20.67835999 C8.04556861 23.2698753 8.03818795 25.86141795 8.02148438 28.45288086 C8.00009931 32.41908111 8.02126951 36.38346592 8.046875 40.34960938 C8.04423142 42.8671915 8.03910581 45.38477249 8.03125 47.90234375 C8.03934692 49.08892075 8.04744385 50.27549774 8.05578613 51.49803162 C7.96277545 59.67052856 7.96277545 59.67052856 5.68554688 63.75219727 C3.5 65.5 3.5 65.5 0 66.0625 C-4.07210271 65.40805492 -5.00286117 64.68928514 -7.5 61.5 C-8.00793457 58.88195801 -8.00793457 58.88195801 -8.01757812 55.87695312 C-8.03018677 54.74898315 -8.04279541 53.62101318 -8.05578613 52.4588623 C-8.04768921 51.24525024 -8.03959229 50.03163818 -8.03125 48.78125 C-8.0350769 47.53122192 -8.03890381 46.28119385 -8.04284668 44.99328613 C-8.04556914 42.34994095 -8.04019953 39.70807514 -8.02148438 37.06494141 C-7.99869354 33.68182509 -8.01181983 30.29997803 -8.03577423 26.91690826 C-8.05372684 23.68414367 -8.04114701 20.45153118 -8.03125 17.21875 C-8.03934692 16.00513794 -8.04744385 14.79152588 -8.05578613 13.5411377 C-8.04317749 12.41316772 -8.03056885 11.28519775 -8.01757812 10.12304688 C-8.01439575 9.13139526 -8.01121338 8.13974365 -8.00793457 7.11804199 C-7.08072376 2.33892874 -4.66947963 0.66706852 0 0 Z " fill="#030303" transform="translate(51.5,146.5)"/>
<path d="M0 0 C1.06468002 -0.01591187 2.12936005 -0.03182373 3.2263031 -0.04821777 C4.37115677 -0.04841919 5.51601044 -0.04862061 6.69555664 -0.04882812 C7.87662491 -0.05644165 9.05769318 -0.06405518 10.27455139 -0.07189941 C12.77187994 -0.08270326 15.26925369 -0.08555239 17.76660156 -0.08105469 C21.5880872 -0.08008261 25.40756417 -0.12170049 29.22875977 -0.16601562 C31.65518787 -0.1712227 34.08162295 -0.17391082 36.50805664 -0.17382812 C38.2223008 -0.19842102 38.2223008 -0.19842102 39.97117615 -0.22351074 C47.85832332 -0.1547797 47.85832332 -0.1547797 51.92431641 2.73046875 C53.66821289 5.41992188 53.66821289 5.41992188 53.73071289 9.04492188 C52.54782477 12.80233121 51.97710276 13.49996882 48.66821289 15.41992188 C46.17079163 15.81433105 46.17079163 15.81433105 43.33642578 15.83984375 C42.27174576 15.85575562 41.20706573 15.87166748 40.11012268 15.88806152 C38.39284218 15.88836365 38.39284218 15.88836365 36.64086914 15.88867188 C35.45980087 15.8962854 34.2787326 15.90389893 33.06187439 15.91174316 C30.56454584 15.92254701 28.06717209 15.92539614 25.56982422 15.92089844 C21.74833858 15.91992636 17.92886161 15.96154424 14.10766602 16.00585938 C11.68123791 16.01106645 9.25480283 16.01375457 6.82836914 16.01367188 C5.11412498 16.03826477 5.11412498 16.03826477 3.36524963 16.06335449 C-4.52189753 15.99462345 -4.52189753 15.99462345 -8.58789062 13.109375 C-10.33178711 10.41992188 -10.33178711 10.41992188 -10.39428711 6.79492188 C-8.62758355 1.18303999 -5.65472567 0.05089932 0 0 Z " fill="#040404" transform="translate(39.331787109375,231.580078125)"/>
<path d="M0 0 C1.18271484 -0.00515625 2.36542969 -0.0103125 3.58398438 -0.015625 C5.4315332 0.00757813 5.4315332 0.00757813 7.31640625 0.03125 C8.54423828 0.01578125 9.77207031 0.0003125 11.03710938 -0.015625 C12.22111328 -0.01046875 13.40511719 -0.0053125 14.625 0 C15.70450928 0.00451172 16.78401855 0.00902344 17.89624023 0.01367188 C21.5881488 0.65432393 23.27210682 1.87429127 25.87890625 4.53125 C26.44140625 8.03125 26.44140625 8.03125 25.87890625 11.53125 C23.70592326 14.43288241 22.52342504 15.41858676 18.91796875 16.04882812 C17.79132813 16.05333984 16.6646875 16.05785156 15.50390625 16.0625 C14.2715625 16.06765625 13.03921875 16.0728125 11.76953125 16.078125 C10.485625 16.06265625 9.20171875 16.0471875 7.87890625 16.03125 C5.95304687 16.05445313 5.95304687 16.05445313 3.98828125 16.078125 C2.7559375 16.07296875 1.52359375 16.0678125 0.25390625 16.0625 C-1.43605469 16.05573242 -1.43605469 16.05573242 -3.16015625 16.04882812 C-6.76503793 15.4186872 -7.95147817 14.43531679 -10.12109375 11.53125 C-10.62109375 8.03125 -10.62109375 8.03125 -10.12109375 4.53125 C-7.10652014 0.53503158 -4.90589094 0.02052521 0 0 Z " fill="#040505" transform="translate(311.12109375,311.46875)"/>
<path d="M0 0 C1.175625 -0.02384766 2.35125 -0.04769531 3.5625 -0.07226562 C13.14921159 -0.05592464 13.14921159 -0.05592464 16.27734375 2.90625 C18.39035569 6.164409 18.72954455 7.75265626 18 11.5625 C15.81388126 14.43471567 14.63337604 15.45178453 11.0390625 16.08007812 C9.91242188 16.08458984 8.78578125 16.08910156 7.625 16.09375 C6.39265625 16.09890625 5.1603125 16.1040625 3.890625 16.109375 C2.60671875 16.09390625 1.3228125 16.0784375 0 16.0625 C-1.92585938 16.08570313 -1.92585938 16.08570313 -3.890625 16.109375 C-5.12296875 16.10421875 -6.3553125 16.0990625 -7.625 16.09375 C-9.31496094 16.08698242 -9.31496094 16.08698242 -11.0390625 16.08007812 C-14.64451879 15.44983676 -15.82701701 14.46413241 -18 11.5625 C-18.5625 8.0625 -18.5625 8.0625 -18 4.5625 C-12.63243716 -0.86269377 -7.20411755 -0.06714364 0 0 Z " fill="#070707" transform="translate(319,272.4375)"/>
<path d="M0 0 C1.18271484 -0.00515625 2.36542969 -0.0103125 3.58398438 -0.015625 C5.4315332 0.00757813 5.4315332 0.00757813 7.31640625 0.03125 C8.54423828 0.01578125 9.77207031 0.0003125 11.03710938 -0.015625 C12.22111328 -0.01046875 13.40511719 -0.0053125 14.625 0 C15.70450928 0.00451172 16.78401855 0.00902344 17.89624023 0.01367188 C21.58825246 0.65434192 23.26978368 1.87675912 25.87890625 4.53125 C26.50390625 8.03125 26.50390625 8.03125 25.87890625 11.53125 C23.26978368 14.18574088 21.58825246 15.40815808 17.89624023 16.04882812 C16.27697632 16.0555957 16.27697632 16.0555957 14.625 16.0625 C13.44099609 16.06765625 12.25699219 16.0728125 11.03710938 16.078125 C9.19536133 16.05492187 9.19536133 16.05492187 7.31640625 16.03125 C6.08470703 16.04671875 4.85300781 16.0621875 3.58398438 16.078125 C2.40126953 16.07296875 1.21855469 16.0678125 0 16.0625 C-1.07838135 16.05798828 -2.1567627 16.05347656 -3.26782227 16.04882812 C-6.79616965 15.40879249 -7.98198999 14.36691664 -10.12109375 11.53125 C-10.62109375 8.03125 -10.62109375 8.03125 -10.12109375 4.53125 C-7.10652014 0.53503158 -4.90589094 0.02052521 0 0 Z " fill="#020303" transform="translate(311.12109375,350.46875)"/>
</svg>
