<?xml version="1.0" encoding="UTF-8"?>
<svg version="1.1" xmlns="http://www.w3.org/2000/svg" width="512" height="512">
<path d="M0 0 C1.13263259 -0.00623996 2.26526519 -0.01247993 3.43221998 -0.01890898 C7.2060459 -0.03479159 10.97922169 -0.02225256 14.75305176 -0.00964355 C17.46734439 -0.01286744 20.1816099 -0.02204652 22.89588928 -0.03088379 C29.48998619 -0.04862377 36.08390047 -0.04484931 42.67800438 -0.03323323 C48.03953743 -0.0241813 53.40101948 -0.02298249 58.76255798 -0.02732849 C59.52709092 -0.02794142 60.29162385 -0.02855436 61.07932445 -0.02918586 C62.63270082 -0.03046483 64.18607716 -0.03176168 65.73945349 -0.03307623 C80.28841474 -0.04446878 94.837275 -0.03138917 109.38621968 -0.00987476 C121.8563666 0.00799503 134.32636455 0.00489055 146.79650879 -0.0135498 C161.29517902 -0.03497998 175.79376085 -0.04337026 190.29244471 -0.03110075 C191.83994705 -0.02982662 193.38744941 -0.02856914 194.93495178 -0.02732849 C195.69625333 -0.02671139 196.45755487 -0.02609429 197.24192616 -0.02545848 C202.59391789 -0.02201202 207.9458533 -0.02781872 213.2978363 -0.0372467 C219.82459735 -0.04849198 226.35116609 -0.04537378 232.87790525 -0.02412373 C236.20488329 -0.01364682 239.53127752 -0.01160422 242.85829353 -0.02272034 C246.47168308 -0.03367876 250.08417701 -0.01990677 253.69750977 0 C254.73935283 -0.00892289 255.7811959 -0.01784577 256.85460997 -0.02703905 C264.58320679 0.05533708 271.53151593 1.55345369 277.75109863 6.36730957 C278.2577002 6.99121582 278.76430176 7.61512207 279.28625488 8.25793457 C280.07322754 9.1783252 280.07322754 9.1783252 280.87609863 10.11730957 C285.53481541 17.680001 285.77914629 24.47951108 285.72970581 33.15802002 C285.73438578 34.42228986 285.73906575 35.6865597 285.74388754 36.98914075 C285.75636902 40.48246854 285.75024025 43.97554931 285.74092889 47.46887779 C285.73412669 51.24270648 285.74462561 55.0164934 285.75286865 58.79031372 C285.76619726 66.17808428 285.76333169 73.56576331 285.75463073 80.95353743 C285.74784911 86.96107004 285.74693954 92.96857703 285.75020218 98.97611237 C285.75066188 99.83192576 285.75112158 100.68773915 285.75159521 101.56948628 C285.75255441 103.30823524 285.75352705 105.04698419 285.75451298 106.78573313 C285.76306485 123.08540083 285.753237 139.38501788 285.73711188 155.68467727 C285.72371849 169.65508531 285.7260291 183.62541852 285.73986816 197.5958252 C285.75594414 213.83190239 285.76223079 230.06793517 285.75303137 246.30401921 C285.75207577 248.03751071 285.75113266 249.77100221 285.75020218 251.50449371 C285.74973935 252.35731945 285.74927653 253.21014518 285.74879967 254.08881412 C285.74621512 260.08354027 285.75056944 266.07823813 285.75764084 272.0729599 C285.76607891 279.3868954 285.76372781 286.70073437 285.74779861 294.0146589 C285.73994532 297.74274564 285.73677353 301.47067182 285.74674606 305.19875717 C285.75741666 309.24928111 285.74462602 313.29940403 285.72970581 317.34991455 C285.73639798 318.51569747 285.74309014 319.68148038 285.7499851 320.88259006 C285.64637404 335.43525709 281.6766751 347.99126146 271.66125488 358.82043457 C259.62616945 369.95114942 246.02921222 372.97952538 230.0657959 372.8888855 C228.78177415 372.89356547 227.4977524 372.89824544 226.1748209 372.90306723 C222.64492443 372.91548718 219.11527408 372.90944846 215.58537722 372.90010858 C211.7652658 372.8932811 207.94519477 372.90381752 204.12509155 372.91204834 C196.65498424 372.92534865 189.18496765 372.92252451 181.71485686 372.91381042 C175.64067707 372.90701965 169.56652259 372.90612316 163.49234009 372.90938187 C162.19278077 372.91007142 162.19278077 372.91007142 160.86696774 372.91077489 C159.10663691 372.91173412 157.3463061 372.91270677 155.58597529 372.91369267 C139.10125563 372.92223572 122.61658612 372.91242949 106.13187468 372.89629157 C92.00459871 372.88288938 77.87739671 372.88521777 63.75012207 372.89904785 C47.32210925 372.91512287 30.89414031 372.92141184 14.46612072 372.91221106 C12.71247038 372.91125547 10.95882003 372.91031236 9.20516968 372.90938187 C7.91111634 372.90868763 7.91111634 372.90868763 6.59092051 372.90797936 C0.5280203 372.90539523 -5.53485193 372.90974799 -11.5977478 372.91682053 C-18.99210111 372.9252571 -26.38635895 372.92291019 -33.7807014 372.90697829 C-37.5493207 372.8991245 -41.31778115 372.89595423 -45.08639908 372.90592575 C-49.18049815 372.91659419 -53.27420035 372.90380752 -57.36828613 372.8888855 C-58.54690436 372.89557766 -59.72552259 372.90226983 -60.93985653 372.90916479 C-76.27897237 372.80108233 -89.1272917 368.59426395 -100.32702637 357.95715332 C-110.45855238 347.28073852 -114.75518407 335.35796422 -114.84411621 320.74597168 C-114.8522937 319.99234848 -114.86047119 319.23872528 -114.86889648 318.46226501 C-114.89356356 315.98661059 -114.91021116 313.51101244 -114.92468262 311.03527832 C-114.93000629 310.18648165 -114.93532997 309.33768497 -114.94081497 308.46316719 C-114.96745523 303.97704093 -114.98686576 299.49094171 -115.00134277 295.00476074 C-115.01471791 291.29650403 -115.04264854 287.58879291 -115.08337402 283.8807373 C-115.13264556 279.39337422 -115.1574552 274.90650822 -115.16456985 270.41888618 C-115.17128333 268.7120272 -115.18650802 267.00517938 -115.21046066 265.29847527 C-115.24206607 262.91189322 -115.24215795 260.52723911 -115.23474121 258.14050293 C-115.25934921 257.0875705 -115.25934921 257.0875705 -115.28445435 256.0133667 C-115.23904489 252.44050576 -114.78457837 250.68212006 -112.59623146 247.82328129 C-108.97485747 244.97615896 -106.34027602 244.82869612 -101.92346191 244.94030762 C-101.16195328 244.93957748 -100.40044464 244.93884735 -99.61585999 244.93809509 C-97.10999199 244.94156622 -94.60600526 244.98040139 -92.10046387 245.01965332 C-90.3588411 245.02898322 -88.61720518 245.0360985 -86.87556458 245.04109192 C-82.30003385 245.06014797 -77.72530154 245.10923629 -73.15008545 245.16461182 C-68.47805583 245.21583465 -63.80589671 245.23861241 -59.13366699 245.26379395 C-49.97250964 245.31735675 -40.81194387 245.40265235 -31.65124512 245.50793457 C-31.6540105 244.36179467 -31.65677588 243.21565477 -31.65962505 242.03478336 C-31.72623453 214.14198112 -31.77552756 186.24918919 -31.80668163 158.3563242 C-31.80974115 155.67061417 -31.81286511 152.98490423 -31.81604004 150.29919434 C-31.81682697 149.63165742 -31.8176139 148.96412051 -31.81842468 148.2763552 C-31.83146794 137.47684407 -31.85511581 126.67738099 -31.88270351 115.87789834 C-31.91078779 104.79130824 -31.92720331 93.7047377 -31.9335106 82.61811298 C-31.93742028 76.39315799 -31.9466042 70.16831188 -31.96843529 63.9433918 C-31.98882401 58.08216305 -31.99507402 52.22108788 -31.99056816 46.35982704 C-31.99139229 44.21083491 -31.9973436 42.06183755 -32.00886154 39.91287613 C-32.02384282 36.97310734 -32.02017803 34.03391428 -32.01200867 31.09413147 C-32.02074719 30.24877462 -32.02948572 29.40341778 -32.03848904 28.53244406 C-31.98374304 21.21665699 -30.52034536 13.85405205 -25.58874512 8.19543457 C-25.08214355 7.58055176 -24.57554199 6.96566895 -24.05358887 6.33215332 C-16.76932584 0.80085115 -8.88087887 -0.07606047 0 0 Z M-13.65124512 20.50793457 C-14.65310344 23.51350953 -14.77707351 25.49532771 -14.77873707 28.63529778 C-14.78174472 29.70265628 -14.78475237 30.77001478 -14.78785115 31.86971748 C-14.78610078 33.04663252 -14.78435041 34.22354757 -14.782547 35.43612671 C-14.78466271 36.6831682 -14.78677842 37.9302097 -14.78895825 39.21504033 C-14.79356006 41.95831493 -14.79497518 44.70156696 -14.793993 47.4448452 C-14.79240188 51.90846521 -14.79759901 56.37206277 -14.80361938 60.8356781 C-14.81173811 67.31809355 -14.81667833 73.80050506 -14.81991005 80.28292465 C-14.82540688 90.53625901 -14.84230597 100.78956009 -14.86125183 111.0428772 C-14.867609 114.55135149 -14.87391742 118.05982587 -14.880229 121.56830025 C-14.88181276 122.44520231 -14.88339652 123.32210437 -14.88502828 124.22557922 C-14.90297178 134.21194788 -14.91919328 144.1983189 -14.9342041 154.18469238 C-14.93557997 155.09770458 -14.93695584 156.01071677 -14.93837341 156.951396 C-14.96027654 171.72813407 -14.97105275 186.50486358 -14.97857485 201.281615 C-14.98665683 216.45900765 -15.00998461 231.63632708 -15.04652852 246.81367791 C-15.06851359 256.17028778 -15.0782304 265.52674694 -15.07202818 274.88338132 C-15.06884415 281.30400426 -15.08024578 287.72449892 -15.1029226 294.14508216 C-15.11554205 297.84494206 -15.12181941 301.54451602 -15.11050606 305.24438667 C-15.09836625 309.26647942 -15.11734514 313.28785323 -15.13899231 317.30990601 C-15.13054977 318.46451383 -15.12210724 319.61912166 -15.11340886 320.80871761 C-15.2361272 333.19778553 -18.88135386 343.23853029 -25.65124512 353.50793457 C-25.98124512 354.16793457 -26.31124512 354.82793457 -26.65124512 355.50793457 C7.44752566 355.59953717 41.54626576 355.66999717 75.6451323 355.71219589 C79.67296763 355.71719857 83.70080272 355.72237588 87.7286377 355.72766113 C88.53048996 355.72871037 89.33234223 355.72975962 90.15849306 355.73084065 C103.13332699 355.7482347 116.10808986 355.77976687 129.08288167 355.81654575 C142.40125168 355.85398304 155.71958453 355.87617631 169.03800499 355.88428855 C177.25284551 355.88977055 185.46748514 355.90707017 193.68226381 355.93960044 C199.31933639 355.96078277 204.95630548 355.96712623 210.59341495 355.96194008 C213.84333791 355.95938402 217.09283775 355.96544008 220.34271431 355.98475647 C223.87339706 356.0047106 227.40322619 355.99985297 230.93392944 355.98895264 C231.95146612 356.000604 232.9690028 356.01225537 234.01737392 356.02425981 C244.25267621 355.9390762 252.81813862 352.48384026 260.34875488 345.50793457 C268.18510885 337.20221565 268.79327778 326.6149328 268.74316406 315.72209167 C268.75230072 313.84021651 268.75230072 313.84021651 268.76162195 311.92032367 C268.77792492 308.46362048 268.77572352 305.00714678 268.77024698 301.55041873 C268.76756501 297.81287627 268.78212981 294.07539338 268.79434204 290.33787537 C268.81534421 283.0276038 268.81994008 275.71741163 268.81815416 268.40711346 C268.81684471 262.46678607 268.82065994 256.52648339 268.82807922 250.58616066 C268.83017846 248.87287945 268.83227606 247.15959823 268.83437204 245.44631702 C268.83541557 244.59352217 268.8364591 243.74072732 268.83753425 242.86209021 C268.85641315 226.75434338 268.85539269 210.64664215 268.84856492 194.53888885 C268.84298242 179.79915078 268.86384914 165.05958614 268.89692539 150.31988861 C268.93063927 135.17849676 268.94583419 120.03718807 268.94120836 104.89575797 C268.93896247 96.39740264 268.94422532 87.89920789 268.96910095 79.40088463 C268.99008353 72.17129465 268.99373577 64.94195346 268.97480136 57.71235337 C268.96562729 54.02348736 268.96455121 50.33508566 268.98515701 46.64625549 C269.00723341 42.65009279 268.99069219 38.65503006 268.97021484 34.65885925 C268.98273269 33.48961448 268.99525054 32.3203697 269.00814772 31.11569327 C268.95650819 26.43652398 268.85444632 23.38581204 266.49356937 19.28734303 C261.81939934 16.64258999 257.69944501 16.82311268 252.41026306 16.88647461 C251.29400341 16.88008579 250.17774375 16.87369697 249.02765805 16.86711454 C245.2794288 16.85182862 241.53225041 16.87235126 237.78405762 16.8927002 C235.10016073 16.8892001 232.41633331 16.8837397 229.73245239 16.87588501 C223.19510846 16.86135619 216.65807501 16.87359421 210.12076049 16.89499825 C202.50973159 16.91900369 194.89877391 16.9172942 187.28771556 16.91469234 C173.70944605 16.91100187 160.13132289 16.93183093 146.55310059 16.96594238 C133.37337546 16.99904049 120.19380393 17.01319962 107.01403809 17.00695801 C92.66525209 17.00019621 78.31653044 17.00264773 63.96775395 17.02231741 C63.20923869 17.0233569 62.45072344 17.02439638 61.66922288 17.02546737 C60.14573562 17.02755828 58.62224839 17.02966925 57.09876118 17.03180054 C51.79161394 17.03869988 46.48448652 17.03936484 41.17733574 17.03791809 C34.71178198 17.0364794 28.24635356 17.04615075 21.7808414 17.06986445 C18.48108984 17.08173617 15.18154888 17.08724289 11.88177299 17.08302689 C8.3077343 17.07933055 4.73423916 17.09399595 1.16026306 17.11352539 C0.11309614 17.10819746 -0.93407078 17.10286954 -2.01297003 17.09738016 C-2.96881772 17.1064368 -3.92466541 17.11549344 -4.90947819 17.12482452 C-5.73455814 17.12639573 -6.5596381 17.12796693 -7.40972048 17.12958574 C-10.22224818 17.60431466 -11.58721342 18.5637895 -13.65124512 20.50793457 Z M-97.65124512 262.50793457 C-97.73374512 273.00605957 -97.81624512 283.50418457 -97.90124512 294.32043457 C-97.93766113 297.61374756 -97.97407715 300.90706055 -98.01159668 304.3001709 C-98.02328962 306.93842926 -98.03348 309.57669489 -98.04187012 312.21496582 C-98.05232361 312.88533371 -98.0627771 313.5557016 -98.07354736 314.24638367 C-98.24272209 325.68465447 -96.82325962 335.63590423 -89.40905762 344.72668457 C-82.71865874 351.50628877 -74.23533577 355.52587492 -64.71374512 355.88293457 C-53.96265127 355.46687057 -46.16469441 351.41864113 -38.86218262 343.58996582 C-31.40480491 334.3876352 -31.22796807 324.59915358 -31.35827637 313.19152832 C-31.36129761 311.90315063 -31.36431885 310.61477295 -31.36743164 309.28735352 C-31.38304526 304.50663157 -31.4249288 299.72602443 -31.46374512 294.94543457 C-31.52562012 284.24105957 -31.58749512 273.53668457 -31.65124512 262.50793457 C-53.43124512 262.50793457 -75.21124512 262.50793457 -97.65124512 262.50793457 Z " fill="#000000" transform="translate(170.6512451171875,69.4920654296875)"/>
<path d="M0 0 C2.7596422 2.23948882 3.87885755 4.0824989 4.34558105 7.61734009 C4.46427913 10.9981322 4.4488593 14.35587683 4.390625 17.73828125 C4.38496521 18.97418503 4.37930542 20.21008881 4.37347412 21.48344421 C4.35490285 24.75691598 4.31901355 28.02959079 4.2746582 31.30279541 C4.23361703 34.64775248 4.21578588 37.99274437 4.1953125 41.33789062 C4.15123432 47.89223769 4.08431234 54.44605369 4 61 C4.69046921 60.99333817 5.38093842 60.98667633 6.09233093 60.97981262 C13.27854761 60.91344354 20.46467721 60.86819262 27.65112305 60.83520508 C30.33319554 60.82181298 33.01505492 60.80093923 35.69702148 60.77368164 C39.55198251 60.73729389 43.40661733 60.720272 47.26171875 60.70703125 C48.46084396 60.69154739 49.65996918 60.67606354 50.89543152 60.66011047 C52.01621597 60.65988388 53.13700043 60.65965729 54.29174805 60.65942383 C55.76734444 60.64943108 55.76734444 60.64943108 57.27275085 60.63923645 C60.50207265 61.06641473 62.37995083 62.0950518 65 64 C66.56700442 67.13400885 66.85164561 70.63155095 66 74 C63.10291152 77.14786214 60.84091619 78.26240114 56.66617584 78.50615788 C54.89727109 78.52943907 53.12799452 78.53064879 51.35900879 78.5146637 C50.38229548 78.52160922 49.40558217 78.52855475 48.39927149 78.53571075 C45.12337123 78.55402092 41.84819187 78.54370501 38.57226562 78.53344727 C36.22498532 78.54050364 33.87770957 78.54924746 31.53044128 78.55955505 C25.15243155 78.582089 18.77466948 78.57910003 12.39663506 78.57023358 C6.40293793 78.5644848 0.40926962 78.57416013 -5.58442014 78.58252143 C-18.17890067 78.59909884 -30.77326916 78.59038101 -43.36774296 78.57353585 C-54.89072875 78.55883665 -66.41345385 78.57347033 -77.93640608 78.60230602 C-89.76897683 78.63169599 -101.60142725 78.64267364 -113.43403292 78.63312382 C-120.07686742 78.62804808 -126.71953742 78.63044984 -133.36235046 78.65091133 C-139.60706551 78.66922526 -145.85129479 78.6633617 -152.09598351 78.63871193 C-154.39016666 78.63369073 -156.68438655 78.63722748 -158.97854042 78.64986038 C-162.10592663 78.66572161 -165.23169964 78.65090439 -168.35900879 78.62818909 C-169.27097063 78.64002482 -170.18293246 78.65186054 -171.12252951 78.66405493 C-175.55170811 78.59850905 -177.4340467 78.4268829 -181.07131195 75.68339443 C-183.58692841 72.18340324 -183.61446147 70.22442261 -183 66 C-181.23984869 62.8149643 -180.50109084 62.16703028 -177 61 C-175.17467414 60.91173035 -173.34625311 60.88236797 -171.51879883 60.88647461 C-170.39786331 60.88655014 -169.2769278 60.88662567 -168.12202454 60.88670349 C-166.91257675 60.89186478 -165.70312897 60.89702606 -164.45703125 60.90234375 C-163.21829758 60.9037587 -161.9795639 60.90517365 -160.70329285 60.90663147 C-157.41368463 60.91128398 -154.1241254 60.9202661 -150.83453369 60.93133545 C-147.47628377 60.94157371 -144.11802667 60.94613426 -140.75976562 60.95117188 C-134.17315788 60.96220855 -127.58658295 60.97895233 -121 61 C-121.01812744 60.17072998 -121.03625488 59.34145996 -121.05493164 58.48706055 C-121.06903076 57.40207275 -121.08312988 56.31708496 -121.09765625 55.19921875 C-121.11578369 54.12244873 -121.13391113 53.04567871 -121.15258789 51.9362793 C-121 49 -121 49 -119.4375 45.8125 C-116.23249449 43.42929078 -113.96982998 43.07088982 -110 43 C-107.36663618 43.78289195 -106.39151439 44.39670558 -104.90234375 46.69140625 C-103.13365007 51.21650568 -103.89602733 56.21725726 -104 61 C-97.73 61 -91.46 61 -85 61 C-85.04640625 59.32550781 -85.0928125 57.65101563 -85.140625 55.92578125 C-85.17814686 53.72137201 -85.21454657 51.51694347 -85.25 49.3125 C-85.28351563 48.20970703 -85.31703125 47.10691406 -85.3515625 45.97070312 C-85.45024687 37.80457158 -85.45024687 37.80457158 -83.203125 33.7890625 C-80.1573771 31.31574239 -77.88302113 31.06933966 -74 31 C-71.34395439 31.78963518 -70.38189878 32.39585285 -68.90673828 34.72949219 C-67.79698579 37.50835545 -67.77288911 39.65157639 -67.8046875 42.640625 C-67.81113281 43.71054688 -67.81757813 44.78046875 -67.82421875 45.8828125 C-67.84935547 47.54957031 -67.84935547 47.54957031 -67.875 49.25 C-67.88402344 50.37664062 -67.89304687 51.50328125 -67.90234375 52.6640625 C-67.92589237 55.44279922 -67.96176275 58.22142659 -68 61 C-61.73 61 -55.46 61 -49 61 C-49.04640625 58.45925781 -49.0928125 55.91851562 -49.140625 53.30078125 C-49.17184687 50.83180742 -49.19611955 48.36285583 -49.21972656 45.89379883 C-49.23980505 44.18178414 -49.26707392 42.46983772 -49.30175781 40.75805664 C-49.35044401 38.29295992 -49.37300573 35.8287721 -49.390625 33.36328125 C-49.41127014 32.60163162 -49.43191528 31.83998199 -49.45318604 31.05525208 C-49.45472902 27.37623272 -49.1274948 25.20828852 -47.19042969 22.04370117 C-44.14931451 19.20629868 -42.12069821 18.92770705 -38 19 C-35.19810554 20.76641172 -33.48475089 22.03049822 -32 25 C-31.91324462 27.69893181 -31.88442103 30.37169231 -31.90234375 33.0703125 C-31.90446617 34.26465408 -31.90446617 34.26465408 -31.90663147 35.48312378 C-31.91223655 38.0304538 -31.92478986 40.57769647 -31.9375 43.125 C-31.94251435 44.85025915 -31.94707737 46.57551967 -31.95117188 48.30078125 C-31.96135747 52.53391504 -31.9809318 56.76685954 -32 61 C-25.73 61 -19.46 61 -13 61 C-13.02094727 59.32977783 -13.04189453 57.65955566 -13.06347656 55.9387207 C-13.13587494 49.74219333 -13.18179997 43.54570335 -13.21972656 37.34887695 C-13.23758325 34.66672177 -13.26541436 31.9849454 -13.30175781 29.30297852 C-13.35027542 25.44796934 -13.37296994 21.59354002 -13.390625 17.73828125 C-13.41127014 16.53915604 -13.43191528 15.34003082 -13.45318604 14.10456848 C-13.45542419 5.80171364 -13.45542419 5.80171364 -11.16308594 1.76635742 C-7.35961671 -1.33952292 -4.59792009 -1.31369145 0 0 Z " fill="#000000" transform="translate(356,100)"/>
<path d="M0 0 C0.8996347 -0.0087616 1.79926941 -0.01752319 2.72616577 -0.02655029 C5.70017729 -0.04855761 8.67270186 -0.03398552 11.64672852 -0.01708984 C13.71411932 -0.02045789 15.78150819 -0.02531041 17.84889221 -0.03158569 C22.18249355 -0.03895909 26.51557965 -0.02823733 30.84912109 -0.00488281 C36.40237983 0.02358709 41.95442946 0.00721479 47.5076437 -0.02274513 C51.77738032 -0.04082051 56.04683072 -0.03505859 60.316576 -0.02210617 C62.36389369 -0.01877192 64.41123741 -0.02285991 66.4585247 -0.03450394 C69.32200706 -0.04721437 72.18353788 -0.027832 75.046875 0 C75.89223312 -0.01012115 76.73759125 -0.02024231 77.60856628 -0.03067017 C81.70557305 0.04304542 83.63892413 0.34332595 87.11376953 2.69216919 C89.57474448 6.37522498 89.78776213 9.28327957 89.71923828 13.57080078 C89.72639359 14.35353867 89.73354889 15.13627655 89.74092102 15.94273376 C89.7577856 18.52182962 89.73842011 21.09918162 89.71704102 23.67822266 C89.71786993 25.47513981 89.72033015 27.27205688 89.72434998 29.06896973 C89.72720643 32.83169425 89.71252198 36.59382302 89.68505859 40.35644531 C89.65097585 45.17533856 89.65699534 49.99316667 89.67572117 54.8121109 C89.6862986 58.52167612 89.67734663 62.23099424 89.66233635 65.9405365 C89.65715952 67.71710984 89.65763029 69.49370904 89.6638813 71.27027893 C89.66934261 73.75513028 89.64893081 76.23846598 89.62158203 78.72314453 C89.62810791 79.45472275 89.63463379 80.18630096 89.64135742 80.94004822 C89.57901976 84.27724685 89.10881207 86.60538511 87.61851501 89.60276794 C83.88700609 92.61732203 80.73999483 92.34171194 76.06860352 92.27807617 C74.70211166 92.28880913 74.70211166 92.28880913 73.30801392 92.29975891 C70.29671074 92.31666763 67.28689175 92.29723047 64.27563477 92.27587891 C62.18342974 92.2767074 60.09122477 92.27916605 57.99902344 92.28318787 C53.6141399 92.28604736 49.22976672 92.27132951 44.8449707 92.24389648 C39.2222394 92.20981378 33.60042086 92.21583065 27.97764587 92.23455906 C23.65735253 92.24512384 19.33727186 92.2361959 15.01699829 92.22117424 C12.94374218 92.21598816 10.8704639 92.21647938 8.79721069 92.22271919 C5.90020941 92.228165 3.00451807 92.20781639 0.10766602 92.18041992 C-1.17979019 92.19020874 -1.17979019 92.19020874 -2.49325562 92.20019531 C-6.11557139 92.14189886 -8.30735933 92.01460419 -11.4432373 90.10751343 C-13.48037563 86.69448975 -13.47144497 83.6069834 -13.42944336 79.74487305 C-13.43645264 78.95252762 -13.44346191 78.16018219 -13.45068359 77.34382629 C-13.46827502 74.72706962 -13.45663616 72.11139641 -13.44311523 69.49462891 C-13.4458101 67.67386162 -13.44969248 65.85309574 -13.45471191 64.03233337 C-13.46060873 60.2166473 -13.45203921 56.40133587 -13.43334961 52.58569336 C-13.41057604 47.69842431 -13.42367169 42.81203469 -13.44763947 37.92479801 C-13.46210638 34.16464129 -13.45748709 30.40469239 -13.4471283 26.64452934 C-13.44446264 24.84282769 -13.44772513 23.04110708 -13.45704651 21.23942757 C-13.46722518 18.71860049 -13.45169306 16.19918868 -13.42944336 13.6784668 C-13.43754028 12.9359668 -13.44563721 12.1934668 -13.45397949 11.4284668 C-13.39900581 8.06037183 -12.94321832 5.70990874 -11.43650818 2.68544006 C-7.73182475 -0.30582507 -4.6381317 -0.05539795 0 0 Z M4.08813477 17.64697266 C4.08813477 36.78697266 4.08813477 55.92697266 4.08813477 75.64697266 C26.52813477 75.64697266 48.96813477 75.64697266 72.08813477 75.64697266 C72.08813477 56.50697266 72.08813477 37.36697266 72.08813477 17.64697266 C49.64813477 17.64697266 27.20813477 17.64697266 4.08813477 17.64697266 Z " fill="#000000" transform="translate(330.911865234375,314.35302734375)"/>
<path d="M0 0 C1.20555794 -0.01051392 1.20555794 -0.01051392 2.43547058 -0.02124023 C5.08949435 -0.03883111 7.74244995 -0.02719405 10.39648438 -0.01367188 C12.24206751 -0.01636649 14.08764926 -0.02024865 15.93322754 -0.02526855 C19.8001864 -0.03116507 23.66677554 -0.02259578 27.53369141 -0.00390625 C32.49055662 0.01888347 37.44655555 0.0057612 42.40338898 -0.01819611 C46.2141167 -0.03264998 50.02463902 -0.02805 53.83537292 -0.01768494 C55.66302086 -0.01501651 57.49068744 -0.01829148 59.3183136 -0.02760315 C61.8728678 -0.03776214 64.42601906 -0.02227788 66.98046875 0 C67.73591476 -0.00809692 68.49136078 -0.01619385 69.2696991 -0.02453613 C72.52267107 0.02802312 74.67323046 0.32085384 77.45849609 2.04931641 C79.59108429 5.485795 79.54985999 8.60429713 79.5078125 12.52734375 C79.51482178 13.33104904 79.52183105 14.13475433 79.52905273 14.96281433 C79.54664361 17.6168381 79.53500655 20.2697937 79.52148438 22.92382812 C79.52417899 24.76941126 79.52806115 26.61499301 79.53308105 28.46057129 C79.53897757 32.32753015 79.53040828 36.19411929 79.51171875 40.06103516 C79.48892903 45.01790037 79.5020513 49.9738993 79.52600861 54.93073273 C79.54046248 58.74146045 79.5358625 62.55198277 79.52549744 66.36271667 C79.52282901 68.19036461 79.52610398 70.01803119 79.53541565 71.84565735 C79.54557464 74.40021155 79.53009038 76.95336281 79.5078125 79.5078125 C79.51590942 80.26325851 79.52400635 81.01870453 79.53234863 81.79704285 C79.47978938 85.05001482 79.18695866 87.20057421 77.45849609 89.98583984 C74.0220175 92.11842804 70.90351537 92.07720374 66.98046875 92.03515625 C66.17676346 92.04216553 65.37305817 92.0491748 64.54499817 92.05639648 C61.8909744 92.07398736 59.2380188 92.0623503 56.58398438 92.04882812 C54.73840124 92.05152274 52.89281949 92.0554049 51.04724121 92.0604248 C47.18028235 92.06632132 43.31369321 92.05775203 39.44677734 92.0390625 C34.48991213 92.01627278 29.5339132 92.02939505 24.57707977 92.05335236 C20.76635205 92.06780623 16.95582973 92.06320625 13.14509583 92.05284119 C11.31744789 92.05017276 9.48978131 92.05344773 7.66215515 92.0627594 C5.10760095 92.07291839 2.55444969 92.05743413 0 92.03515625 C-0.75544601 92.04325317 -1.51089203 92.0513501 -2.28923035 92.05969238 C-5.54220232 92.00713313 -7.69276171 91.71430241 -10.47802734 89.98583984 C-12.61061554 86.54936125 -12.56939124 83.43085912 -12.52734375 79.5078125 C-12.53435303 78.70410721 -12.5413623 77.90040192 -12.54858398 77.07234192 C-12.56617486 74.41831815 -12.5545378 71.76536255 -12.54101562 69.11132812 C-12.54371024 67.26574499 -12.5475924 65.42016324 -12.5526123 63.57458496 C-12.55850882 59.7076261 -12.54993953 55.84103696 -12.53125 51.97412109 C-12.50846028 47.01725588 -12.52158255 42.06125695 -12.54553986 37.10442352 C-12.55999373 33.2936958 -12.55539375 29.48317348 -12.54502869 25.67243958 C-12.54236026 23.84479164 -12.54563523 22.01712506 -12.5549469 20.1894989 C-12.56510589 17.6349447 -12.54962163 15.08179344 -12.52734375 12.52734375 C-12.53544067 11.77189774 -12.5435376 11.01645172 -12.55187988 10.2381134 C-12.49932063 6.98514143 -12.20648991 4.83458204 -10.47802734 2.04931641 C-7.04154875 -0.08327179 -3.92304662 -0.04204749 0 0 Z M4.99023438 17.51757812 C4.99023438 36.32757813 4.99023438 55.13757813 4.99023438 74.51757812 C24.13023437 74.51757812 43.27023438 74.51757812 62.99023438 74.51757812 C62.99023438 55.70757812 62.99023438 36.89757812 62.99023438 17.51757812 C43.85023438 17.51757812 24.71023437 17.51757812 4.99023438 17.51757812 Z " fill="#000000" transform="translate(185.009765625,194.482421875)"/>
<path d="M0 0 C1.27041641 -0.0087616 2.54083282 -0.01752319 3.8497467 -0.02655029 C7.32719166 -0.04930984 10.80389345 -0.040522 14.28135109 -0.02465487 C17.9238749 -0.01197813 21.56633594 -0.02374088 25.2088623 -0.03158569 C31.32539267 -0.04067717 37.44162098 -0.02870783 43.55810547 -0.00488281 C50.62530775 0.0223279 57.69178879 0.01351335 64.7589736 -0.01401484 C70.83135184 -0.03671952 76.90351321 -0.03989948 82.9759202 -0.02682149 C86.60067978 -0.01903429 90.22510057 -0.01796479 93.84983826 -0.03450394 C97.89121066 -0.05165672 101.93134371 -0.02787145 105.97265625 0 C107.17177139 -0.01012115 108.37088654 -0.02024231 109.6063385 -0.03067017 C117.68413896 0.07268741 117.68413896 0.07268741 121.72937012 2.96865845 C124.0687106 6.53475896 124.23384542 8.4608758 123.48632812 12.64697266 C121.72937012 15.32528687 121.72937012 15.32528687 118.48632812 17.64697266 C114.32141988 18.4050114 110.19613999 18.32959371 105.97265625 18.29394531 C104.70223984 18.30270691 103.43182343 18.31146851 102.12290955 18.32049561 C98.64546459 18.34325515 95.1687628 18.33446731 91.69130516 18.31860018 C88.04878135 18.30592344 84.40632031 18.31768619 80.76379395 18.32553101 C74.64726358 18.33462248 68.53103527 18.32265314 62.41455078 18.29882812 C55.3473485 18.27161741 48.28086746 18.28043196 41.21368265 18.30796015 C35.14130441 18.33066483 29.06914304 18.33384479 22.99673605 18.32076681 C19.37197647 18.3129796 15.74755568 18.3119101 12.12281799 18.32844925 C8.08144559 18.34560203 4.04131254 18.32181676 0 18.29394531 C-1.19911514 18.30406647 -2.39823029 18.31418762 -3.63368225 18.32461548 C-11.71148271 18.2212579 -11.71148271 18.2212579 -15.75671387 15.32528687 C-18.09605435 11.75918635 -18.26118917 9.83306951 -17.51367188 5.64697266 C-13.1510279 -1.00346024 -7.19821176 -0.06075665 0 0 Z " fill="#000000" transform="translate(298.513671875,231.35302734375)"/>
<path d="M0 0 C1.11880051 -0.0112793 2.23760101 -0.02255859 3.39030457 -0.03417969 C5.22477898 -0.0220343 5.22477898 -0.0220343 7.09631348 -0.00964355 C9.03338921 -0.02015747 9.03338921 -0.02015747 11.00959778 -0.03088379 C14.54892562 -0.04911466 18.08778692 -0.04205099 21.62712288 -0.02936745 C25.33150614 -0.01923837 29.03584954 -0.02863286 32.74023438 -0.03491211 C38.96105113 -0.04218882 45.18167791 -0.03260033 51.40246582 -0.0135498 C58.59397591 0.00821917 65.7850324 0.0011678 72.97653151 -0.02085543 C79.15160997 -0.03900889 85.3265519 -0.04156807 91.50164843 -0.03110075 C95.18950365 -0.02486545 98.87714567 -0.02403097 102.56498718 -0.0372467 C106.67596286 -0.05094979 110.78615689 -0.0319566 114.89709473 -0.00964355 C116.12007767 -0.01774048 117.34306061 -0.0258374 118.60310364 -0.03417969 C120.2813044 -0.01726074 120.2813044 -0.01726074 121.9934082 0 C122.96531349 0.0015081 123.93721878 0.0030162 124.93857574 0.00457001 C128.22614578 0.65146728 129.42070014 1.93542537 131.4967041 4.50793457 C132.22475361 7.24882685 132.07113651 9.73814663 131.4967041 12.50793457 C129.2892973 15.47651614 128.01073037 16.33659248 124.4967041 17.50793457 C122.78254028 17.60222266 121.06492728 17.63854471 119.34817505 17.64164734 C118.28267929 17.64591232 117.21718353 17.65017731 116.11940002 17.65457153 C114.36604591 17.65389175 114.36604591 17.65389175 112.57727051 17.65319824 C110.73060539 17.65823616 110.73060539 17.65823616 108.84663391 17.66337585 C105.46846557 17.67125616 102.09035869 17.67455391 98.71218538 17.67519164 C95.89165586 17.67614121 93.07113224 17.6798201 90.25060499 17.68336374 C83.5953303 17.69150781 76.94006914 17.69394803 70.28479004 17.6932373 C63.42120022 17.69263664 56.55768902 17.70318632 49.6941191 17.71898097 C43.8001826 17.73206058 37.90627178 17.73742102 32.01232088 17.7367819 C28.49269941 17.73652701 24.9731478 17.73937269 21.4535408 17.74995995 C17.52730493 17.76144775 13.60117671 17.7568915 9.67492676 17.75085449 C8.51007248 17.756474 7.3452182 17.76209351 6.14506531 17.7678833 C5.0739299 17.76368881 4.00279449 17.75949432 2.89920044 17.75517273 C1.97116419 17.7557175 1.04312794 17.75626226 0.08696938 17.75682354 C-2.81567215 17.4779195 -4.90979116 16.83686064 -7.5032959 15.50793457 C-9.64620609 12.29356928 -9.80355381 10.33366848 -9.9642334 6.54309082 C-8.77193873 1.27880675 -4.90062583 0.00760429 0 0 Z " fill="#000000" transform="translate(290.5032958984375,194.4920654296875)"/>
<path d="M0 0 C1.04715179 -0.00571014 2.09430359 -0.01142029 3.17318726 -0.01730347 C4.31665115 -0.01842133 5.46011505 -0.01953918 6.63822937 -0.02069092 C7.84676575 -0.02565582 9.05530212 -0.03062073 10.30046082 -0.03573608 C13.61258795 -0.0478329 16.92465205 -0.05529974 20.23679376 -0.05974674 C22.30796278 -0.0626818 24.37912633 -0.06678742 26.45029259 -0.07125092 C32.93601337 -0.08491869 39.42172156 -0.09458889 45.90745574 -0.09845281 C53.38410222 -0.10293206 60.86056574 -0.12047669 68.33715659 -0.1494534 C74.12328981 -0.171097 79.90937165 -0.18115851 85.6955449 -0.18249393 C89.14818914 -0.18354003 92.60066123 -0.18940621 96.05326271 -0.20731354 C99.90716531 -0.22691414 103.76084069 -0.22249457 107.61479187 -0.21600342 C109.32087868 -0.22982559 109.32087868 -0.22982559 111.06143188 -0.243927 C117.06927684 -0.21223105 121.55767989 0.1275502 126.82060242 3.14044189 C128.38531474 6.26986655 128.517622 9.75126413 127.82060242 13.14044189 C125.75076917 15.72075811 124.55137836 16.99664664 121.26247406 17.64380646 C120.29056877 17.64531456 119.31866348 17.64682266 118.31730652 17.64837646 C116.63910576 17.66529541 116.63910576 17.66529541 114.92700195 17.68255615 C113.09252754 17.67041077 113.09252754 17.67041077 111.22099304 17.65802002 C109.28391731 17.66853394 109.28391731 17.66853394 107.30770874 17.67926025 C103.7683809 17.69749112 100.2295196 17.69042746 96.69018364 17.67774391 C92.98580038 17.66761484 89.28145698 17.67700932 85.57707214 17.68328857 C79.35625539 17.69056528 73.13562861 17.68097679 66.9148407 17.66192627 C59.7233306 17.6401573 52.53227411 17.64720866 45.34077501 17.66923189 C39.16569655 17.68738535 32.99075462 17.68994454 26.81565809 17.67947721 C23.12780287 17.67324191 19.44016085 17.67240744 15.75231934 17.68562317 C11.64134366 17.69932625 7.53114963 17.68033306 3.42021179 17.65802002 C2.19722885 17.66611694 0.97424591 17.67421387 -0.28579712 17.68255615 C-1.40459763 17.67127686 -2.52339813 17.65999756 -3.67610168 17.64837646 C-4.64800697 17.64686836 -5.61991226 17.64536026 -6.62126923 17.64380646 C-9.90883926 16.99690919 -11.10339362 15.7129511 -13.17939758 13.14044189 C-13.90778729 10.39826888 -13.74853753 7.91215344 -13.17939758 5.14044189 C-9.66024332 0.23876275 -5.70186811 0.01865883 0 0 Z " fill="#000000" transform="translate(294.1793975830078,268.85955810546875)"/>
<path d="M0 0 C1.73006035 -0.0131424 1.73006035 -0.0131424 3.49507141 -0.02655029 C7.3076438 -0.04855708 11.11905644 -0.03398533 14.93164062 -0.01708984 C17.5805404 -0.02045758 20.22940494 -0.02530214 22.8782959 -0.03158569 C28.4298967 -0.04067507 33.98116462 -0.02871349 39.53271484 -0.00488281 C45.94556337 0.02232769 52.35761703 0.01351298 58.7704463 -0.01401484 C64.28232599 -0.03672566 69.79396679 -0.03989655 75.30587816 -0.02682149 C78.59532422 -0.01903753 81.88431603 -0.01992678 85.17375183 -0.03450394 C88.84164301 -0.04719074 92.50800415 -0.02786225 96.17578125 0 C97.80614067 -0.01518173 97.80614067 -0.01518173 99.46943665 -0.03067017 C106.80264663 0.07262539 106.80264663 0.07262539 110.76208496 2.96865845 C113.18789458 6.52713156 113.34209131 8.42344881 112.58789062 12.64697266 C110.53391833 15.65998948 108.90099051 17.38844728 105.24226379 18.10878372 C102.20981619 18.30038802 99.21425593 18.32223926 96.17578125 18.29394531 C94.4457209 18.30708771 94.4457209 18.30708771 92.68070984 18.32049561 C88.86813745 18.34250239 85.05672481 18.32793064 81.24414062 18.31103516 C78.59524085 18.31440289 75.94637631 18.31924745 73.29748535 18.32553101 C67.74588455 18.33462038 62.19461663 18.32265881 56.64306641 18.29882812 C50.23021788 18.27161762 43.81816422 18.28043233 37.40533495 18.30796015 C31.89345526 18.33067097 26.38181446 18.33384186 20.86990309 18.32076681 C17.58045703 18.31298284 14.29146522 18.3138721 11.00202942 18.32844925 C7.33413824 18.34113605 3.6677771 18.32180756 0 18.29394531 C-1.63035942 18.30912704 -1.63035942 18.30912704 -3.2936554 18.32461548 C-10.62686538 18.22131992 -10.62686538 18.22131992 -14.58630371 15.32528687 C-17.01211333 11.76681375 -17.16631006 9.87049651 -16.41210938 5.64697266 C-12.09439472 -0.68677728 -7.00387936 -0.06521937 0 0 Z " fill="#000000" transform="translate(189.412109375,351.35302734375)"/>
<path d="M0 0 C1.01783066 -0.0112793 2.03566132 -0.02255859 3.08433533 -0.03417969 C4.75049644 -0.0220343 4.75049644 -0.0220343 6.45031738 -0.00964355 C7.62465836 -0.01665283 8.79899933 -0.02366211 10.00892639 -0.03088379 C13.22602047 -0.04547028 16.44245602 -0.04205486 19.65954018 -0.02936745 C23.02759806 -0.01923384 26.39561225 -0.02863411 29.76367188 -0.03491211 C35.41955452 -0.04218752 41.07522819 -0.03260382 46.7310791 -0.0135498 C53.26822581 0.00821901 59.8048735 0.00116755 66.34200811 -0.02085543 C71.9565856 -0.03901267 77.57101293 -0.04156625 83.18561029 -0.03110075 C86.53812495 -0.02486749 89.89040511 -0.02402524 93.24290466 -0.0372467 C96.98035631 -0.04738249 100.71684396 -0.03195082 104.45422363 -0.00964355 C105.56499771 -0.01774048 106.67577179 -0.0258374 107.82020569 -0.03417969 C109.34695168 -0.01726074 109.34695168 -0.01726074 110.90454102 0 C112.22966076 0.00226215 112.22966076 0.00226215 113.5815506 0.00457001 C116.72753902 0.67254393 117.94117744 2.05716919 119.95227051 4.50793457 C120.68032002 7.24882685 120.52670291 9.73814663 119.95227051 12.50793457 C117.7448637 15.47651614 116.46629678 16.33659248 112.95227051 17.50793457 C111.39240744 17.60335959 109.8288063 17.64282571 108.26603699 17.64837646 C106.82141586 17.65694168 106.82141586 17.65694168 105.34761047 17.66567993 C104.29248764 17.66679779 103.23736481 17.66791565 102.15026855 17.66906738 C101.03780762 17.67403229 99.92534668 17.67899719 98.7791748 17.68411255 C95.09077338 17.69874421 91.40241496 17.70553785 87.71398926 17.71105957 C85.15432229 17.71681016 82.59465534 17.72256791 80.0349884 17.72833252 C75.35082663 17.73750112 70.66667779 17.74380029 65.98250932 17.74682927 C59.09446127 17.75130817 52.20661185 17.76884942 45.3186242 17.79782987 C39.3476332 17.8220776 33.37669152 17.82977489 27.40564919 17.83150482 C24.86791719 17.83453332 22.33018607 17.84256842 19.79248619 17.85569 C16.24232293 17.87273634 12.69264359 17.87087339 9.14245605 17.86437988 C8.09340591 17.87359467 7.04435577 17.88280945 5.96351624 17.89230347 C0.56406867 17.86135225 -3.4239585 17.64389083 -8.04772949 14.50793457 C-9.61244182 11.37850992 -9.74474907 7.89711234 -9.04772949 4.50793457 C-6.19812037 1.01463786 -4.49185285 0.00766818 0 0 Z " fill="#000000" transform="translate(182.0477294921875,314.4920654296875)"/>
<path d="M0 0 C1.01783066 -0.0112793 2.03566132 -0.02255859 3.08433533 -0.03417969 C4.75049644 -0.0220343 4.75049644 -0.0220343 6.45031738 -0.00964355 C7.62465836 -0.01665283 8.79899933 -0.02366211 10.00892639 -0.03088379 C13.22602047 -0.04547028 16.44245602 -0.04205486 19.65954018 -0.02936745 C23.02759806 -0.01923384 26.39561225 -0.02863411 29.76367188 -0.03491211 C35.41955452 -0.04218752 41.07522819 -0.03260382 46.7310791 -0.0135498 C53.26822581 0.00821901 59.8048735 0.00116755 66.34200811 -0.02085543 C71.9565856 -0.03901267 77.57101293 -0.04156625 83.18561029 -0.03110075 C86.53812495 -0.02486749 89.89040511 -0.02402524 93.24290466 -0.0372467 C96.98035631 -0.04738249 100.71684396 -0.03195082 104.45422363 -0.00964355 C105.56499771 -0.01774048 106.67577179 -0.0258374 107.82020569 -0.03417969 C109.34695168 -0.01726074 109.34695168 -0.01726074 110.90454102 0 C112.22966076 0.00226215 112.22966076 0.00226215 113.5815506 0.00457001 C116.72753902 0.67254393 117.94117744 2.05716919 119.95227051 4.50793457 C120.48352051 6.50793457 120.48352051 6.50793457 120.45227051 8.50793457 C120.46773926 9.49793457 120.46773926 9.49793457 120.48352051 10.50793457 C119.7123133 13.41130288 118.23648766 14.59957022 115.95227051 16.50793457 C113.5815506 17.01129913 113.5815506 17.01129913 110.90454102 17.01586914 C109.88671036 17.02714844 108.8688797 17.03842773 107.82020569 17.05004883 C106.15404457 17.03790344 106.15404457 17.03790344 104.45422363 17.0255127 C102.69271217 17.03602661 102.69271217 17.03602661 100.89561462 17.04675293 C97.67852055 17.06133942 94.462085 17.057924 91.24500084 17.04523659 C87.87694295 17.03510298 84.50892877 17.04450325 81.14086914 17.05078125 C75.48498649 17.05805666 69.82931283 17.04847296 64.17346191 17.02941895 C57.63631521 17.00765013 51.09966752 17.01470159 44.5625329 17.03672457 C38.94795542 17.05488181 33.33352808 17.0574354 27.71893072 17.04696989 C24.36641607 17.04073663 21.0141359 17.03989438 17.66163635 17.05311584 C13.92418471 17.06325163 10.18769706 17.04781996 6.45031738 17.0255127 C5.3395433 17.03360962 4.22876923 17.04170654 3.08433533 17.05004883 C2.06650467 17.03876953 1.04867401 17.02749023 0 17.01586914 C-1.32511974 17.01360699 -1.32511974 17.01360699 -2.67700958 17.01129913 C-5.82299801 16.34332521 -7.03663642 14.95869995 -9.04772949 12.50793457 C-9.57897949 10.50793457 -9.57897949 10.50793457 -9.54772949 8.50793457 C-9.56319824 7.51793457 -9.56319824 7.51793457 -9.57897949 6.50793457 C-8.2680638 1.57272254 -4.76198463 0.00812933 0 0 Z " fill="#000000" transform="translate(182.0477294921875,389.4920654296875)"/>
</svg>
