<?xml version="1.0" encoding="UTF-8"?>
<svg version="1.1" xmlns="http://www.w3.org/2000/svg" width="512" height="512">
<path d="M0 0 C3.66964834 3.43032345 6.67971318 7.23893164 9.7265625 11.2265625 C12.51690385 14.42277168 14.25778232 15.52138096 18.4609375 15.953125 C24.29857491 15.95413586 24.29857491 15.95413586 29.9375 14.625 C35.42027891 12.87517694 40.69370057 13.64289355 45.8359375 16.10546875 C50.0999846 19.72826455 52.05440353 23.903447 54.5 28.875 C55.27150391 30.39891357 55.27150391 30.39891357 56.05859375 31.95361328 C57.68589747 35.18792891 59.28524426 38.43457777 60.875 41.6875 C61.37870117 42.71794434 61.88240234 43.74838867 62.40136719 44.81005859 C65.43215586 51.03869507 68.4156829 57.28914494 71.38378906 63.54785156 C73.82379418 68.68512494 76.287364 73.81104689 78.75 78.9375 C79.23911865 79.95682617 79.7282373 80.97615234 80.23217773 82.02636719 C83.82312341 89.50745551 87.42892705 96.98131476 91.03918457 104.45309448 C93.65310865 109.86360476 96.26441144 115.27537962 98.875 120.6875 C99.36887207 121.71117676 99.86274414 122.73485352 100.37158203 123.78955078 C103.08585956 129.42155945 105.77702762 135.06388507 108.45263672 140.71435547 C110.01935086 143.98923442 111.62128316 147.24584573 113.22265625 150.50390625 C114.33671412 152.81472991 115.45001045 155.1259209 116.5625 157.4375 C117.35744873 159.02630981 117.35744873 159.02630981 118.16845703 160.6472168 C121.39820203 167.43805909 122.91598395 173.14883948 121.875 180.6875 C119.84202349 185.52792027 116.34626751 187.95027557 112.3125 191.125 C107.74917651 194.76834773 105.12843751 196.9425781 103.875 202.6875 C104.05624324 206.37277912 104.5779065 209.54710381 105.50390625 213.1015625 C107.05171461 219.39014238 106.84930573 223.83971246 103.875 229.6875 C103.215 230.3475 102.555 231.0075 101.875 231.6875 C102.18079621 238.65941044 104.8088084 245.29338343 106.91015625 251.890625 C107.31320584 253.1767768 107.71532453 254.46322065 108.11656189 255.74993896 C109.81130259 261.18228214 111.51465537 266.61180212 113.23950195 272.03466797 C114.29806486 275.3648788 115.34103749 278.69965102 116.3746624 282.03768158 C116.95725137 283.9037814 117.55654032 285.76464173 118.15626526 287.62530518 C120.65629844 295.72994275 123.09590231 304.16343974 119.1875 312.125 C115.82942145 315.84611407 112.46897864 318.64573171 107.875 320.6875 C109.02480435 324.55502373 110.52310998 328.1155607 112.25 331.75 C125.39622291 360.4783636 125.52955002 394.61449926 114.7265625 424.10546875 C102.82120089 454.57768152 79.7602015 479.24795772 49.875 492.6875 C31.48109068 500.38597792 13.25437935 502.83565804 -6.56518555 502.84863281 C-8.22178252 502.85326816 -9.87837844 502.85829377 -11.53497314 502.86367798 C-16.01197262 502.87672607 -20.48895717 502.8832308 -24.96597266 502.88768864 C-27.76532486 502.89062879 -30.56467305 502.89473511 -33.36402321 502.89919281 C-42.13016543 502.91284133 -50.89629839 502.9225236 -59.66245049 502.9263947 C-69.76973955 502.9308835 -79.87689391 502.94848046 -89.98414201 502.9773953 C-97.80940836 502.99900348 -105.63463675 503.00909835 -113.45993263 503.01043582 C-118.12920662 503.01148351 -122.79835354 503.01738502 -127.46759605 503.03525543 C-131.8548485 503.05172346 -136.24187807 503.05389785 -140.62915039 503.04511642 C-142.2375886 503.04434565 -143.84603875 503.04869414 -145.45444679 503.05857468 C-147.65261036 503.07128554 -149.84998316 503.06542302 -152.04814148 503.05499268 C-153.89170746 503.05719252 -153.89170746 503.05719252 -155.7725172 503.0594368 C-162.00989903 502.36743867 -166.15261383 499.43229459 -170.125 494.6875 C-172.79486679 489.469124 -172.72359499 484.23414018 -171.125 478.6875 C-168.90167761 474.66937266 -166.04036688 471.21509393 -163.125 467.6875 C-162.02980137 466.32929184 -160.93614717 464.96983738 -159.84375 463.609375 C-157.09366135 460.19539171 -154.32249756 456.79963628 -151.53515625 453.41601562 C-150.29923397 451.90106934 -149.0924179 450.36247331 -147.890625 448.8203125 C-144.94898664 445.26691749 -141.59269334 443.54839234 -137.125 442.6875 C-134.73666853 442.53889192 -132.34509126 442.43971573 -129.953125 442.37109375 C-129.2707074 442.35031265 -128.58828979 442.32953156 -127.88519287 442.30812073 C-125.71522644 442.24297948 -123.54514376 442.18390596 -121.375 442.125 C-119.89972779 442.08178103 -118.42446713 442.03816568 -116.94921875 441.99414062 C-113.34126834 441.88733482 -109.73318867 441.78596847 -106.125 441.6875 C-106.69089844 440.55570312 -107.25679688 439.42390625 -107.83984375 438.2578125 C-111.48242188 430.97265625 -111.48242188 430.97265625 -115.125 423.6875 C-125.50050184 426.8525234 -135.87541535 430.01947161 -146.25 433.1875 C-147.43413546 433.54907448 -147.43413546 433.54907448 -148.64219284 433.91795349 C-168.77662521 440.06628711 -188.90656953 446.22897737 -209.02734375 452.421875 C-209.91941025 452.69643524 -210.81147675 452.97099548 -211.73057556 453.25387573 C-220.45820293 455.94029857 -229.18533525 458.62832452 -237.91179943 461.31852341 C-241.14961601 462.3165729 -244.38758826 463.3141167 -247.62558174 464.3115921 C-249.84348915 464.99508033 -252.06114671 465.6793747 -254.27879333 466.3637085 C-255.62343086 466.77799546 -256.96808042 467.19224337 -258.31274414 467.60644531 C-259.46569473 467.962005 -260.61864532 468.3175647 -261.80653381 468.68389893 C-277.13250089 473.31891889 -277.13250089 473.31891889 -284.375 470 C-289.32606189 467.22469773 -291.70102148 463.65009393 -294.125 458.625 C-296.12204844 454.56203939 -297.6931427 451.52402234 -302.203125 449.97265625 C-306.55551975 448.87014566 -309.74209012 448.56367695 -314.125 449.6875 C-320.39774828 450.08576973 -324.61489924 449.76837082 -329.56335449 445.42503357 C-334.74043396 439.97081071 -336.44945605 433.75955045 -338.53125 426.66015625 C-338.93196315 425.3414914 -339.33427645 424.02331192 -339.73805237 422.70558167 C-340.82676869 419.1372842 -341.89387538 415.56285075 -342.95729446 411.98694611 C-344.08160025 408.22029852 -345.22606799 404.45979095 -346.36889648 400.69873047 C-348.05275777 395.15067364 -349.73000814 389.60069181 -351.39931011 384.04823685 C-354.64847785 373.24118851 -357.94309688 362.44846184 -361.25390625 351.66015625 C-361.75815922 350.01618902 -362.26238099 348.37221223 -362.76657104 346.72822571 C-363.51150975 344.29932072 -364.2564589 341.87041895 -365.00149727 339.44154453 C-367.34710513 331.79404849 -369.68973573 324.14565079 -372.02476311 316.49491692 C-372.43838609 315.1403395 -372.85245231 313.78589732 -373.26703072 312.43161201 C-374.56611737 308.18744707 -375.85184614 303.93951515 -377.125 299.6875 C-377.31374065 299.05876732 -377.50248131 298.43003464 -377.69694138 297.78224945 C-378.2615693 295.89226182 -378.81728168 293.99961801 -379.37280273 292.10693359 C-379.69796371 291.00352631 -380.02312469 289.90011902 -380.35813904 288.76327515 C-381.83109381 282.85545364 -382.29275912 277.36281539 -379.5 271.8125 C-375.73767 266.86206579 -372.17060292 264.73090355 -366.125 263.6875 C-367.92031244 259.80919668 -369.71682184 255.93145073 -371.5144043 252.05419922 C-372.12475337 250.73729159 -372.73478484 249.42023672 -373.34448242 248.10302734 C-374.22489702 246.20110145 -375.10648246 244.29972196 -375.98828125 242.3984375 C-376.51719971 241.25681152 -377.04611816 240.11518555 -377.59106445 238.93896484 C-378.62155993 236.7546359 -379.69006414 234.58787329 -380.79394531 232.43969727 C-382.98967187 227.8996339 -382.73665305 223.616704 -382.125 218.6875 C-379.81872008 212.39764569 -376.09002082 209.92909178 -370.46484375 206.4609375 C-366.66888919 203.58387011 -365.35324059 200.63306814 -364.25 196.0625 C-363.87754361 192.45983088 -364.59604823 189.74693489 -365.6875 186.3125 C-367.3619967 180.74884968 -367.45505452 176.08016407 -365.125 170.6875 C-361.10554769 164.84580164 -356.49950764 162.43789465 -350.1640625 159.45703125 C-349.18247162 158.98110031 -348.20088074 158.50516937 -347.18954468 158.01481628 C-344.04938513 156.49625167 -340.90006107 154.99789901 -337.75 153.5 C-335.70248974 152.51368746 -333.6556086 151.5260678 -331.609375 150.53710938 C-326.48190394 148.06336801 -321.34644217 145.60679684 -316.2074585 143.15707397 C-311.13094336 140.73682581 -306.05786413 138.30939573 -300.984375 135.8828125 C-299.54650635 135.19545013 -299.54650635 135.19545013 -298.07958984 134.49420166 C-290.62753345 130.9310005 -283.18564946 127.34732953 -275.75 123.75 C-273.27363177 122.55298313 -270.79702506 121.35646048 -268.3203125 120.16015625 C-267.71145203 119.86605865 -267.10259155 119.57196106 -266.47528076 119.26895142 C-260.53004653 116.3983256 -254.57810371 113.54176052 -248.625 110.6875 C-239.61792856 106.36875434 -230.61920256 102.03296035 -221.625 97.6875 C-211.61661053 92.85204523 -201.60081793 88.03231527 -191.578125 83.2265625 C-183.58735054 79.3934245 -175.60501525 75.54296575 -167.625 71.6875 C-157.61808519 66.8527577 -147.60385174 62.03356316 -137.58251953 57.22875977 C-129.54819597 53.3749128 -121.52312844 49.5020749 -113.5 45.625 C-103.96261692 41.01626457 -94.41618476 36.42712803 -84.85571289 31.86645508 C-79.64222384 29.37713963 -74.43649051 26.87264725 -69.23828125 24.3515625 C-56.7412593 18.29106656 -44.22233834 12.28722026 -31.625 6.4375 C-30.44397705 5.88852051 -29.2629541 5.33954102 -28.04614258 4.77392578 C-9.2928901 -3.90301384 -9.2928901 -3.90301384 0 0 Z " fill="#FCDA00" transform="translate(386.125,1.3125)"/>
<path d="M0 0 C3.66964834 3.43032345 6.67971318 7.23893164 9.7265625 11.2265625 C12.51690385 14.42277168 14.25778232 15.52138096 18.4609375 15.953125 C24.29857491 15.95413586 24.29857491 15.95413586 29.9375 14.625 C35.42027891 12.87517694 40.69370057 13.64289355 45.8359375 16.10546875 C50.0999846 19.72826455 52.05440353 23.903447 54.5 28.875 C55.27150391 30.39891357 55.27150391 30.39891357 56.05859375 31.95361328 C57.68589747 35.18792891 59.28524426 38.43457777 60.875 41.6875 C61.37870117 42.71794434 61.88240234 43.74838867 62.40136719 44.81005859 C65.43215586 51.03869507 68.4156829 57.28914494 71.38378906 63.54785156 C73.82379418 68.68512494 76.287364 73.81104689 78.75 78.9375 C79.23911865 79.95682617 79.7282373 80.97615234 80.23217773 82.02636719 C83.82312341 89.50745551 87.42892705 96.98131476 91.03918457 104.45309448 C93.65310865 109.86360476 96.26441144 115.27537962 98.875 120.6875 C99.36887207 121.71117676 99.86274414 122.73485352 100.37158203 123.78955078 C103.08585956 129.42155945 105.77702762 135.06388507 108.45263672 140.71435547 C110.01935086 143.98923442 111.62128316 147.24584573 113.22265625 150.50390625 C114.33671412 152.81472991 115.45001045 155.1259209 116.5625 157.4375 C117.35744873 159.02630981 117.35744873 159.02630981 118.16845703 160.6472168 C121.39820203 167.43805909 122.91598395 173.14883948 121.875 180.6875 C119.84202349 185.52792027 116.34626751 187.95027557 112.3125 191.125 C107.74917651 194.76834773 105.12843751 196.9425781 103.875 202.6875 C104.05624324 206.37277912 104.5779065 209.54710381 105.50390625 213.1015625 C107.05171461 219.39014238 106.84930573 223.83971246 103.875 229.6875 C103.215 230.3475 102.555 231.0075 101.875 231.6875 C102.18079621 238.65941044 104.8088084 245.29338343 106.91015625 251.890625 C107.31320584 253.1767768 107.71532453 254.46322065 108.11656189 255.74993896 C109.81130259 261.18228214 111.51465537 266.61180212 113.23950195 272.03466797 C114.29806486 275.3648788 115.34103749 278.69965102 116.3746624 282.03768158 C116.95725137 283.9037814 117.55654032 285.76464173 118.15626526 287.62530518 C120.65629844 295.72994275 123.09590231 304.16343974 119.1875 312.125 C115.82942145 315.84611407 112.46897864 318.64573171 107.875 320.6875 C109.02480435 324.55502373 110.52310998 328.1155607 112.25 331.75 C125.39622291 360.4783636 125.52955002 394.61449926 114.7265625 424.10546875 C102.82120089 454.57768152 79.7602015 479.24795772 49.875 492.6875 C31.48109068 500.38597792 13.25437935 502.83565804 -6.56518555 502.84863281 C-8.22178252 502.85326816 -9.87837844 502.85829377 -11.53497314 502.86367798 C-16.01197262 502.87672607 -20.48895717 502.8832308 -24.96597266 502.88768864 C-27.76532486 502.89062879 -30.56467305 502.89473511 -33.36402321 502.89919281 C-42.13016543 502.91284133 -50.89629839 502.9225236 -59.66245049 502.9263947 C-69.76973955 502.9308835 -79.87689391 502.94848046 -89.98414201 502.9773953 C-97.80940836 502.99900348 -105.63463675 503.00909835 -113.45993263 503.01043582 C-118.12920662 503.01148351 -122.79835354 503.01738502 -127.46759605 503.03525543 C-131.8548485 503.05172346 -136.24187807 503.05389785 -140.62915039 503.04511642 C-142.2375886 503.04434565 -143.84603875 503.04869414 -145.45444679 503.05857468 C-147.65261036 503.07128554 -149.84998316 503.06542302 -152.04814148 503.05499268 C-153.89170746 503.05719252 -153.89170746 503.05719252 -155.7725172 503.0594368 C-162.00989903 502.36743867 -166.15261383 499.43229459 -170.125 494.6875 C-172.79486679 489.469124 -172.72359499 484.23414018 -171.125 478.6875 C-168.90167761 474.66937266 -166.04036688 471.21509393 -163.125 467.6875 C-162.02980137 466.32929184 -160.93614717 464.96983738 -159.84375 463.609375 C-157.09366135 460.19539171 -154.32249756 456.79963628 -151.53515625 453.41601562 C-150.29923397 451.90106934 -149.0924179 450.36247331 -147.890625 448.8203125 C-144.94898664 445.26691749 -141.59269334 443.54839234 -137.125 442.6875 C-134.73666853 442.53889192 -132.34509126 442.43971573 -129.953125 442.37109375 C-129.2707074 442.35031265 -128.58828979 442.32953156 -127.88519287 442.30812073 C-125.71522644 442.24297948 -123.54514376 442.18390596 -121.375 442.125 C-119.89972779 442.08178103 -118.42446713 442.03816568 -116.94921875 441.99414062 C-113.34126834 441.88733482 -109.73318867 441.78596847 -106.125 441.6875 C-106.69089844 440.55570312 -107.25679688 439.42390625 -107.83984375 438.2578125 C-111.48242188 430.97265625 -111.48242188 430.97265625 -115.125 423.6875 C-125.50050184 426.8525234 -135.87541535 430.01947161 -146.25 433.1875 C-147.43413546 433.54907448 -147.43413546 433.54907448 -148.64219284 433.91795349 C-168.77662521 440.06628711 -188.90656953 446.22897737 -209.02734375 452.421875 C-209.91941025 452.69643524 -210.81147675 452.97099548 -211.73057556 453.25387573 C-220.45820293 455.94029857 -229.18533525 458.62832452 -237.91179943 461.31852341 C-241.14961601 462.3165729 -244.38758826 463.3141167 -247.62558174 464.3115921 C-249.84348915 464.99508033 -252.06114671 465.6793747 -254.27879333 466.3637085 C-255.62343086 466.77799546 -256.96808042 467.19224337 -258.31274414 467.60644531 C-259.46569473 467.962005 -260.61864532 468.3175647 -261.80653381 468.68389893 C-277.13250089 473.31891889 -277.13250089 473.31891889 -284.375 470 C-289.32606189 467.22469773 -291.70102148 463.65009393 -294.125 458.625 C-296.12204844 454.56203939 -297.6931427 451.52402234 -302.203125 449.97265625 C-306.55551975 448.87014566 -309.74209012 448.56367695 -314.125 449.6875 C-320.39774828 450.08576973 -324.61489924 449.76837082 -329.56335449 445.42503357 C-334.74043396 439.97081071 -336.44945605 433.75955045 -338.53125 426.66015625 C-338.93196315 425.3414914 -339.33427645 424.02331192 -339.73805237 422.70558167 C-340.82676869 419.1372842 -341.89387538 415.56285075 -342.95729446 411.98694611 C-344.08160025 408.22029852 -345.22606799 404.45979095 -346.36889648 400.69873047 C-348.05275777 395.15067364 -349.73000814 389.60069181 -351.39931011 384.04823685 C-354.64847785 373.24118851 -357.94309688 362.44846184 -361.25390625 351.66015625 C-361.75815922 350.01618902 -362.26238099 348.37221223 -362.76657104 346.72822571 C-363.51150975 344.29932072 -364.2564589 341.87041895 -365.00149727 339.44154453 C-367.34710513 331.79404849 -369.68973573 324.14565079 -372.02476311 316.49491692 C-372.43838609 315.1403395 -372.85245231 313.78589732 -373.26703072 312.43161201 C-374.56611737 308.18744707 -375.85184614 303.93951515 -377.125 299.6875 C-377.31374065 299.05876732 -377.50248131 298.43003464 -377.69694138 297.78224945 C-378.2615693 295.89226182 -378.81728168 293.99961801 -379.37280273 292.10693359 C-379.69796371 291.00352631 -380.02312469 289.90011902 -380.35813904 288.76327515 C-381.83109381 282.85545364 -382.29275912 277.36281539 -379.5 271.8125 C-375.73767 266.86206579 -372.17060292 264.73090355 -366.125 263.6875 C-367.92031244 259.80919668 -369.71682184 255.93145073 -371.5144043 252.05419922 C-372.12475337 250.73729159 -372.73478484 249.42023672 -373.34448242 248.10302734 C-374.22489702 246.20110145 -375.10648246 244.29972196 -375.98828125 242.3984375 C-376.51719971 241.25681152 -377.04611816 240.11518555 -377.59106445 238.93896484 C-378.62155993 236.7546359 -379.69006414 234.58787329 -380.79394531 232.43969727 C-382.98967187 227.8996339 -382.73665305 223.616704 -382.125 218.6875 C-379.81872008 212.39764569 -376.09002082 209.92909178 -370.46484375 206.4609375 C-366.66888919 203.58387011 -365.35324059 200.63306814 -364.25 196.0625 C-363.87754361 192.45983088 -364.59604823 189.74693489 -365.6875 186.3125 C-367.3619967 180.74884968 -367.45505452 176.08016407 -365.125 170.6875 C-361.10554769 164.84580164 -356.49950764 162.43789465 -350.1640625 159.45703125 C-349.18247162 158.98110031 -348.20088074 158.50516937 -347.18954468 158.01481628 C-344.04938513 156.49625167 -340.90006107 154.99789901 -337.75 153.5 C-335.70248974 152.51368746 -333.6556086 151.5260678 -331.609375 150.53710938 C-326.48190394 148.06336801 -321.34644217 145.60679684 -316.2074585 143.15707397 C-311.13094336 140.73682581 -306.05786413 138.30939573 -300.984375 135.8828125 C-299.54650635 135.19545013 -299.54650635 135.19545013 -298.07958984 134.49420166 C-290.62753345 130.9310005 -283.18564946 127.34732953 -275.75 123.75 C-273.27363177 122.55298313 -270.79702506 121.35646048 -268.3203125 120.16015625 C-267.71145203 119.86605865 -267.10259155 119.57196106 -266.47528076 119.26895142 C-260.53004653 116.3983256 -254.57810371 113.54176052 -248.625 110.6875 C-239.61792856 106.36875434 -230.61920256 102.03296035 -221.625 97.6875 C-211.61661053 92.85204523 -201.60081793 88.03231527 -191.578125 83.2265625 C-183.58735054 79.3934245 -175.60501525 75.54296575 -167.625 71.6875 C-157.61808519 66.8527577 -147.60385174 62.03356316 -137.58251953 57.22875977 C-129.54819597 53.3749128 -121.52312844 49.5020749 -113.5 45.625 C-103.96261692 41.01626457 -94.41618476 36.42712803 -84.85571289 31.86645508 C-79.64222384 29.37713963 -74.43649051 26.87264725 -69.23828125 24.3515625 C-56.7412593 18.29106656 -44.22233834 12.28722026 -31.625 6.4375 C-30.44397705 5.88852051 -29.2629541 5.33954102 -28.04614258 4.77392578 C-9.2928901 -3.90301384 -9.2928901 -3.90301384 0 0 Z M-15.85546875 18.36328125 C-17.63050781 19.22566406 -17.63050781 19.22566406 -19.44140625 20.10546875 C-20.73177609 20.73696843 -22.02214054 21.36847912 -23.3125 22 C-24.64040297 22.64628972 -25.96853022 23.29211883 -27.296875 23.9375 C-29.31568527 24.91836958 -31.33437515 25.89947611 -33.35238647 26.88198853 C-39.09670841 29.67833873 -44.85761059 32.43904744 -50.625 35.1875 C-59.26150173 39.3095884 -67.88348255 43.46133835 -76.5 47.625 C-90.71025261 54.49140823 -104.93693379 61.32326029 -119.16796875 68.14648438 C-131.37010445 73.99757249 -143.56539271 79.86250656 -155.75 85.75 C-166.31374142 90.8542122 -176.8900656 95.93143748 -187.4765625 100.98828125 C-203.20721236 108.5026959 -218.9148704 116.06467632 -234.6116333 123.64956665 C-243.52517467 127.95622935 -252.44950009 132.23967994 -261.38330078 136.50415039 C-269.14109193 140.21014029 -276.88417958 143.94624641 -284.625 147.6875 C-295.19511228 152.7959161 -305.77751204 157.87790693 -316.37109375 162.9375 C-322.89695409 166.05473814 -329.41750578 169.18301464 -335.9375 172.3125 C-337.02450195 172.83408691 -338.11150391 173.35567383 -339.23144531 173.89306641 C-340.23401367 174.37437012 -341.23658203 174.85567383 -342.26953125 175.3515625 C-343.16003174 175.77904785 -344.05053223 176.2065332 -344.96801758 176.64697266 C-346.35830273 177.31764558 -347.74436392 177.99718196 -349.125 178.6875 C-348.795 179.71875 -348.465 180.75 -348.125 181.8125 C-345.99573106 190.5147296 -345.85085449 200.07840881 -349.65625 208.30078125 C-353.59411622 214.69981386 -358.52164237 220.06555252 -365.125 223.6875 C-357.48771557 241.32435203 -348.94495788 258.51983532 -340.4987793 275.77812195 C-336.07730789 284.81843563 -331.73967926 293.8978593 -327.4140625 302.984375 C-324.51786621 309.05761086 -321.60054619 315.12074249 -318.68725586 321.18579102 C-316.09167434 326.58977572 -313.49839723 331.99483878 -310.91015625 337.40234375 C-310.38091553 338.50723145 -309.8516748 339.61211914 -309.30639648 340.75048828 C-308.30640294 342.83831793 -307.30715349 344.92650422 -306.30883789 347.01513672 C-302.98862573 353.94382032 -299.58003704 360.82509726 -296.125 367.6875 C-295.09375 367.3575 -294.0625 367.0275 -293 366.6875 C-283.27016664 364.30679609 -272.83702397 364.42215218 -264.125 369.6875 C-259.07372392 373.45628698 -255.19720153 377.14983266 -252.125 382.6875 C-248.62536801 382.10056447 -245.75517983 381.19537814 -242.57421875 379.6328125 C-241.67010254 379.19332275 -240.76598633 378.75383301 -239.83447266 378.30102539 C-238.83722168 377.80981201 -237.8399707 377.31859863 -236.8125 376.8125 C-234.54352687 375.70848763 -232.27395358 374.60570818 -230.00390625 373.50390625 C-229.3880365 373.20433517 -228.77216675 372.9047641 -228.13763428 372.59611511 C-223.13636499 370.16693958 -218.11656681 367.77834196 -213.08984375 365.40234375 C-212.29909958 365.02848541 -211.50835541 364.65462708 -210.69364929 364.2694397 C-209.05196955 363.49332963 -207.41028138 362.7172374 -205.76858521 361.94116211 C-189.49337194 354.24381785 -173.29495767 346.39954222 -157.13330078 338.46676636 C-144.83879764 332.43461685 -132.50944678 326.50638548 -120.03417969 320.85595703 C-104.34291088 314.06724848 -104.34291088 314.06724848 -92.26171875 302.49609375 C-77.48608247 283.07437074 -55.30858516 270.31537658 -32.125 263.6875 C-31.33480469 263.45417969 -30.54460937 263.22085938 -29.73046875 262.98046875 C-23.18328156 261.18548055 -16.5436526 260.62927127 -9.77734375 260.65234375 C-8.84083984 260.64654297 -7.90433594 260.64074219 -6.93945312 260.63476562 C-5.04872424 260.62834767 -3.15768621 260.64839491 -1.26757812 260.69726562 C7.50545735 260.55971974 14.02893233 256.99477403 21.53994751 252.92697144 C25.84216052 250.64330965 30.23322231 248.53946023 34.61328125 246.41015625 C36.52556057 245.47495679 38.43766787 244.53940553 40.34960938 243.60351562 C41.79243286 242.89835815 41.79243286 242.89835815 43.2644043 242.17895508 C46.17369137 240.75675035 49.08198828 239.3325351 51.99023438 237.90820312 C53.90620348 236.97125904 55.82221872 236.03440928 57.73828125 235.09765625 C58.66883331 234.64162018 59.59938538 234.18558411 60.55813599 233.71572876 C65.17973817 231.45839938 69.81452938 229.24149721 74.48974609 227.09716797 C75.37357468 226.6892955 76.25740326 226.28142303 77.16801453 225.8611908 C78.83655613 225.09439869 80.50910573 224.33624965 82.18611145 223.58815002 C84.11961379 222.69799761 86.00351242 221.70156945 87.875 220.6875 C89.19777361 217.71044341 89.19777361 217.71044341 87.9375 214.8125 C85.13444029 205.39658816 86.35582245 197.03434648 90.88574219 188.45385742 C94.43169569 182.25549541 98.53552581 178.72602793 104.875 175.6875 C103.43156091 170.99281948 101.51677985 166.64776944 99.34765625 162.25390625 C99.00309387 161.54814957 98.65853149 160.84239288 98.30352783 160.11524963 C97.56681677 158.60722904 96.82843856 157.10002194 96.08853149 155.59356689 C94.53054919 152.42142454 92.98063089 149.24536634 91.43034363 146.06945801 C90.65503993 144.48128956 89.87933513 142.89331685 89.10322571 141.30554199 C86.09868951 135.15664842 83.12994902 128.99136084 80.1875 122.8125 C76.10985687 114.25793317 71.99919131 105.7196884 67.875 97.1875 C63.6499435 88.44546312 59.43568336 79.69848135 55.25 70.9375 C54.81695557 70.03161133 54.38391113 69.12572266 53.93774414 68.19238281 C52.04678234 64.23584415 50.15685499 60.27882097 48.27001953 56.3203125 C46.61954072 52.85840308 44.96618866 49.39787706 43.3125 45.9375 C42.79929199 44.85887695 42.28608398 43.78025391 41.75732422 42.66894531 C41.27924316 41.66959961 40.80116211 40.67025391 40.30859375 39.640625 C39.88634521 38.75536133 39.46409668 37.87009766 39.02905273 36.95800781 C37.83818288 34.50500284 37.83818288 34.50500284 35.875 31.6875 C34.6375 32.0175 33.4 32.3475 32.125 32.6875 C21.3266778 35.00263324 12.61459744 34.04357384 2.875 28.6875 C-2.40535975 25.22434513 -5.3212802 21.2949396 -8.125 15.6875 C-11.11397466 15.6875 -13.17617806 17.05535978 -15.85546875 18.36328125 Z " fill="#010100" transform="translate(386.125,1.3125)"/>
<path d="M0 0 C3.88445087 3.04476892 7.54396784 6.29286572 11.17138672 9.63769531 C11.83396484 10.2190625 12.49654297 10.80042969 13.17919922 11.39941406 C32.3508848 29.09978424 42.32893156 56.43029994 43.42529297 81.87597656 C43.76555629 93.69624856 42.75268031 104.36416728 39.17138672 115.63769531 C38.85790283 116.64606445 38.85790283 116.64606445 38.53808594 117.67480469 C30.13078761 143.99877998 12.55801156 163.48408784 -10.82861328 177.63769531 C-11.60978516 178.13269531 -12.39095703 178.62769531 -13.19580078 179.13769531 C-32.40308355 190.73454529 -59.96106803 193.8859992 -81.73095703 189.44628906 C-99.50235353 184.8073495 -115.97056343 177.95871638 -129.82861328 165.63769531 C-130.55951172 165.04859375 -131.29041016 164.45949219 -132.04345703 163.85253906 C-150.94315354 148.20797482 -163.14887163 123.6265732 -166.50439453 99.49707031 C-166.856925 95.30068357 -167.02069323 91.15962976 -167.01611328 86.95019531 C-167.01530762 86.16781494 -167.01450195 85.38543457 -167.01367188 84.5793457 C-166.94292293 77.79785124 -166.15202802 71.2917876 -164.82861328 64.63769531 C-164.69583984 63.86554688 -164.56306641 63.09339844 -164.42626953 62.29785156 C-159.45272936 36.10387334 -142.32140806 13.39314983 -120.89892578 -1.67871094 C-110.70241643 -8.58039643 -99.7307157 -13.27104346 -87.82861328 -16.36230469 C-86.85279297 -16.66007812 -85.87697266 -16.95785156 -84.87158203 -17.26464844 C-57.05374496 -25.01364798 -22.93798523 -17.08864587 0 0 Z " fill="#9B9B9B" transform="translate(447.82861328125,296.3623046875)"/>
<path d="M0 0 C7.36691115 14.60770979 14.57728058 29.27821364 21.59814453 44.05517578 C24.52556701 50.20470032 27.47782776 56.34236396 30.43164062 62.47924805 C33.06988309 67.96372185 35.69052267 73.45568185 38.28515625 78.9609375 C38.82342041 80.09740723 39.36168457 81.23387695 39.91625977 82.40478516 C40.94684746 84.58161768 41.97235108 86.76086688 42.99194336 88.94287109 C47.77013632 99.11258111 47.77013632 99.11258111 57 105 C60.69333293 105.32976187 63.31463723 105.24368454 66.8125 104 C72.3558976 102.26089487 77.72669445 102.25680396 83.25 104.0625 C87.76992384 107.2469918 90.81600881 111.43295284 94.125 115.8125 C96.58597002 118.68363169 98.63288583 119.78092383 102.37060547 120.37988281 C110.38266412 120.60372502 116.037292 118.29622377 123.125 114.75 C124.30151123 114.18297363 125.47802246 113.61594727 126.69018555 113.03173828 C129.3294416 111.75903935 131.96116596 110.47217898 134.58837891 109.17480469 C139.42746356 106.78525187 144.28197507 104.42784733 149.13671875 102.0703125 C156.23869145 98.61818782 163.33427978 95.15326646 170.42578125 91.6796875 C180.350055 86.82025151 190.31037676 82.04058196 200.28955078 77.29492188 C203.32126432 75.84651541 206.34650854 74.38510683 209.37109375 72.921875 C220.82226435 67.38698681 232.28600092 61.95793702 244 57 C243.72736328 57.89138672 243.72736328 57.89138672 243.44921875 58.80078125 C242.04905709 63.41772458 240.68087729 68.04295123 239.375 72.6875 C239.13523437 73.53699219 238.89546875 74.38648438 238.6484375 75.26171875 C237.30388443 80.93962058 236.87251102 86.47294423 236.8671875 92.296875 C236.86623077 92.9711554 236.86527405 93.64543579 236.86428833 94.34014893 C236.86361224 95.75866795 236.86542638 97.17719017 236.86962891 98.59570312 C236.87495149 100.73054219 236.86968181 102.86516765 236.86328125 105 C236.85991825 112.71203992 237.10413325 120.3310541 238 128 C237.38181396 128.1858667 236.76362793 128.3717334 236.12670898 128.56323242 C221.6946516 132.88616478 221.6946516 132.88616478 207.375 137.5625 C201.95471928 139.39669478 196.50808614 141.02119647 191 142.5625 C180.32213895 145.55705957 169.72402599 148.80236295 159.125 152.0625 C158.29210449 152.31798615 157.45920898 152.57347229 156.60107422 152.83670044 C148.35409137 155.36801188 140.12332644 157.92885881 131.94921875 160.6875 C126.23495556 162.61104122 120.50126418 164.3444169 114.6875 165.9375 C106.95229208 168.09043774 99.3334917 170.46780182 91.7722168 173.17163086 C84.39466686 175.74370793 84.39466686 175.74370793 81 175 C79.2265625 172.8046875 79.2265625 172.8046875 77.625 169.875 C72.76575197 161.69928895 66.41248347 156.14046196 57.12475586 153.45849609 C53.69808929 152.71906373 50.23799134 152.89744356 46.75 152.9375 C45.63238281 152.94426758 45.63238281 152.94426758 44.4921875 152.95117188 C42.6614236 152.96290754 40.83070127 152.9808415 39 153 C28.520028 119.82439742 18.22951767 86.59272244 8.0214119 53.33261681 C7.01526366 50.05453808 6.00872189 46.77658025 5.0021286 43.49863815 C4.51950677 41.92654597 4.03710734 40.3543855 3.55493927 38.78215408 C0.61973758 29.21171878 -2.32554746 19.645288 -5.44644165 10.13330078 C-6.36566256 7.28674895 -7 5.01512857 -7 2 C-2.25 0 -2.25 0 0 0 Z " fill="#FD9600" transform="translate(29,280)"/>
<path d="M0 0 C3.80470451 0.7133821 5.41196019 1.67868421 8 4.5625 C9.67402447 10.81311942 8.2218521 15.06627233 6.03515625 20.890625 C5.72299667 21.76144714 5.4108371 22.63226929 5.08921814 23.52947998 C4.09479894 26.2959847 3.07972722 29.05430945 2.0625 31.8125 C1.05264307 34.58618269 0.0471946 37.36136779 -0.95350647 40.1383667 C-1.57611622 41.86232578 -2.20469857 43.58414195 -2.83982849 45.30352783 C-3.12334671 46.08153748 -3.40686493 46.85954712 -3.69897461 47.66113281 C-3.95069931 48.34395325 -4.20242401 49.02677368 -4.46177673 49.73028564 C-5.14092331 51.72395777 -5.14092331 51.72395777 -5 54.5625 C-4.48270325 54.7415387 -3.96540649 54.92057739 -3.43243408 55.1050415 C1.95816409 56.97329903 7.34292689 58.85768206 12.72460938 60.75146484 C14.73292712 61.45580223 16.74268894 62.15603621 18.75390625 62.85205078 C21.64714153 63.8541051 24.53483618 64.87087642 27.421875 65.890625 C28.31992859 66.19808655 29.21798218 66.5055481 30.14324951 66.82232666 C34.59275408 68.41040733 38.04877186 69.66898509 41 73.5625 C41.78310284 76.32766312 41.65216817 78.77076255 41 81.5625 C38.9375 84.0625 38.9375 84.0625 36 85.5625 C30.20838482 86.05970343 25.94926592 84.78057723 20.66015625 82.71875 C19.89319931 82.43020142 19.12624237 82.14165283 18.33604431 81.84436035 C15.90730218 80.92779895 13.48498184 79.99546497 11.0625 79.0625 C9.4086029 78.43514297 7.75430941 77.80882989 6.09960938 77.18359375 C2.06172041 75.65526782 -1.97048985 74.11277514 -6 72.5625 C-5.6918335 73.16199463 -5.38366699 73.76148926 -5.06616211 74.37915039 C-3.67116878 77.11866467 -2.30428193 79.87130949 -0.9375 82.625 C-0.45216797 83.56794922 0.03316406 84.51089844 0.53320312 85.48242188 C3.24546917 91.00313361 4.89831013 94.56825099 3 100.5625 C0.875 103.0625 0.875 103.0625 -2 104.5625 C-5.5625 104.625 -5.5625 104.625 -9 103.5625 C-13.06316093 99.37753236 -15.31818473 94.23589748 -17.81640625 89.0390625 C-18.26998001 88.10848022 -18.72355377 87.17789795 -19.19087219 86.21911621 C-20.6546378 83.21170996 -22.1091073 80.19993124 -23.5625 77.1875 C-24.55908878 75.12989115 -25.55599655 73.07243676 -26.55322266 71.01513672 C-28.02701505 67.97325028 -29.49981537 64.9309048 -30.96942139 61.88699341 C-33.57971263 56.48145759 -36.21487716 51.09019598 -38.89453125 45.71875 C-39.41523193 44.66478027 -39.93593262 43.61081055 -40.47241211 42.52490234 C-41.37327084 40.70248629 -42.28347479 38.88464351 -43.20532227 37.07275391 C-45.48278193 32.41255171 -46.71212501 28.87348839 -46 23.5625 C-43.4375 20.5625 -43.4375 20.5625 -40 18.5625 C-36.375 18.4375 -36.375 18.4375 -33 19.5625 C-29.11692139 23.5937282 -27.02809544 28.34209656 -24.75 33.375 C-24.38648438 34.16326172 -24.02296875 34.95152344 -23.6484375 35.76367188 C-22.75942269 37.69376982 -21.87884913 39.62775205 -21 41.5625 C-18.79158882 38.24988323 -17.74156982 34.9834833 -16.57421875 31.2265625 C-16.10284597 29.7550056 -15.63082009 28.28365778 -15.15820312 26.8125 C-14.42088877 24.50174162 -13.68823701 22.18986663 -12.96704102 19.87402344 C-12.26657097 17.6327106 -11.54691409 15.39829234 -10.82421875 13.1640625 C-10.5114222 12.13413681 -10.5114222 12.13413681 -10.19230652 11.08340454 C-8.40499016 5.63402756 -5.93290248 1.11241922 0 0 Z " fill="#040300" transform="translate(281,137.4375)"/>
<path d="M0 0 C1.28930664 1.76806641 1.28930664 1.76806641 2.41015625 4.1015625 C2.83675537 4.97208252 3.26335449 5.84260254 3.70288086 6.73950195 C4.15155518 7.69171631 4.60022949 8.64393066 5.0625 9.625 C5.54146729 10.61266357 6.02043457 11.60032715 6.51391602 12.61791992 C8.02318013 15.73880877 9.51245395 18.86871068 11 22 C11.91305675 23.90022317 12.82708962 25.79997769 13.7421875 27.69921875 C16.03501873 32.46770935 18.31012227 37.2444628 20.58203125 42.02294922 C23.02210821 47.1459345 25.48028571 52.26021824 27.9375 57.375 C28.94924567 59.4817579 29.96096436 61.58852877 30.97265625 63.6953125 C31.4742627 64.73977539 31.97586914 65.78423828 32.49267578 66.86035156 C33.97385643 69.94554482 35.45391691 73.03127276 36.93359375 76.1171875 C41.44489666 85.52392556 45.96198553 94.92772693 50.50372314 104.31980896 C60.70883796 125.42352917 60.70883796 125.42352917 64.875 134.1875 C65.36661621 135.21133789 65.36661621 135.21133789 65.86816406 136.25585938 C68 140.76725297 68 140.76725297 68 143 C66.66006185 143.9081803 65.27571688 144.75119369 63.875 145.5625 C58.70836395 148.89319305 55.94099905 152.67415236 53 158 C52.38125 159.0725 51.7625 160.145 51.125 161.25 C48.52770017 169.90766609 49.88646558 178.39826577 52 187 C39.9382916 193.55703611 27.66917398 199.57648095 15.26220703 205.44970703 C9.18407172 208.33820869 3.12431926 211.26495551 -2.9375 214.1875 C-4.14760273 214.77055133 -5.3577259 215.35356025 -6.56787109 215.93652344 C-9.37872934 217.2907076 -12.18943716 218.64520287 -15 220 C-15.33 219.34 -15.66 218.68 -16 218 C-13.60546626 215.28982317 -11.16304181 213.93521453 -7.90625 212.3984375 C-6.88426514 211.9125415 -5.86228027 211.42664551 -4.80932617 210.92602539 C-3.17120972 210.15826782 -3.17120972 210.15826782 -1.5 209.375 C-0.38536377 208.84447021 0.72927246 208.31394043 1.87768555 207.76733398 C7.14552066 205.26427444 12.42704446 202.79631638 17.73828125 200.38671875 C18.60066406 199.9911377 19.46304688 199.59555664 20.3515625 199.18798828 C21.94918104 198.45733139 23.55184672 197.73757495 25.16015625 197.03076172 C29.52511438 195.0298288 32.41793537 193.23758364 35 189 C34.86135328 185.74180218 34.15603434 183.36408012 32.875 180.375 C31.0264926 173.2450429 31.96861756 165.24099435 35.6328125 158.80859375 C38.98314476 154.37658279 43.41008486 151.05994343 48 148 C50.34056199 146.08653758 50.34056199 146.08653758 50.29223633 142.76367188 C49.98130006 138.75916607 49.11244388 136.35379522 47.32421875 132.78125 C46.74913574 131.61368164 46.17405273 130.44611328 45.58154297 129.24316406 C44.95031772 127.99538078 44.31896707 126.74766092 43.6875 125.5 C43.04165592 124.19832224 42.39730459 122.89590283 41.75439453 121.59277344 C40.45589556 118.96334959 39.15143561 116.33702641 37.84228516 113.71289062 C35.29152685 108.58802235 32.83138199 103.42061119 30.375 98.25 C29.4835005 96.38260831 28.59157253 94.51542111 27.69921875 92.6484375 C27.25755371 91.72385742 26.81588867 90.79927734 26.36083984 89.84667969 C19.89961507 76.33073408 13.40535946 62.8306863 6.88919067 49.34115601 C6.00510626 47.510573 5.12148833 45.67976561 4.23803711 43.84887695 C3.65348993 42.63752924 3.06893592 41.42618483 2.484375 40.21484375 C2.19631485 39.617892 1.9082547 39.02094025 1.61146545 38.40589905 C0.15839539 35.39574825 -1.2967613 32.38662693 -2.75585938 29.37939453 C-4.42351955 25.94184754 -6.08701769 22.50231182 -7.75 19.0625 C-8.25144531 18.03253906 -8.75289063 17.00257812 -9.26953125 15.94140625 C-11.48027716 11.35980471 -13.57366791 6.90094339 -15 2 C-13.25364835 1.46706165 -11.50272348 0.94909337 -9.75 0.4375 C-8.77546875 0.14746094 -7.8009375 -0.14257812 -6.796875 -0.44140625 C-3.90205728 -1.01956119 -2.69735445 -1.0802083 0 0 Z " fill="#FABE07" transform="translate(423,34)"/>
<path d="M0 0 C4.70973683 3.11069817 8.46133422 6.92266845 11 12 C11.73654289 15.91810443 11.59971801 19.00046998 9.5 22.5 C6.71591666 24.17045001 4.42968931 24.85660054 1.16015625 24.734375 C-2.71868188 23.41571032 -4.8012203 20.22519316 -7.23828125 17.06640625 C-8.91258363 14.7420452 -8.91258363 14.7420452 -12 14 C-17.35480837 13.65452849 -20.6384043 13.53637989 -25 17 C-27.96200239 21.44300359 -27.90634739 24.7804959 -27 30 C-25.26100408 35.09274993 -22.80537019 39.89342201 -20.38378906 44.6887207 C-19.24549985 46.94642568 -18.1404276 49.21823083 -17.0390625 51.49414062 C-16.32480262 52.94363919 -15.60872006 54.39224134 -14.890625 55.83984375 C-14.56128967 56.51482407 -14.23195435 57.18980438 -13.89263916 57.88523865 C-12.07738062 61.44837901 -10.52498569 64.00848011 -7 66 C-2.46951634 66.75139729 1.73356812 66.50129595 6 64.8125 C9.50037368 61.64028635 9.95114723 58.96077121 10.1875 54.3125 C10.22623312 51.12250637 10.22623312 51.12250637 9 49 C8.45964854 44.94736402 8.65800605 43.46269769 11.125 40.125 C14.49949553 37.63080765 15.90094158 37.38950194 20 38 C23.43244374 39.31259799 24.73160713 40.6054712 26.25 43.9375 C29.17687669 51.1850042 29.00281803 58.03719521 26.25 65.3125 C22.21236283 74.1561828 17.23882482 79.52801281 8.1015625 83.1484375 C-0.95510922 85.63502999 -9.82575464 84.48986834 -18 80 C-31.58368156 71.47690569 -40.20868241 46.70276868 -45 32 C-46.1052312 23.42904038 -45.16679275 15.53566446 -40.18359375 8.3984375 C-29.35910958 -4.73036441 -15.17661091 -7.6473125 0 0 Z " fill="#040300" transform="translate(227,179)"/>
<path d="M0 0 C3.38677089 2.45000447 4.78698584 3.86392446 5.5625 8 C4.82944114 11.90964723 3.82929226 13.15389174 1 16 C-2.42752782 18.02584448 -6.00171112 19.66887097 -9.625 21.3125 C-11.07519531 21.9940918 -11.07519531 21.9940918 -12.5546875 22.68945312 C-19.68356438 26 -19.68356438 26 -22 26 C-21.73445313 26.65226562 -21.46890625 27.30453125 -21.1953125 27.9765625 C-20.84210938 28.85054687 -20.48890625 29.72453125 -20.125 30.625 C-19.77695312 31.48351562 -19.42890625 32.34203125 -19.0703125 33.2265625 C-17.95215808 36.12396993 -16.96117482 39.04720169 -16 42 C-14.9378125 41.41089844 -13.875625 40.82179687 -12.78125 40.21484375 C-11.35473512 39.45466148 -9.92761922 38.6956063 -8.5 37.9375 C-7.80390625 37.54755859 -7.1078125 37.15761719 -6.390625 36.75585938 C-1.0897864 33.98273548 2.15248335 33.61439279 8 35 C10.63091646 37.21983576 10.93215998 38.54450273 11.4375 41.9375 C10.87996145 45.84026985 9.71333706 47.15121456 7 50 C4.68022643 51.4941675 2.25378 52.65984518 -0.25 53.8125 C-1.22453125 54.27946289 -1.22453125 54.27946289 -2.21875 54.75585938 C-3.80721971 55.51505446 -5.40291263 56.25910519 -7 57 C-5.57912516 61.67884039 -3.62814722 65.92688826 -1.375 70.25 C2 76.73214286 2 76.73214286 2 79 C2.69037354 78.66154053 3.38074707 78.32308105 4.09204102 77.97436523 C7.24028629 76.44366394 10.40093287 74.94048009 13.5625 73.4375 C14.64853516 72.90447266 15.73457031 72.37144531 16.85351562 71.82226562 C27.01854304 67.03327095 27.01854304 67.03327095 33 69 C35.4375 70.6875 35.4375 70.6875 37 73 C37.62285806 76.65929112 37.43433021 78.33268252 35.40161133 81.45581055 C32.61441253 84.40847891 29.68672643 86.05105468 26.07421875 87.76953125 C25.40840286 88.09539719 24.74258698 88.42126312 24.05659485 88.75700378 C22.65341434 89.43944544 21.24718186 90.11564361 19.83813477 90.78588867 C17.69532057 91.80876683 15.56744574 92.85880588 13.43945312 93.91210938 C12.06851978 94.57459848 10.69679889 95.23546084 9.32421875 95.89453125 C8.69480881 96.20695267 8.06539886 96.51937408 7.41691589 96.84126282 C3.12379495 98.85045353 -0.28473536 99.63604497 -5 99 C-9.56638918 95.98444028 -11.52297373 90.37282532 -13.81640625 85.57421875 C-14.26998001 84.64226685 -14.72355377 83.71031494 -15.19087219 82.75012207 C-16.6565529 79.73326745 -18.110116 76.7107757 -19.5625 73.6875 C-20.55892065 71.62452061 -21.55582838 69.56177642 -22.55322266 67.49926758 C-24.02743351 64.44911823 -25.50044694 61.39842394 -26.96942139 58.3457489 C-29.57180548 52.93904643 -32.20461993 47.55118464 -34.89453125 42.1875 C-35.41523193 41.13860596 -35.93593262 40.08971191 -36.47241211 39.0090332 C-37.3718347 37.19969867 -38.28189449 35.39559028 -39.20532227 33.59838867 C-41.71553215 28.48249759 -42.96611513 24.70723566 -42 19 C-36.59767794 13.82455635 -30.22737787 10.84996112 -23.54174805 7.64135742 C-21.56313161 6.68780439 -19.59717426 5.71104299 -17.63085938 4.73242188 C-16.36007445 4.11574407 -15.08861136 3.50046137 -13.81640625 2.88671875 C-12.67631104 2.33201904 -11.53621582 1.77731934 -10.36157227 1.20581055 C-6.63551758 -0.13074142 -3.92934985 -0.37782776 0 0 Z " fill="#030300" transform="translate(338,113)"/>
<path d="M0 0 C6.82778025 4.1302474 10.70817085 8.78442808 14 16 C14.495 16.99 14.495 16.99 15 18 C15.78104396 29.07545943 15.11902015 36.88031291 8.8125 46.25 C2.54642795 52.37682601 -5.3908001 55.93851572 -14.125 56.5 C-23.06239669 56.2932847 -30.46171556 52.05645078 -36.5625 45.6875 C-42.35846639 38.44555447 -43.65683413 31.40627618 -43.41015625 22.21484375 C-42.45847227 14.75545405 -38.57816764 8.57004706 -33.0703125 3.5390625 C-23.0523023 -3.90828848 -11.31348861 -5.65674431 0 0 Z " fill="#010102" transform="translate(458,389)"/>
<path d="M0 0 C7.62543672 4.11855138 12.28162073 10.8448622 15 19 C15.90400847 29.6543855 14.97729359 37.26212118 8.53125 45.98828125 C3.33621242 51.93456201 -3.93012009 55.14628315 -11.64453125 56.4453125 C-19.94427101 56.83742619 -27.05919885 53.89986355 -33.375 48.625 C-38.64148057 43.65582075 -42.56697964 38.12376367 -43.3359375 30.80078125 C-43.44224873 21.307188 -42.06998532 14.69527167 -36.875 6.75 C-26.25997316 -3.40350393 -13.54978107 -5.9294383 0 0 Z " fill="#020202" transform="translate(342,322)"/>
<path d="M0 0 C5.77094541 4.57136687 9.98812597 10.05597781 11.05566406 17.49365234 C11.86507585 26.40328315 11.68088362 34.3470225 5.7734375 41.52734375 C0.45076357 47.85701005 -7.15202301 52.83946036 -15.46875 53.78125 C-24.39788253 54.21240749 -31.26704989 51.45972085 -38.1015625 45.77734375 C-44.8034981 39.43063442 -47.31641436 32.50514982 -47.6015625 23.40234375 C-47.51514611 14.83751935 -44.67185723 8.853651 -38.8515625 2.65234375 C-27.64017051 -7.68163496 -12.64173621 -8.36128868 0 0 Z " fill="#010101" transform="translate(462.2265625,324.47265625)"/>
<path d="M0 0 C6.60697709 5.18506736 10.29361322 10.99105119 11.33203125 19.375 C11.84949691 28.77190874 10.45444318 36.3584964 4.05859375 43.546875 C-2.46846074 49.74757677 -8.95152545 52.70652663 -17.95703125 53.15234375 C-26.18054232 52.89452557 -32.79961153 50.20650965 -39.08203125 44.88671875 C-40.67185679 43.18560542 -41.91101441 41.50015379 -43.14453125 39.52734375 C-43.55445313 38.89441406 -43.964375 38.26148438 -44.38671875 37.609375 C-48.49545054 30.05780932 -48.6172047 20.79498341 -46.33203125 12.62109375 C-42.91796716 4.93944954 -36.97743563 -0.01959745 -30.01953125 -4.47265625 C-19.74868829 -8.14424264 -8.69580545 -5.97143653 0 0 Z " fill="#010101" transform="translate(404.14453125,358.47265625)"/>
<path d="M0 0 C6.57711543 4.5578256 11.45511036 10.36533108 14 18 C14.89940885 28.60017578 14.09441502 36.45184373 7.42578125 45.0234375 C2.03028315 50.98489694 -5.2776939 54.39713183 -13.26171875 55.23828125 C-19.76801545 55.43734669 -24.35007819 54.19389237 -30 51 C-30.6290625 50.66097656 -31.258125 50.32195312 -31.90625 49.97265625 C-37.68831741 46.40958401 -41.50306469 40.47266127 -43.64453125 34.07421875 C-45.31814252 24.30842113 -44.11306743 15.6453118 -38.90234375 7.2265625 C-29.63477725 -5.15113649 -13.01694812 -7.33014188 0 0 Z " fill="#010101" transform="translate(343,390)"/>
<path d="M0 0 C6.85598812 5.5909623 11.00143157 11.33185749 12.09375 20.21484375 C12.55331224 28.42465051 11.7788091 35.68162071 6.62109375 42.37109375 C0.96711101 48.53234971 -4.74410281 52.85611559 -13.28125 53.8046875 C-14.62609995 53.82804187 -15.97150661 53.82888561 -17.31640625 53.80859375 C-18.02079834 53.80102051 -18.72519043 53.79344727 -19.45092773 53.78564453 C-25.03946649 53.6082717 -28.92576827 52.70308875 -33.37890625 49.37109375 C-34.27802734 48.78714844 -34.27802734 48.78714844 -35.1953125 48.19140625 C-40.96590858 43.97874647 -44.13055879 38.05257861 -46.37890625 31.37109375 C-47.80248805 22.14497962 -46.12586673 14.19084087 -41.09375 6.375 C-31.54260434 -5.99626109 -12.87534766 -8.81612476 0 0 Z " fill="#010101" transform="translate(403.37890625,424.62890625)"/>
<path d="M0 0 C0.62390625 0.50789063 1.2478125 1.01578125 1.890625 1.5390625 C2.53515625 2.04695313 3.1796875 2.55484375 3.84375 3.078125 C9.79615691 8.35525885 12.36057338 14.30325865 13.33984375 22.12890625 C13.7923161 32.03302334 11.75705222 38.87932476 5.28515625 46.40625 C-0.827601 52.2431346 -8.27107305 54.73860112 -16.609375 55.1015625 C-23.08937 54.8952419 -27.71550114 53.03040675 -33.109375 49.5390625 C-34.0375 48.9409375 -34.965625 48.3428125 -35.921875 47.7265625 C-42.18461284 41.46382466 -45.39142606 34.17557593 -45.546875 25.3515625 C-45.51370332 17.09181349 -43.59531993 11.40938919 -38.0546875 5.2578125 C-28.22829847 -4.12655903 -12.02243429 -8.21380053 0 0 Z " fill="#010101" transform="translate(402.109375,289.4609375)"/>
<path d="M0 0 C24.77635005 8.65291184 43.98219878 28.71719048 55.29931641 51.96459961 C66.20691639 75.32396471 68.8494103 102.29089845 61 127 C60.79101074 127.67224609 60.58202148 128.34449219 60.36669922 129.03710938 C51.9682716 155.33330971 34.39524143 174.892043 11 189 C10.06800781 189.56460938 9.13601563 190.12921875 8.17578125 190.7109375 C3.76309671 193.28322704 3.76309671 193.28322704 2 194 C1.34 193.67 0.68 193.34 0 193 C0.82242187 192.33355469 1.64484375 191.66710937 2.4921875 190.98046875 C19.83687124 176.8410084 19.83687124 176.8410084 31 158 C30.34 157.67 29.68 157.34 29 157 C29.87011719 156.5978125 29.87011719 156.5978125 30.7578125 156.1875 C37.75834048 152.67568398 42.10142456 148.53333319 45.1484375 141.2578125 C46.15726165 137.39836598 46.25677212 133.76830285 46.1875 129.8125 C46.18685547 129.10158203 46.18621094 128.39066406 46.18554688 127.65820312 C46.15892875 124.51430692 46.00063537 122.00190612 45 119 C45.33 118.67 45.66 118.34 46 118 C47.41751111 109.20746607 47.11123724 100.31595438 47.0625 91.4375 C47.05747543 89.84049619 47.05291421 88.24349086 47.04882812 86.64648438 C47.03789728 82.76428467 47.02068533 78.88215949 47 75 C46.01 74.505 46.01 74.505 45 74 C45.33 73.34 45.66 72.68 46 72 C46.74569958 62.28459971 47.27671945 53.07229839 41 45 C38.81090541 42.7592315 36.50640918 40.86875848 34 39 C31.94071972 36.94071972 30.85880059 35.0933059 29.4375 32.5625 C22.65227062 21.13301168 13.25682206 9.40283305 1.43359375 2.97265625 C0.96050781 2.65167969 0.48742187 2.33070313 0 2 C0 1.34 0 0.68 0 0 Z " fill="#6D6D6D" transform="translate(426,285)"/>
<path d="M0 0 C2.5 2.125 2.5 2.125 4 5 C4 8.88243506 3.61465541 11.12529807 1.375 14.3125 C-1.5931756 16.42146687 -4.50382877 17.06687271 -8 18 C-7.69408936 18.60658447 -7.38817871 19.21316895 -7.07299805 19.83813477 C0.0425192 33.96450981 7.021064 48.14584225 13.78222656 62.4453125 C14.91755112 64.82703586 16.07484226 67.19634468 17.2421875 69.5625 C17.57500732 70.24691162 17.90782715 70.93132324 18.25073242 71.63647461 C19.11236376 73.40801738 19.98346939 75.17494384 20.85546875 76.94140625 C22.09026238 80.24121312 22.38307676 82.50810799 22 86 C19.9375 88.875 19.9375 88.875 17 91 C13.4375 91.5625 13.4375 91.5625 10 91 C5.40230927 87.55646209 3.37619529 82.22662289 0.9375 77.1875 C0.4621582 76.22062256 -0.01318359 75.25374512 -0.50292969 74.25756836 C-2.01266889 71.17679713 -3.50841897 68.08959989 -5 65 C-5.4851709 63.99678711 -5.9703418 62.99357422 -6.47021484 61.95996094 C-12.07436393 50.35096137 -17.58508009 38.69844472 -23 27 C-24.175625 27.495 -25.35125 27.99 -26.5625 28.5 C-30.52672952 29.96641411 -33.74248383 30.57312718 -38 30 C-41.26473709 27.85214665 -41.9058033 26.30475404 -43.0625 22.5625 C-43 19 -43 19 -40.93505859 16.51513672 C-37.81615466 13.84245761 -34.64468974 11.97279147 -30.9765625 10.1953125 C-30.31216156 9.86707489 -29.64776062 9.53883728 -28.96322632 9.20065308 C-27.5656681 8.51479971 -26.16543147 7.83437973 -24.76269531 7.15917969 C-22.62799467 6.12644877 -20.5096626 5.06442853 -18.390625 4 C-17.02433039 3.33410232 -15.65716952 2.66997853 -14.2890625 2.0078125 C-13.66278961 1.6902298 -13.03651672 1.37264709 -12.39126587 1.04544067 C-7.88538398 -1.07515553 -4.80269437 -1.23162918 0 0 Z " fill="#040300" transform="translate(134,212)"/>
<path d="M0 0 C2.5 1.5625 2.5 1.5625 4 4 C4.5625 7.4375 4.5625 7.4375 4 11 C0.89162159 15.02260735 -2.4882933 16.82538237 -7 19 C-2.79352393 27.94873635 1.44877985 36.87940038 5.76171875 45.77734375 C6.25310081 46.7912191 6.25310081 46.7912191 6.75440979 47.82557678 C8.39464691 51.20846722 10.03707021 54.59028025 11.68188477 57.97094727 C14.46327785 63.69387262 17.23028777 69.42376232 19.91796875 75.19140625 C20.31008545 76.03131104 20.70220215 76.87121582 21.10620117 77.73657227 C22.40363635 81.02215585 22.63647304 83.53475788 22 87 C19.85214665 90.26473709 18.30475404 90.9058033 14.5625 92.0625 C11 92 11 92 8.59545898 90.11328125 C5.09710927 86.34007005 3.10081954 81.72982705 0.91015625 77.125 C0.44314804 76.16408447 -0.02386017 75.20316895 -0.50502014 74.21313477 C-1.99226943 71.14669901 -3.46491237 68.07349904 -4.9375 65 C-5.92290346 62.96439588 -6.90922299 60.92923494 -7.89648438 58.89453125 C-10.61900223 53.27312653 -13.31732464 47.64051801 -16 42 C-16.35137024 41.26201172 -16.70274048 40.52402344 -17.0647583 39.76367188 C-22 29.36460248 -22 29.36460248 -22 27 C-22.66386719 27.28875 -23.32773437 27.5775 -24.01171875 27.875 C-25.33623047 28.431875 -25.33623047 28.431875 -26.6875 29 C-27.99267578 29.556875 -27.99267578 29.556875 -29.32421875 30.125 C-32.11427064 31.03736733 -34.08856501 31.31055307 -37 31 C-39.81563294 28.99777213 -41.63653223 27.4684098 -42.48828125 24.02734375 C-42.625 21.9375 -42.625 21.9375 -42 18 C-37.0568226 13.28746265 -30.75269538 10.66404186 -24.67211914 7.71679688 C-22.69573335 6.75401084 -20.73196622 5.76823643 -18.76757812 4.78125 C-17.49549881 4.16000825 -16.22273315 3.54016955 -14.94921875 2.921875 C-13.80799561 2.36081055 -12.66677246 1.79974609 -11.4909668 1.22167969 C-7.26392715 -0.25759204 -4.45151501 -0.33521412 0 0 Z " fill="#030300" transform="translate(391,88)"/>
<path d="M0 0 C0.921875 2.1328125 0.921875 2.1328125 1.75 5.125 C2.08902344 6.30449219 2.42804688 7.48398438 2.77734375 8.69921875 C2.96796387 9.3751709 3.15858398 10.05112305 3.35498047 10.74755859 C4.61875442 15.16072228 5.97390923 19.54658356 7.3125 23.9375 C7.75384277 25.39917603 7.75384277 25.39917603 8.20410156 26.89038086 C9.76008003 32.02502622 11.3609608 37.13951607 13.04296875 42.234375 C13.37063232 43.233479 13.6982959 44.23258301 14.03588867 45.26196289 C14.66651195 47.17555081 15.30566513 49.08635409 15.9543457 50.99389648 C16.37913208 52.28662476 16.37913208 52.28662476 16.8125 53.60546875 C17.06644531 54.35981201 17.32039063 55.11415527 17.58203125 55.89135742 C18.06033311 58.30437914 17.87234894 59.71163294 17 62 C14.06004981 64.02755186 12.72295997 64 9 64 C6.921875 61.83984375 6.921875 61.83984375 4.75 58.9375 C-8.94092128 41.54093228 -29.37216655 30.23539521 -50 23 C-47.32556602 20.89926126 -44.69188894 19.22409928 -41.64624023 17.71582031 C-40.7953331 17.29238342 -39.94442596 16.86894653 -39.06773376 16.43267822 C-38.15721756 15.98567566 -37.24670135 15.5386731 -36.30859375 15.078125 C-35.36693863 14.61388123 -34.42528351 14.14963745 -33.45509338 13.67132568 C-31.46833371 12.69413121 -29.48042589 11.71926807 -27.49145508 10.74658203 C-24.44034185 9.25139264 -21.3969341 7.74124634 -18.35351562 6.23046875 C-16.42233016 5.28292593 -14.49070426 4.33628014 -12.55859375 3.390625 C-11.64605331 2.93552551 -10.73351288 2.48042603 -9.7933197 2.01153564 C-8.94556473 1.6007074 -8.09780975 1.18987915 -7.22436523 0.76660156 C-6.47920151 0.40036682 -5.73403778 0.03413208 -4.96629333 -0.34320068 C-3 -1 -3 -1 0 0 Z " fill="#F07900" transform="translate(472,243)"/>
<path d="M0 0 C0.94392105 -0.02280029 1.8878421 -0.04560059 2.86036682 -0.0690918 C4.86335336 -0.10689977 6.86658895 -0.13303133 8.86987305 -0.1484375 C11.90286243 -0.18700982 14.92467201 -0.31083105 17.95507812 -0.4375 C33.93449483 -0.78590778 33.93449483 -0.78590778 39.95254517 4.89637756 C42.2713982 7.4365547 44.37474843 10.11116825 46.50390625 12.8125 C48.89729216 14.88462787 51.42153119 16.64151379 54.06640625 18.375 C57.48056897 20.68227097 60.56896234 22.87755609 63.50390625 25.8125 C33.14390625 25.8125 2.78390625 25.8125 -28.49609375 25.8125 C-26.89639545 22.61310339 -25.5822167 20.51967779 -23.34375 17.84375 C-22.73208984 17.10769531 -22.12042969 16.37164062 -21.49023438 15.61328125 C-20.85279297 14.85402344 -20.21535156 14.09476562 -19.55859375 13.3125 C-18.29872706 11.80271062 -17.03958779 10.29231388 -15.78125 8.78125 C-15.2231665 8.11544922 -14.66508301 7.44964844 -14.09008789 6.76367188 C-12.42602302 4.86933819 -12.42602302 4.86933819 -11.38427734 2.61523438 C-8.18551076 -0.43877292 -4.26002567 0.07964032 0 0 Z " fill="#D44114" transform="translate(260.49609375,461.1875)"/>
<path d="M0 0 C3.05149451 0.81055323 4.0196117 2.03505715 6 4.53125 C7.79602699 7.76550785 9.33138685 11.10816663 10.875 14.46875 C11.84678205 16.54337846 12.81948343 18.61757647 13.79296875 20.69140625 C14.30907715 21.79629395 14.82518555 22.90118164 15.35693359 24.03955078 C17.95378935 29.55815865 20.61830021 35.04358908 23.27981567 40.53121948 C24.18430476 42.3996495 25.08493371 44.26988716 25.98413086 46.14086914 C28.51972448 51.4153618 31.06339266 56.68286461 33.703125 61.90625 C34.08831299 62.68242676 34.47350098 63.45860352 34.87036133 64.25830078 C35.5511046 65.62850882 36.24498492 66.9923217 36.95581055 68.34716797 C39.12293269 72.76280652 39.22409778 75.79075811 38 80.53125 C35.37758123 83.45337377 33.81271786 84.39856137 29.9375 85.03125 C26.26241949 84.40570438 25.41541836 83.31449556 23 80.53125 C21.52709961 78.05541992 21.52709961 78.05541992 20.15234375 75.26171875 C19.63510742 74.21959229 19.11787109 73.17746582 18.58496094 72.10375977 C17.76946777 70.42817993 17.76946777 70.42817993 16.9375 68.71875 C16.36676758 67.56109131 15.79603516 66.40343262 15.20800781 65.21069336 C10.59733671 55.83126734 6.05442065 46.41857827 1.58984375 36.96875 C-0.12567389 33.34213665 -1.88469962 29.74220776 -3.68359375 26.15625 C-4.10608398 25.301521 -4.52857422 24.44679199 -4.96386719 23.56616211 C-5.75017614 21.97738501 -6.54808683 20.3942686 -7.36035156 18.81860352 C-9.82446715 13.78969172 -10.51404808 10.13739784 -10 4.53125 C-7.44699652 0.2762442 -4.60968987 0.0720264 0 0 Z " fill="#040300" transform="translate(155,200.46875)"/>
<path d="M0 0 C1.71436919 5.49760811 3.42322007 10.99688912 5.12695312 16.49780273 C5.7074648 18.36936849 6.28948847 20.24046596 6.87304688 22.11108398 C7.71100316 24.79810197 8.54352868 27.48675056 9.375 30.17578125 C9.63748535 31.01337479 9.8999707 31.85096832 10.17041016 32.71394348 C10.53078369 33.88481758 10.53078369 33.88481758 10.8984375 35.0793457 C11.21820557 36.10859917 11.21820557 36.10859917 11.54443359 37.15864563 C12 39 12 39 12 42 C8.53933819 40.48397613 6.07632511 38.42589493 3.25 35.9375 C-8.41560972 26.29867393 -21.97739035 20.39731634 -36 15 C-31.27866683 11.20012854 -25.86327198 8.79876074 -20.43725586 6.16455078 C-18.56546431 5.25144606 -16.70390882 4.31937089 -14.84179688 3.38671875 C-13.65779297 2.81050781 -12.47378906 2.23429688 -11.25390625 1.640625 C-10.17439697 1.10985352 -9.0948877 0.57908203 -7.98266602 0.03222656 C-4.76230509 -1.0822603 -3.20598745 -1.0108936 0 0 Z " fill="#FA9500" transform="translate(458,251)"/>
<path d="M0 0 C3.80019851 0.71253722 5.19276665 1.89988171 8 4.5625 C9.62655184 7.02507429 10.94235722 9.60705277 12.25 12.25 C14.23057634 16.69243741 14.23057634 16.69243741 17 20.5625 C17.58394161 27.68658759 17.58394161 27.68658759 15.375 31 C12.47465004 32.90812497 10.4631425 33.4182024 7 33.5625 C2.66408778 32.20479011 1.18926756 29.1453006 -1.0625 25.375 C-1.73410156 24.26769531 -2.40570313 23.16039062 -3.09765625 22.01953125 C-8.99748999 11.29806746 -8.99748999 11.29806746 -8 5.5625 C-5.53959272 2.23371368 -4.10389613 0.76948052 0 0 Z " fill="#060500" transform="translate(104,312.4375)"/>
<path d="M0 0 C2.87459336 1.99971712 4.62907801 3.48939028 5.484375 6.97265625 C5.625 9.0625 5.625 9.0625 5 13 C1.23446837 16.63618131 -3.25303451 18.94968213 -7.875 21.3125 C-8.55691406 21.68439453 -9.23882812 22.05628906 -9.94140625 22.43945312 C-14.65046287 24.84779922 -17.7062862 25.45988132 -23 24 C-25.88381579 21.41196019 -26.8491179 19.80470451 -27.5625 16 C-26.79441406 11.90354165 -25.12995493 10.7294198 -22 8 C-19.43915314 6.37503943 -16.78500529 5.01968225 -14.0625 3.6875 C-13.02706055 3.14899414 -13.02706055 3.14899414 -11.97070312 2.59960938 C-7.85448072 0.55125225 -4.69990441 -0.62436686 0 0 Z " fill="#060500" transform="translate(441,193)"/>
<path d="M0 0 C3.65529957 3.79174494 5.71060681 8.12018877 7.8125 12.875 C8.13669922 13.55691406 8.46089844 14.23882812 8.79492188 14.94140625 C10.89422115 19.66145814 11.31076362 22.83481266 10 28 C7.76792546 30.91140158 5.81756105 31.87282384 2.1875 32.4375 C-1 32 -1 32 -3.5 29.8125 C-8.56533895 22.88877371 -13.31122672 13.71434805 -13 5 C-9.34597301 -0.92204374 -6.68326979 -1.61320305 0 0 Z " fill="#050400" transform="translate(65,221)"/>
<path d="M0 0 C2.5 1.5 2.5 1.5 4 4 C4.87078652 9.48595506 4.87078652 9.48595506 4 12 C-0.04796978 15.95583086 -4.32715867 18.45748004 -9.4375 20.8125 C-10.06720703 21.12380859 -10.69691406 21.43511719 -11.34570312 21.75585938 C-15.72244755 23.80253842 -19.1953913 24.44268508 -24 24 C-26.4375 22.5 -26.4375 22.5 -28 20 C-28.55218306 17.22200688 -28.7295645 14.74659576 -28 12 C-24.87611818 7.99259605 -20.70038311 5.98346364 -16.25 3.75 C-15.23292969 3.20472656 -15.23292969 3.20472656 -14.1953125 2.6484375 C-9.21676106 0.130767 -5.57448514 -0.50242141 0 0 Z " fill="#030300" transform="translate(140,162)"/>
<path d="M0 0 C3.06018871 2.53771747 3.83450185 4.11734319 4.5625 8 C3.79166692 12.11110978 2.15682693 13.2717762 -1 16 C-3.72335353 17.66614999 -6.54342581 19.0323105 -9.4375 20.375 C-10.17548828 20.74238281 -10.91347656 21.10976563 -11.67382812 21.48828125 C-16.15404966 23.5989634 -19.07027531 24.5621848 -24 23 C-26.375 21.375 -26.375 21.375 -28 19 C-28.5625 15.5625 -28.5625 15.5625 -28 12 C-21.49857555 4.35692062 -10.17038994 -1.96846257 0 0 Z " fill="#060500" transform="translate(257,283)"/>
<path d="M0 0 C2.4375 1.625 2.4375 1.625 4 4 C4.5625 7.4375 4.5625 7.4375 4 11 C0.41562965 15.29314414 -3.39284188 17.54651845 -8.375 19.8125 C-9.00921875 20.12380859 -9.6434375 20.43511719 -10.296875 20.75585938 C-14.64984384 22.77688062 -18.11849165 23.50539368 -23 23 C-26.38121991 20.55401113 -27.76936783 19.10703441 -28.625 15 C-27.77882816 10.93837517 -26.11251169 9.72550627 -23 7 C-20.46161726 5.35187863 -17.83121938 3.97558051 -15.125 2.625 C-14.10212891 2.07392578 -14.10212891 2.07392578 -13.05859375 1.51171875 C-8.34003806 -0.87002841 -5.29026425 -1.39321245 0 0 Z " fill="#060500" transform="translate(326,73)"/>
<path d="M0 0 C3.0625 2.0625 3.0625 2.0625 5 5 C5.0658286 8.75223014 4.81090744 10.97298779 2.4609375 13.94921875 C-0.88819883 16.74016569 -4.49549057 18.43216474 -8.4375 20.25 C-9.18837891 20.61351563 -9.93925781 20.97703125 -10.71289062 21.3515625 C-17.85898704 24.69520656 -17.85898704 24.69520656 -22 24 C-24.81563294 21.99777213 -26.63653223 20.4684098 -27.48828125 17.02734375 C-27.625 14.9375 -27.625 14.9375 -27 11 C-20.49984908 4.81224081 -9.20331283 -2.00799553 0 0 Z " fill="#060500" transform="translate(279,95)"/>
<path d="M0 0 C2.875 1.5 2.875 1.5 5 4 C5.65741545 6.78972816 5.78274563 9.2360982 5 12 C1.79004727 16.21358136 -2.68726975 18.07527978 -7.375 20.25 C-8.1175 20.61351562 -8.86 20.97703125 -9.625 21.3515625 C-13.85461903 23.33933399 -17.22906532 24.71176426 -22 24 C-24.43826648 21.87300158 -25.66167426 20.79276192 -27 18 C-27.125 14.375 -27.125 14.375 -26 11 C-22.27290892 7.50109817 -18.14662782 5.37981412 -13.5625 3.25 C-12.59860352 2.77626953 -12.59860352 2.77626953 -11.61523438 2.29296875 C-7.58119551 0.40086118 -4.44601639 -0.48758621 0 0 Z " fill="#050400" transform="translate(209,305)"/>
<path d="M0 0 C5.50877783 1.9080683 8.46999852 8.87814452 10.91015625 13.7265625 C11.22146484 14.31695312 11.53277344 14.90734375 11.85351562 15.515625 C13.80429273 19.40860436 14.56779523 22.39014901 14.09765625 26.7265625 C12.01935921 30.46749717 10.77223906 31.51805509 6.66015625 32.7890625 C2.17497378 32.71037509 1.25956582 31.84967563 -1.90234375 28.7265625 C-3.59179447 26.06329875 -4.9088736 23.28124934 -6.21484375 20.4140625 C-6.57384766 19.67994141 -6.93285156 18.94582031 -7.30273438 18.18945312 C-9.46484645 13.54811921 -10.44662148 9.94638265 -9.90234375 4.7265625 C-7.38800989 0.64076998 -4.67650259 0.24172777 0 0 Z " fill="#050400" transform="translate(83.90234375,266.2734375)"/>
<path d="M0 0 C2.875 2.0625 2.875 2.0625 5 5 C5.5625 8.5625 5.5625 8.5625 5 12 C1.7433828 16.19910073 -2.66957606 18.06707137 -7.375 20.25 C-8.1175 20.61351562 -8.86 20.97703125 -9.625 21.3515625 C-13.88210154 23.3522498 -17.19429849 24.61242073 -22 24 C-25.21983624 21.82443497 -25.91057891 20.30738498 -27 16.5625 C-27 12.05175164 -26.14379569 11.17299503 -23 8 C-20.31503036 6.31202804 -17.51119334 4.99422155 -14.625 3.6875 C-13.8825 3.32849609 -13.14 2.96949219 -12.375 2.59960938 C-8.13481045 0.63309037 -4.76837022 -0.64894979 0 0 Z " fill="#040400" transform="translate(232,117)"/>
<path d="M0 0 C2.4375 1.625 2.4375 1.625 4 4 C4.5 7.5 4.5 7.5 4 11 C0.82852114 15.0145302 -3.32605267 17.01299025 -7.8125 19.25 C-8.49892578 19.61351562 -9.18535156 19.97703125 -9.89257812 20.3515625 C-14.42553708 22.63305177 -17.8187709 23.49037785 -23 23 C-25.375 22 -25.375 22 -27 20 C-27.90693419 17.27919742 -28.41725634 14.84777454 -28 12 C-24.99257769 6.95324383 -20.83271252 4.99971347 -15.6875 2.625 C-14.58631836 2.07392578 -14.58631836 2.07392578 -13.46289062 1.51171875 C-8.59299504 -0.77847172 -5.38384797 -1.43388916 0 0 Z " fill="#040300" transform="translate(349,239)"/>
<path d="M0 0 C2.4375 1.6875 2.4375 1.6875 4 4 C4.61592158 7.61853927 4.43609636 9.31722287 2.453125 12.421875 C-0.62296634 15.65470984 -3.77664173 17.3664407 -7.75 19.3125 C-8.42804688 19.67150391 -9.10609375 20.03050781 -9.8046875 20.40039062 C-14.76550182 22.87608218 -18.46009806 23.54685727 -24 23 C-27.23872519 20.32805171 -27.88915865 18.62071155 -28.625 14.5 C-27.91946974 10.54903052 -26.8533934 9.63963218 -23.77832031 7.23535156 C-20.85114502 5.20192117 -17.78541466 3.6331798 -14.5625 2.125 C-13.93279297 1.8053125 -13.30308594 1.485625 -12.65429688 1.15625 C-8.04311485 -1.02375383 -4.92083924 -1.2392777 0 0 Z " fill="#040300" transform="translate(187,140)"/>
<path d="M0 0 C2.4375 1.6875 2.4375 1.6875 4 4 C4.4997925 7.99834 4.11364874 10.59679661 2 14 C-0.66877867 15.94971794 -3.66248703 17.29481363 -6.625 18.75 C-7.40746094 19.16121094 -8.18992187 19.57242188 -8.99609375 19.99609375 C-14.2683897 22.62787 -18.10613652 23.65129126 -24 23 C-27.2883921 20.28707652 -27.90851499 18.65183071 -28.5 14.4375 C-27.89327733 10.26628167 -27.20218912 9.64419384 -24 7 C-21.3065631 5.38793621 -18.52385735 4.02845719 -15.6875 2.6875 C-14.95337891 2.31560547 -14.21925781 1.94371094 -13.46289062 1.56054688 C-8.58921014 -0.76169485 -5.40523158 -1.45316527 0 0 Z " fill="#040300" transform="translate(372,51)"/>
<path d="M0 0 C3.82190732 0.71660762 5.18976702 1.86263871 8 4.5625 C9.71582272 7.22202522 11.05015062 10.00449301 12.375 12.875 C12.74238281 13.60912109 13.10976563 14.34324219 13.48828125 15.09960938 C15.7708355 19.95326719 16.48816648 23.20240716 15 28.5625 C12.37758123 31.48462377 10.81271786 32.42981137 6.9375 33.0625 C3.19366509 32.4252515 2.44469258 31.44751244 0 28.5625 C-1.57568626 26.03319416 -2.9209243 23.41553516 -4.25 20.75 C-4.61351562 20.06357422 -4.97703125 19.37714844 -5.3515625 18.66992188 C-7.62207581 14.15877044 -8.59706848 10.72015541 -8 5.5625 C-5.54999553 2.17572911 -4.13607554 0.77551416 0 0 Z " fill="#060500" transform="translate(422,101.4375)"/>
<path d="M0 0 C2.875 1.5 2.875 1.5 5 4 C5.65741545 6.78972816 5.78274563 9.2360982 5 12 C1.79483294 16.1881951 -2.65511993 18.11060985 -7.3125 20.3125 C-8.04662109 20.68439453 -8.78074219 21.05628906 -9.53710938 21.43945312 C-14.38217515 23.74806033 -17.64180636 24.56419317 -23 23 C-25.32480719 21.43266073 -25.86600521 20.60632643 -26.46875 17.87890625 C-26.4790625 17.11449219 -26.489375 16.35007813 -26.5 15.5625 C-26.54640625 14.41974609 -26.54640625 14.41974609 -26.59375 13.25390625 C-25.69819475 9.85433139 -23.89389712 8.92284242 -21 7 C-18.57061503 5.6322211 -16.09021892 4.42439384 -13.5625 3.25 C-12.59860352 2.77626953 -12.59860352 2.77626953 -11.61523438 2.29296875 C-7.58119551 0.40086118 -4.44601639 -0.48758621 0 0 Z " fill="#040300" transform="translate(394,216)"/>
<path d="M0 0 C2.4375 1.625 2.4375 1.625 4 4 C4.5625 7.4375 4.5625 7.4375 4 11 C0.41562965 15.29314414 -3.39284188 17.54651845 -8.375 19.8125 C-9.00921875 20.12380859 -9.6434375 20.43511719 -10.296875 20.75585938 C-14.65716758 22.78028093 -18.11013697 23.45109438 -23 23 C-25.4375 21.5 -25.4375 21.5 -27 19 C-27.55218306 16.22200688 -27.7295645 13.74659576 -27 11 C-23.86566967 6.97694816 -19.64996049 4.94139279 -15.1875 2.6875 C-14.50107422 2.31560547 -13.81464844 1.94371094 -13.10742188 1.56054688 C-8.36756178 -0.84749936 -5.32436792 -1.41056016 0 0 Z " fill="#050500" transform="translate(93,185)"/>
<path d="M0 0 C4.15529181 0.77911721 6.67071999 2.70844483 9.15087891 6.16772461 C10.27735142 8.01727412 11.30450612 9.89597275 12.3125 11.8125 C12.67150391 12.44285156 13.03050781 13.07320312 13.40039062 13.72265625 C15.97981495 18.54740804 16.49428729 22.10207925 16 27.5625 C13.98804165 30.58043753 12.51119412 31.37358043 9.125 32.625 C5.48514719 32.55220294 4.15032472 31.4833996 1.46679688 29.12866211 C-0.97693866 26.51938058 -2.35911955 23.5482015 -3.8125 20.3125 C-5.49745061 16.15481142 -5.49745061 16.15481142 -8 12.5625 C-8.50243747 8.2080419 -8.48168936 6.22836471 -5.875 2.625 C-3 0.5625 -3 0.5625 0 0 Z " fill="#050400" transform="translate(399,55.4375)"/>
<path d="M0 0 C3.95549682 3.29624735 6.01571521 6.23500646 6.75 11.375 C6.14519026 15.6086682 5.03945399 17.64510591 2.25 20.875 C-2.09747901 23.77331934 -5.56863494 24.69311027 -10.75 23.875 C-14.01678787 21.75126316 -16.99011654 19.39476692 -18.75 15.875 C-19.32717357 11.14406912 -19.18416625 7.72782657 -17 3.4375 C-12.3437906 -1.86540515 -6.5057724 -2.66145234 0 0 Z " fill="#35454D" transform="translate(450.75,337.125)"/>
<path d="M0 0 C4.03808324 3.21610187 5.79585919 7.19511733 7.8125 11.8125 C8.29879883 12.84213867 8.29879883 12.84213867 8.79492188 13.89257812 C10.88226545 18.6170367 11.37202519 21.84528856 10 27 C7.42070826 29.87406793 5.77380407 30.83879082 2 31.625 C-1.36582431 30.9237866 -2.73262726 29.86631269 -4.7734375 27.12109375 C-6.87594446 23.4852298 -8.37617048 19.61871161 -9.88671875 15.70703125 C-10.95795755 12.85014188 -10.95795755 12.85014188 -13 10 C-12.92433357 5.83834648 -12.59563245 3.70074406 -9.875 0.5 C-6.05036816 -1.49546009 -4.10368679 -1.19379979 0 0 Z " fill="#050400" transform="translate(449,150)"/>
<path d="M0 0 C4.29696335 3.38271583 6.66927091 6.46441031 7.375 11.875 C6.78616621 16.78194828 4.51211338 19.70390282 0.8125 22.875 C-3.17957492 24.47182997 -6.75965597 24.70800663 -11 24 C-14.33600367 21.94161475 -15.8262176 20.2606736 -18 17 C-18.66100598 12.95742659 -18.91928345 8.79827957 -17.01953125 5.08203125 C-12.16090632 -0.97256289 -7.24664453 -2.01870812 0 0 Z " fill="#35454D" transform="translate(392,303)"/>
<path d="M0 0 C3.0625 2.0625 3.0625 2.0625 5 5 C5.0666623 8.79975136 4.81237781 11.00030207 2.390625 13.98046875 C-0.59156481 16.49973694 -3.79607779 18.12596358 -7.3125 19.75 C-7.95123047 20.06582031 -8.58996094 20.38164062 -9.24804688 20.70703125 C-13.62324886 22.75499813 -17.08281185 23.5157051 -22 23 C-25.38121991 20.55401113 -26.76936783 19.10703441 -27.625 15 C-26.78427109 10.96450122 -25.07218367 9.71466297 -22 7 C-7.88287118 -1.71989917 -7.88287118 -1.71989917 0 0 Z " fill="#060500" transform="translate(302,261)"/>
<path d="M0 0 C3.99012773 3.29619247 6.50981368 6.1838821 7.375 11.375 C6.61517608 15.93394352 4.45613873 18.9587034 1.0390625 22.01953125 C-2.78171202 24.41268785 -6.78040259 24.12760743 -11.125 23.375 C-14.24501504 21.68681551 -16.51547471 19.59405059 -18.125 16.375 C-18.63593875 12.31668646 -19.04178528 8.17923343 -17.1484375 4.453125 C-12.37249724 -1.4655249 -7.00871577 -3.6445322 0 0 Z " fill="#35454D" transform="translate(392.125,370.625)"/>
<path d="M0 0 C3.49568641 2.33045761 5.04037712 4.04721457 6.8125 7.875 C7.14347614 12.45215781 6.40974048 15.87248919 4.0625 19.8125 C0.62961709 22.95930933 -1.99356981 23.69812145 -6.5625 24.375 C-11.42848685 23.7038294 -13.92533993 21.4320446 -17.1875 17.875 C-18.91339785 14.42320431 -18.54793965 10.65633961 -18.1875 6.875 C-14.8459228 -1.21513427 -7.88193697 -2.78186011 0 0 Z " fill="#35454D" transform="translate(450.1875,404.125)"/>
<path d="M0 0 C2.78970538 1.77526706 4.03928477 2.96637955 5.75 5.75 C6.49383684 10.2348986 6.24961639 14.44544611 4.625 18.6875 C1.30114421 22.34374137 -1.89072341 23.58009043 -6.75 24.1875 C-10.9315053 23.66481184 -13.00429937 22.39184935 -16.25 19.75 C-19.22051564 15.29422653 -18.87737491 10.97557394 -18.25 5.75 C-14.09484912 -1.52151404 -7.73808588 -2.97618688 0 0 Z " fill="#36454D" transform="translate(334.25,404.25)"/>
<path d="M0 0 C3.8026029 2.0050088 5.61790841 3.42686262 8 7 C8.77669034 11.27179687 8.94859196 15.33323116 6.76171875 19.17578125 C3.37332474 23.23680931 1.11942361 24.80005438 -4.3125 25.3125 C-8.7020258 24.94050629 -10.64776343 23.80652364 -14 21 C-16.74928862 16.59926156 -16.67718432 12.03400871 -16 7 C-11.99730813 0.37485483 -7.34089229 -1.03975096 0 0 Z " fill="#36454D" transform="translate(332,336)"/>
<path d="M0 0 C3.22531565 1.6388799 5.28267527 3.98922425 7.375 6.9375 C8.25688519 9.84772112 8.36405994 11.96616714 8 15 C5.86048252 18.89697826 3.76396533 21.64242605 0 24 C-4.06541625 24.80503292 -8.23956421 24.95254041 -11.94921875 22.9453125 C-14.86148698 20.56190654 -16.79826593 18.60234486 -17.2734375 14.828125 C-17.58137554 7.01123631 -17.58137554 7.01123631 -14.625 3.4375 C-10.13243341 -0.73416897 -5.9606168 -0.82278453 0 0 Z " fill="#36454D" transform="translate(391,437)"/>
<path d="M0 0 C2.5 1.5 2.5 1.5 4 4 C4.54686219 6.77988279 4.72991469 9.25208587 4 12 C0.99715331 15.83531904 -2.91885375 17.73571442 -7.25 19.75 C-7.88035156 20.06582031 -8.51070312 20.38164062 -9.16015625 20.70703125 C-13.97494887 22.97223918 -17.68303524 23.48644571 -23 23 C-25.99993115 20.45005852 -26.85480459 18.87117244 -27.5 15 C-26.86307078 11.1784247 -25.66494371 9.80678749 -23 7 C-20.56829325 5.55162167 -18.30707926 4.34354481 -15.75 3.1875 C-15.11964844 2.87619141 -14.48929688 2.56488281 -13.83984375 2.24414062 C-9.02919751 0.01517521 -5.2933669 -0.4223431 0 0 Z " fill="#030300" transform="translate(163,328)"/>
<path d="M0 0 C0.66 0.33 1.32 0.66 2 1 C2 1.66 2 2.32 2 3 C1.39454346 3.2902002 0.78908691 3.58040039 0.1652832 3.87939453 C-1.69630221 4.7718569 -3.55778179 5.66454002 -5.41918945 6.55737305 C-7.62196213 7.61392069 -9.82492851 8.67006459 -12.02807617 9.72583008 C-18.35283178 12.75943326 -24.66970825 15.808255 -30.9765625 18.87890625 C-32.94567093 19.83587762 -34.91491105 20.79257747 -36.88418579 21.74920654 C-38.16624542 22.37304064 -39.44764294 22.99823735 -40.72836304 23.62481689 C-42.53210163 24.50716686 -44.33826988 25.38454474 -46.14453125 26.26171875 C-47.17940674 26.76662842 -48.21428223 27.27153809 -49.28051758 27.79174805 C-51.5471684 28.79880927 -53.57901167 29.51276389 -56 30 C-56 29.01 -56 28.02 -56 27 C-55.01 27 -54.02 27 -53 27 C-51.98065574 26.01972591 -50.98306091 25.0166569 -50 24 C-47.9765625 22.85595703 -47.9765625 22.85595703 -45.625 21.7578125 C-44.73449951 21.33725586 -43.84399902 20.91669922 -42.92651367 20.48339844 C-41.96076416 20.03512695 -40.99501465 19.58685547 -40 19.125 C-37.93317607 18.15453487 -35.86678897 17.18313902 -33.80078125 16.2109375 C-32.70459473 15.6962793 -31.6084082 15.18162109 -30.47900391 14.65136719 C-26.81876532 12.91397394 -23.17906723 11.13869945 -19.54296875 9.3515625 C-17.69556002 8.44723084 -15.84791117 7.54339117 -14.00024414 6.6395874 C-12.20156252 5.75690105 -10.4064264 4.86700188 -8.61132812 3.97705078 C-7.51626953 3.44321777 -6.42121094 2.90938477 -5.29296875 2.359375 C-4.3186792 1.87952148 -3.34438965 1.39966797 -2.34057617 0.90527344 C-1.56818604 0.6065332 -0.7957959 0.30779297 0 0 Z " fill="#F0B807" transform="translate(250,326)"/>
<path d="M0 0 C0.55937256 0.36891357 1.11874512 0.73782715 1.69506836 1.11791992 C-2.24148829 3.01571643 -6.17935113 4.91078784 -10.11743164 6.80541992 C-11.21764648 7.33586914 -12.31786133 7.86631836 -13.45141602 8.4128418 C-16.73176013 9.9901164 -20.01664145 11.55728302 -23.30493164 13.11791992 C-24.35213379 13.61630371 -25.39933594 14.1146875 -26.47827148 14.62817383 C-27.94514404 15.31339111 -27.94514404 15.31339111 -29.44165039 16.01245117 C-30.30878662 16.41955322 -31.17592285 16.82665527 -32.06933594 17.24609375 C-34.30493164 18.11791992 -34.30493164 18.11791992 -37.30493164 18.11791992 C-37.30493164 17.45791992 -37.30493164 16.79791992 -37.30493164 16.11791992 C-36.03801657 15.44383684 -34.76622416 14.77891496 -33.49243164 14.11791992 C-32.78473633 13.74666992 -32.07704102 13.37541992 -31.34790039 12.99291992 C-29.30493164 12.11791992 -29.30493164 12.11791992 -26.30493164 12.11791992 C-25.28669164 11.13649885 -24.28942819 10.13318666 -23.30493164 9.11791992 C-19.92962912 7.14267091 -16.39074145 5.4995467 -12.86743164 3.80541992 C-11.91288086 3.32524414 -10.95833008 2.84506836 -9.97485352 2.3503418 C-9.05381836 1.90625977 -8.1327832 1.46217773 -7.18383789 1.00463867 C-6.34409424 0.59431396 -5.50435059 0.18398926 -4.63916016 -0.23876953 C-2.30493164 -0.88208008 -2.30493164 -0.88208008 0 0 Z " fill="#F0B707" transform="translate(171.304931640625,365.882080078125)"/>
<path d="M0 0 C0.66 0.33 1.32 0.66 2 1 C2 1.66 2 2.32 2 3 C-8.22515095 9.85758627 -17.08808726 9.67284863 -29 9 C-29 8.67 -29 8.34 -29 8 C-28.11699219 7.98582031 -27.23398437 7.97164063 -26.32421875 7.95703125 C-18.71494938 7.65462205 -12.95878679 6.63186167 -6.20703125 3.05859375 C-4 2 -4 2 -1 2 C-0.67 1.34 -0.34 0.68 0 0 Z " fill="#C89C05" transform="translate(404,252)"/>
<path d="M0 0 C1.32 0.66 2.64 1.32 4 2 C-2.6 4.97 -9.2 7.94 -16 11 C-13.71649968 6.43299935 -11.48781609 5.2575374 -7.125 3.125 C-6.49980469 2.79242188 -5.87460938 2.45984375 -5.23046875 2.1171875 C-3.3828125 1.1953125 -3.3828125 1.1953125 0 0 Z " fill="#EEB507" transform="translate(190,355)"/>
<path d="M0 0 C1.32 0.66 2.64 1.32 4 2 C-2.6 4.97 -9.2 7.94 -16 11 C-13.71649968 6.43299935 -11.48781609 5.2575374 -7.125 3.125 C-6.49980469 2.79242188 -5.87460937 2.45984375 -5.23046875 2.1171875 C-3.3828125 1.1953125 -3.3828125 1.1953125 0 0 Z " fill="#F1B707" transform="translate(269,317)"/>
<path d="M0 0 C-1 3 -1 3 -2.7421875 4.203125 C-3.44601563 4.54859375 -4.14984375 4.8940625 -4.875 5.25 C-5.57367188 5.60578125 -6.27234375 5.9615625 -6.9921875 6.328125 C-9 7 -9 7 -12 6 C-10.70903219 5.18639005 -9.41720125 4.37414954 -8.125 3.5625 C-7.04605469 2.88380859 -7.04605469 2.88380859 -5.9453125 2.19140625 C-2.36721311 0 -2.36721311 0 0 0 Z " fill="#F9BE07" transform="translate(221,341)"/>
<path d="M0 0 C-2.64 1.65 -5.28 3.3 -8 5 C-8 4.01 -8 3.02 -8 2 C-3.71900826 -1.23966942 -3.71900826 -1.23966942 0 0 Z " fill="#E6AF07" transform="translate(289,310)"/>
<path d="M0 0 C-1 3 -1 3 -2.875 4.1875 C-5 5 -5 5 -8 5 C-8 4.34 -8 3.68 -8 3 C-2.25 0 -2.25 0 0 0 Z " fill="#F7BD07" transform="translate(142,379)"/>
</svg>
